<svg id="_x33_0" enable-background="new 0 0 64 64" height="512" viewBox="0 0 64 64" width="512" xmlns="http://www.w3.org/2000/svg"><g><g><g><path d="m62 6v20h-28v-20h4 4z" fill="#e6e9ed"/></g><g><path d="m34 2h28v4h-28z" fill="#5cd6b3"/></g><g><path d="m46 10h12v4h-12z" fill="#ff826e"/></g><g><path d="m38 18h4v4h-4z" fill="#ff826e"/></g><g><path d="m38 10h4v4h-4z" fill="#fcd770"/></g><g><path d="m45 56h6v6h-6z" fill="#aab2bd"/></g><g><path d="m62 52v3c0 .55-.45 1-1 1h-10-6-10c-.55 0-1-.45-1-1v-3z" fill="#ccd1d9"/></g><g><path d="m61 32h-26c-.55 0-1 .45-1 1v14.35 4.65h28v-19c0-.55-.45-1-1-1z" fill="#69d6f4"/></g><g><path d="m19 54h9v8h-9-9v-8z" fill="#969faa"/></g><g><path d="m28 29c2.54.63 4.67 2.35 5.84 4.69l.16.31 3 6 4.15-2.77 3.85 5.77-5.77 4.13c-.8.56-1.75.87-2.73.87h-.05c-.88 0-1.72-.23-2.45-.66-.56-.32-1.06-.76-1.46-1.29-1.78-2.36-4.54-6.05-4.54-6.05v14h-9v-15c1.1 0 2-.9 2-2l5.58-4.78c.9-.77 1.42-1.9 1.42-3.09 0-.04 0-.09-.01-.13z" fill="#fcd770"/></g><g><path d="m19 39v15h-9v-1l-2.12-1.06c-1.8-.9-3.27-2.27-4.29-3.92-1.02-1.66-1.59-3.58-1.59-5.6 0-.94.13-1.88.37-2.79l1.29-4.71c.82-3.02 3.28-5.31 6.34-5.92h.01c-.01.04-.01.09-.01.13 0 1.19.52 2.32 1.42 3.09l5.58 4.78c0 1.1.9 2 2 2z" fill="#fcd770"/></g><g><path d="m17 35v2l-5.58-4.78c-.9-.77-1.42-1.9-1.42-3.09 0-.04 0-.09.01-.13.01-.69.21-1.37.57-1.97l.03-.05v-.01c.13.02.26.03.39.03h1c0 .55.22 1.05.59 1.41.36.37.86.59 1.41.59h.15c-.1.31-.15.63-.15.95 0 .68.22 1.34.63 1.89z" fill="#fc6e51"/></g><g><path d="m26.58 32.22-5.58 4.78v-2l2.37-3.16c.41-.55.63-1.21.63-1.89 0-.62-.18-1.23-.53-1.74l-1.31-1.96c.66-.34 1.27-.78 1.79-1.3.49-.49.9-1.04 1.23-1.65l2.24 3.73c.36.6.56 1.28.57 1.97.01.04.01.09.01.13 0 1.19-.52 2.32-1.42 3.09z" fill="#fc6e51"/></g><g><path d="m21 35v2c0 1.1-.9 2-2 2s-2-.9-2-2v-2c0-1.1.9-2 2-2 .55 0 1.05.22 1.41.59.37.36.59.86.59 1.41z" fill="#ff826e"/></g><g><path d="m27.52 12.83.28 1.28c-.25-.07-.52-.11-.8-.11h-1.86c-.35-.46-.81-.84-1.35-1.11l-1.83-.91c-.21 1.15-1.22 2.02-2.43 2.02h-7.53-1c-.28 0-.55.04-.8.11l.28-1.28c.44-1.99 1.55-3.7 3.06-4.91s3.42-1.92 5.46-1.92c4.09 0 7.63 2.84 8.52 6.83z" fill="#b27946"/></g><g><path d="m29.46 13.15-.41 1.66c-.35-.32-.77-.57-1.25-.7l-.28-1.28c-.89-3.99-4.43-6.83-8.52-6.83-2.04 0-3.95.71-5.46 1.92s-2.62 2.92-3.06 4.91l-.28 1.28c-.48.13-.9.38-1.25.7l-.71-2.85c-.16-.64-.24-1.29-.24-1.95 0-2.21.9-4.21 2.35-5.66s3.45-2.35 5.66-2.35h11.35c.95 0 1.77.67 1.96 1.61l.33 1.64c.23 1.16.35 2.35.35 3.53 0 1.48-.18 2.94-.54 4.37z" fill="#b27946"/></g><g><path d="m12.29 22h-1.29c-1.66 0-3-1.34-3-3v-2c0-.86.36-1.64.95-2.19.35-.32.77-.57 1.25-.7.25-.07.52-.11.8-.11h1v6c0 .7.1 1.37.29 2z" fill="#aab2bd"/></g><g><path d="m27.8 14.11c.48.13.9.38 1.25.7.59.55.95 1.33.95 2.19v2c0 1.66-1.34 3-3 3h-1.29c.19-.63.29-1.3.29-2v-3.53c0-.91-.31-1.78-.86-2.47h1.86c.28 0 .55.04.8.11z" fill="#aab2bd"/></g><g><path d="m18 26.93v.07c0 1.1-.9 2-2 2h-1.85-.15c-.55 0-1.05-.22-1.41-.59-.37-.36-.59-.86-.59-1.41 0-1.1.9-2 2-2h.1 1.9c.55 0 1.05.22 1.41.59.35.34.57.82.59 1.34z" fill="#ccd1d9"/></g><g><path d="m49.15 36c1.57 0 2.85 1.28 2.85 2.85 0 1.27-.84 2.39-2.07 2.74l-4.93 1.41-3.85-5.77.84-.56c.66-.44 1.43-.67 2.22-.67z" fill="#f0d0b4"/></g><g><path d="m23.37 31.84-2.37 3.16c0-.55-.22-1.05-.59-1.41-.36-.37-.86-.59-1.41-.59-1.1 0-2 .9-2 2l-2.37-3.16c-.41-.55-.63-1.21-.63-1.89 0-.32.05-.64.15-.95h1.85c1.1 0 2-.9 2-2 0-.02 0-.05 0-.07.33.05.66.07 1 .07 1.14 0 2.21-.27 3.16-.75l1.31 1.96c.35.51.53 1.12.53 1.74 0 .68-.22 1.34-.63 1.89z" fill="#f0d0b4"/></g><g><path d="m26 16.47v3.53c0 .7-.1 1.37-.29 2-.13.45-.31.89-.53 1.3-.33.61-.74 1.16-1.23 1.65-.52.52-1.13.96-1.79 1.3-.95.48-2.02.75-3.16.75-.34 0-.67-.02-1-.07-.02-.52-.24-1-.59-1.34-.36-.37-.86-.59-1.41-.59h-1.9c-.84-.82-1.47-1.85-1.81-3-.19-.63-.29-1.3-.29-2v-6h7.53c1.21 0 2.22-.87 2.43-2.02l1.83.91c.54.27 1 .65 1.35 1.11.55.69.86 1.56.86 2.47z" fill="#f0d0b4"/></g></g><g><circle cx="22" cy="18" r="1"/><circle cx="16" cy="18" r="1"/><path d="m16.895 20.553-1.789.895.105.211c.722 1.444 2.174 2.341 3.789 2.341s3.067-.897 3.789-2.342l.105-.211-1.789-.895-.105.212c-.381.762-1.147 1.236-2 1.236s-1.619-.474-2-1.236z"/><path d="m33 1v26h30v-26zm28 4h-18v-2h18zm-22 0v-2h2v2zm-2-2v2h-2v-2zm-2 22v-18h26v18z"/><path d="m61 31h-26c-.522 0-.994.206-1.351.535-1.211-1.539-2.856-2.685-4.738-3.298-.108-.604-.316-1.187-.634-1.718l-1.968-3.28c.035-.079.069-.158.102-.238h.589c2.206 0 4-1.794 4-4v-2c0-.925-.329-1.767-.858-2.446l.291-1.162c.376-1.506.567-3.057.567-4.61 0-1.249-.124-2.503-.369-3.728l-.329-1.645c-.279-1.396-1.516-2.41-2.942-2.41h-11.346c-4.971 0-9.014 4.044-9.014 9.014 0 .735.09 1.471.269 2.186l.589 2.355c-.529.678-.858 1.52-.858 2.445v2 5c0 1.576.924 2.929 2.252 3.581-.067.208-.119.418-.158.633-3.114.881-5.538 3.281-6.4 6.443l-1.284 4.705c-.272.998-.41 2.029-.41 3.063 0 4.438 2.465 8.426 6.434 10.41l1.566.783v9.382h20v-20l2.74 3.654c.355.474.785.879 1.26 1.22v7.126c0 1.103.897 2 2 2h9v4h-4v2h16v-2h-4v-4h9c1.103 0 2-.897 2-2v-22c0-1.103-.897-2-2-2zm-34.438-3.452c.287.477.438 1.023.438 1.58 0 .897-.391 1.747-1.072 2.331l-2.861 2.452 1.105-1.473c.534-.712.828-1.596.828-2.486 0-.821-.241-1.615-.696-2.299l-.732-1.098c.575-.402 1.096-.877 1.547-1.412zm-7.562 10.452c-.551 0-1-.448-1-1v-2c0-.552.449-1 1-1s1 .448 1 1v2c0 .552-.449 1-1 1zm0-6c-.892 0-1.686.399-2.236 1.019l-1.335-1.78c-.267-.356-.415-.795-.425-1.239h.996c1.307 0 2.409-.845 2.82-2.013.06.002.12.013.18.013.982 0 1.92-.187 2.79-.512l.85 1.275c.235.354.36.765.36 1.189 0 .461-.152.918-.429 1.287l-1.335 1.78c-.55-.62-1.344-1.019-2.236-1.019zm-5.99-2.181c-.001.045-.01.088-.01.133 0 .89.294 1.773.829 2.486l1.106 1.475-2.863-2.453c-.681-.585-1.072-1.435-1.072-2.332 0-.362.086-.711.209-1.048.316.814.976 1.448 1.801 1.739zm-1.01-16.819h-.529c.809-3.534 3.897-6 7.529-6s6.72 2.466 7.529 6h-.943c-.386-.397-.835-.742-1.351-1l-1.246-.621c-.054-1.263-.77-2.388-1.91-2.957l-.633-.316-.894 1.789.633.316c.503.251.815.756.815 1.317 0 .812-.661 1.472-1.472 1.472zm1 2h6.528c1.243 0 2.327-.662 2.941-1.647l.873.436c1.023.512 1.658 1.539 1.658 2.683v3.528c0 3.309-2.691 6-6 6-.063 0-.125-.012-.188-.013-.418-1.155-1.515-1.987-2.812-1.987h-1.464c-.989-1.102-1.536-2.505-1.536-4zm1 11h2c.551 0 1 .448 1 1s-.449 1-1 1h-2c-.551 0-1-.448-1-1s.449-1 1-1zm15-7c0 1.103-.897 2-2 2h-.069c.041-.328.069-.661.069-1v-3.528c0-.509-.081-1.003-.224-1.472h.224c1.103 0 2 .897 2 2zm-12.986-16h11.346c.475 0 .888.338.981.804l.329 1.645c.219 1.095.33 2.217.33 3.334 0 1.337-.162 2.672-.474 3.972l-.031-.139c-.997-4.484-4.901-7.616-9.495-7.616s-8.498 3.132-9.495 7.616l-.033.149-.263-1.051c-.139-.556-.209-1.128-.209-1.7 0-3.868 3.146-7.014 7.014-7.014zm-7.014 14c0-1.103.897-2 2-2v5c0 .338.028.67.069 1h-.069c-1.103 0-2-.897-2-2zm0 5.444c.591.344 1.268.556 2 .556h.583c.21.52.472 1.019.79 1.486-.549.356-.966.888-1.189 1.514h-.184c-1.103 0-2-.897-2-2zm-.672 28.602c-3.286-1.643-5.328-4.946-5.328-8.621 0-.856.114-1.71.34-2.537l1.283-4.706c.629-2.306 2.315-4.104 4.513-4.9.243 1.04.808 1.987 1.635 2.697l5.28 4.526c.184 1.078.942 1.952 1.949 2.311v13.184h-7v-15h-2v4.586l-1.293-1.293-1.414 1.414 2.707 2.707v5.968zm11.672 9.954v-4h-2v4h-7v-6h16v6zm9-21.333v-1.667h-2v15h-7v-13.184c1.008-.359 1.765-1.234 1.949-2.312l5.28-4.527c.812-.696 1.369-1.622 1.619-2.639 1.77.727 3.233 2.061 4.101 3.796l3.663 7.325 4.264-2.842 2.754 4.132-4.986 3.562c-.63.451-1.373.689-2.197.689-1.238 0-2.37-.563-3.107-1.546zm16.427 2.171-2.886-4.33.007-.004c.493-.33 1.068-.504 1.663-.504h4.939c1.02 0 1.85.83 1.85 1.851 0 .821-.552 1.553-1.342 1.778zm-8.929 7.162c1.193 0 2.338-.367 3.31-1.062l5.633-4.024 4.767-1.361c1.644-.47 2.792-1.992 2.792-3.702 0-2.123-1.727-3.851-3.85-3.851h-4.939c-.991 0-1.95.29-2.773.84l-4.05 2.7-2.388-4.776v-.764h26v18h-26v-2.192c.483.123.984.192 1.498.192zm13.502 12h-4v-4h4zm-15-6v-2h26v2z"/><path d="m37 15h6v-6h-6zm2-4h2v2h-2z"/><path d="m37 23h6v-6h-6zm2-4h2v2h-2z"/><path d="m45 15h14v-6h-14zm2-4h10v2h-10z"/><path d="m45 17h14v2h-14z"/><path d="m45 21h10v2h-10z"/><path d="m59 47h-6v-4h-2v4h-2v-2h-2v2h-2v2h14z"/><path d="m55 35h4v2h-4z"/><path d="m55 39h4v2h-4z"/><path d="m55 43h4v2h-4z"/></g></g></svg>