<svg xmlns="http://www.w3.org/2000/svg" xmlns:xlink="http://www.w3.org/1999/xlink" viewBox="0 0 1920 1080">
  <defs>
    <style>
      .glass-1 {
        clip-path: url(#clip-FlowChart_Play_1);
      }

      .glass-2 {
        fill: #c0a57c;
      }

      .glass-3, .glass-7 {
        fill: none;
      }

      .glass-3 {
        stroke: #b59970;
      }

      .glass-3, .glass-4, .glass-5 {
        stroke-width: 5px;
      }

      .glass-4, .glass-5 {
        stroke: #000;
      }

      .glass-4 {
        fill: url(#radial-gradient);
      }

      .glass-5 {
        fill: rgba(204,255,245,0.2);
      }

      .glass-6 {
        stroke: none;
      }

      .glass-8 {
        fill: #fff;
      }
    </style>
    <radialGradient id="radial-gradient" cx="0.5" cy="0.5" r="0.5" gradientUnits="objectBoundingBox">
      <stop offset="0" stop-color="#fff" stop-opacity="0.455"/>
      <stop offset="1" stop-color="#fff" stop-opacity="0.502"/>
    </radialGradient>
    <clipPath id="clip-FlowChart_Play_1">
      <rect width="1920" height="1080"/>
    </clipPath>
  </defs>
  <g id="FlowChart_Play_1" data-name="FlowChart – Play – 1" class="glass-1">
    <rect class="glass-8" width="1920" height="1080"/>
    <g id="wood">
      <rect id="Rectangle_69" data-name="Rectangle 69" class="glass-2" width="1941" height="1090" transform="translate(-10 -6)"/>
      <path id="Path_42" data-name="Path 42" class="glass-3" d="M2580,6417s128.41,26.422,194.1,24.694,192.993-22.646,386.72-24.694,342.451,30.819,514.566,0,293.148,0,293.148,0,241.036,44.1,393.5,0,155.948,0,155.948,0" transform="translate(-2591.125 -6417)"/>
      <path id="Path_43" data-name="Path 43" class="glass-3" d="M2589.49,6482.686s121.749-23.836,230.119-6.917,134.566-6.994,256.445,21.222,142.658-21.222,142.658-21.222,41.828-39.907,123.508,6.917,115.07-16.475,142.961-30.861,161.58,0,161.58,0,43.035-1.048,66.585-14.743,104.029,53.321,179.988,45.6,188.853-26.962,264.931-17.912,107.785,37.044,217.979,17.912c63.834-7.036,41.086,17.453,74.081,16.395s9.591-27.864,81.291-16.395" transform="translate(-2600.615 -6413)"/>
      <path id="Path_44" data-name="Path 44" class="glass-3" d="M2580,6526.9s21.538-2.231,52.64,0,48.017,10.757,71.769,8.926,45.318,42.461,194.746,0c87.158-16.92,101.258,7.944,138.627,6.5,77.262-9.277,82.512-10.217,187.927,13.057,140.556-11.015,213.173,12.808,309.076,17.471,44.057-.869,75.55-25.78,177.147-42.313,125.71-9.992,165.577,16.188,311.3,0,41.524,1.711,112.355-42.579,219.943-1.213,141.43,25.146,283.671-13.214,283.671-13.214" transform="translate(-2595.849 -6417)"/>
      <path id="Path_45" data-name="Path 45" class="glass-3" d="M-7.056,196.471S48.3,220.3,89.067,219.177s87.213-29.161,144.242-27.16,78.369,40.078,128.112,39.095c76.149,2.513,156.147-59.317,305.239-56.956s264.055,38.375,312.376,38.375,107.837-29.127,139.668-24.282,46.891,30.462,72.966,30.591,142.649-45.816,313.406-38.621c37.807-11.423,51.645-39.539,126.148-41.648s185.75,67.261,299.775,50.584"/>
      <path id="Path_46" data-name="Path 46" class="glass-3" d="M-11.664,270.71s111.739,2.759,222.007,15.34,175.623-8.6,185.03-15.34,83.689-57.976,193.777-42.359,114.877-.226,240.945,18.006,184.53,64.969,263.326,54.924,229.681-73.09,321.326-70.237,121.2,51.69,222.7,50.126S1931,263.526,1931,263.526"/>
      <path id="Path_47" data-name="Path 47" class="glass-3" d="M-7.056,341.562l113.508-6.28s174.216-11.258,246.89-11.258S505.536,336.09,578.991,336.09s281.07,14.708,311.822,0,99.257-12.066,99.257-12.066,167.632,14.859,205.815,7.044,33.757-10.405,71.518-10.405,298.873,34.978,341.538,26.971,260.631-20.108,322.059-8.253"/>
      <path id="Path_48" data-name="Path 48" class="glass-3" d="M-7.056,369.141s202.308,15.135,274.073,9.08,233.3-17.095,328.667-13.381,306.782,3.293,306.782,3.293,230.779-13.442,310.214,5.4,82.776-5.654,210.832-5.654,207.149-8.75,301.393,5.654,174.248-22.843,203.4-5.654"/>
      <path id="Path_49" data-name="Path 49" class="glass-3" d="M2580,6832.831s283.451,9.75,326.306,0,254.059-6.884,370.993,0,400.991-18.425,578.629,0,283.5-12.687,283.5-12.687,174.34-27.118,378.788,12.688" transform="translate(-2587.218 -6417)"/>
      <path id="Path_50" data-name="Path 50" class="glass-3" d="M2572.782,6871.206s165.91-8.753,193.267,0,163.376-3.957,202.216,0,195.107.14,221.056,7.668a396.918,396.918,0,0,0,104.249,15.81c42.244.623,201.412-33.489,254.507-33.489s39.61,17.975,111.024,17.68,113.586-10.5,314.637,0,121.886-12.6,256.431-17.68,126.155,35.119,280.832,0" transform="translate(-2580 -6417)"/>
      <path id="Path_51" data-name="Path 51" class="glass-3" d="M2568.24,6900.2s56.882,23.592,131.119,29.059,61.613-14.991,165.831-7.189,173.2,18.2,252.732,0,130.529.807,174.583,0,84.714-14.981,237.841-10.006,203.758-16.46,300.055,17.2,152.914-7.379,203.326,0,17.9,26.678,81.713,27.023,32.116-49.064,70.337-50.039S4434.7,6942.574,4511,6889.6" transform="translate(-2580 -6417)"/>
      <path id="Path_52" data-name="Path 52" class="glass-3" d="M2568.875,6980.793S2712.986,6966.458,2787,6965.5s124.509,44.374,232.118,43.116,215.92-23.206,315.635-27.824,34.874,11.3,82.339,11.3,137.626-10.657,166.218-11.3,205.1,22.254,330.638-16.811,34.928,30.017,105.158,55.792,440.872-14.129,491.9-49.8" transform="translate(-2580 -6417)"/>
      <path id="Path_53" data-name="Path 53" class="glass-3" d="M2564.128,7084.972s26.384,7.885,221.564-33.411,398.917,33.411,398.917,33.411,93.368,9.828,159.847,0,114.472-38.6,142.2-40.267,161.306,42.115,219.1,40.267,138.4-15.281,243.859,0,82.081,2.965,153.667,0,136.054,16.021,192.431,0,215.292,0,215.292,0" transform="translate(-2580 -6417)"/>
      <path id="Path_54" data-name="Path 54" class="glass-3" d="M2564.151,7117.469s286.134-19.395,424.02,0,115.005-6.47,267.8-6.612,343.374,6.042,343.374,6.042h589.727s251.4,17.341,321.931-15.017" transform="translate(-2580 -6417)"/>
      <path id="Path_55" data-name="Path 55" class="glass-3" d="M2571.594,7185.831h120.294c108.248,0,209.017-22.355,312.7,0s77.763-5.08,252.055,0,127.866-18,192.5-9.98,388.955,0,388.955,0,325.065-49.122,372.446-35.841,139.705,76.772,300.461,45.822" transform="translate(-2580 -6417)"/>
      <path id="Path_56" data-name="Path 56" class="glass-3" d="M2561.209,7229.572s414.283-17.395,457.8-7.187,134.2,22.415,199.721,7.188,97.556-11.976,179.956-13.4,235.354,3.608,273.649-7.214,118.422,29.371,219.543,26.162,242.47-63.61,287.458-54.6,47.347,68.911,176.45,46.959S4511,7235.12,4511,7235.12" transform="translate(-2580 -6417)"/>
      <path id="Path_57" data-name="Path 57" class="glass-3" d="M2564.1,7281.066s136.34,29.177,255.849-7.743,183.278,23.558,273.141,23.267,94.733-43.417,162.789-47.4,60.589,16.162,199.215,24.13,88.005-18.749,355.287,7.743,322.963-28.7,472.234-31.873,134.409,35.027,228.384,31.873" transform="translate(-2580 -6417)"/>
      <path id="Path_58" data-name="Path 58" class="glass-3" d="M2559.543,7360.955s275.614,5.327,371.431-16.128,115.281,11.189,172.866,16.128,94.064-40.84,223.848-16.128,120.679-26.184,208.76-30.945,76.408,31.813,192.156,30.25,175.773-49.963,270.837-36.5,115.239,51.694,173.54,53.328,295.109,7.715,338.017-8.46" transform="translate(-2580 -6417)"/>
      <path id="Path_59" data-name="Path 59" class="glass-3" d="M2565.507,7409.225s89.933-15.767,146.238-20.016,20.983,71.876,78.216,71.876,48.51-66.964,99.137-71.876,138.391-1.165,197.653,12.062c2.785.622,5.375,1.262,7.98,1.97,48.715,13.241,24.774,32.836,84.993,31.2,63.188-1.72,311.692-.879,365.109,0s100.2-14.569,138.49-10.666,170.5,11.852,211.179,10.666,7.019-33.874,55.518-33.167,77.523-5.625,151.631,0,75.452,21.623,144.8,22.5,24.769-28.966,150.124-6,109.665-16.5,109.665-16.5" transform="translate(-2580 -6417)"/>
      <path id="Path_60" data-name="Path 60" class="glass-3" d="M2563.426,7474.917s24.958-7.139,88.688,0,63.934,45.406,180.769,27.629,172.284-27.629,172.284-27.629,189.64-25.408,253.648-9.749,433.679,9.749,433.679,9.749l435.958-9.749s62.462-5,116.627,0,56.015,25.747,134.079,20.673S4511,7474.917,4511,7474.917" transform="translate(-2580 -6417)"/>
    </g>
    <g id="Group_62" data-name="Group 62" transform="translate(-88 -70)">
      <g id="grass">
        <g id="Ellipse_31" data-name="Ellipse 31" class="glass-4" transform="translate(852 386)">
          <circle class="glass-6" cx="224.5" cy="224.5" r="224.5"/>
          <circle class="glass-7" cx="224.5" cy="224.5" r="222"/>
        </g>
        <g id="Ellipse_32" data-name="Ellipse 32" class="glass-5" transform="translate(867 401)">
          <circle class="glass-6" cx="209.5" cy="209.5" r="209.5"/>
          <circle class="glass-7" cx="209.5" cy="209.5" r="207"/>
        </g>
      </g>
    </g>
  </g>
</svg>
