<svg xmlns="http://www.w3.org/2000/svg" xmlns:xlink="http://www.w3.org/1999/xlink" viewBox="0 0 419 419">
  <defs>
    <style>
      .in-glass-1 {
        fill: url(#in-radial-gradient);
      }

      .in-glass-2 {
        opacity: 0.825;
        fill: url(#in-radial-gradient-2);
      }

      .in-glass-3, .in-glass-4 {
        stroke: none;
      }
    </style>
    <radialGradient id="in-radial-gradient" cx="0.5" cy="0.5" r="0.45" gradientTransform="matrix(0.882, 0.471, -0.659, 1.236, 0.388, -0.353)" gradientUnits="objectBoundingBox">
      <stop offset="0" stop-color="#ffd400" stop-opacity="0.702"/>
      <stop offset="1" stop-color="#f59700" stop-opacity="0.702"/>
    </radialGradient>
    <radialGradient id="in-radial-gradient-2" cx="0.5" cy="0.459" r="0.578" gradientTransform="matrix(0.932, 0.059, -0.051, 0.932, 0.058, 0.002)" gradientUnits="objectBoundingBox">
      <stop offset="0" stop-color="#fff"/>
      <stop offset="0.7" stop-color="#fff" stop-opacity="0"/>
      <stop offset="1" stop-color="#fff" stop-opacity="0.898"/>
    </radialGradient>
  </defs>
  <g id="in_" data-name="in " transform="translate(-867 -401)">
    <g id="Path_174" data-name="Path 174" class="in-glass-1" transform="translate(867 401)">
      <path class="in-glass-3" d="M 209.5 416.5 C 195.4536590576172 416.5 181.4169464111328 415.0850524902344 167.7796173095703 412.29443359375 C 154.4902191162109 409.5750427246094 141.4182739257812 405.5172729492188 128.927001953125 400.2339477539062 C 116.6619415283203 395.0462646484375 104.8321075439453 388.6252136230469 93.76605224609375 381.1491088867188 C 82.80449676513672 373.74365234375 72.49666595458984 365.2388916015625 63.12888717651367 355.8711242675781 C 53.76111221313477 346.5033264160156 45.25633239746094 336.1954956054688 37.85088729858398 325.2339477539062 C 30.37477684020996 314.1678771972656 23.95372200012207 302.3380432128906 18.76605606079102 290.072998046875 C 13.48272228240967 277.5817260742188 9.424944877624512 264.509765625 6.705555438995361 251.2203826904297 C 3.914944410324097 237.5830535888672 2.5 223.5463409423828 2.5 209.5 C 2.5 195.4536590576172 3.914944410324097 181.4169464111328 6.705555438995361 167.7796173095703 C 9.424944877624512 154.4902191162109 13.48272228240967 141.4182739257812 18.76605606079102 128.927001953125 C 23.95372200012207 116.6619415283203 30.37477684020996 104.8321075439453 37.85088729858398 93.76605224609375 C 45.25633239746094 82.80449676513672 53.76111221313477 72.49666595458984 63.12888717651367 63.12888717651367 C 72.49666595458984 53.76111221313477 82.80449676513672 45.25633239746094 93.76605224609375 37.85088729858398 C 104.8321075439453 30.37477684020996 116.6619415283203 23.95372200012207 128.927001953125 18.76605606079102 C 141.4182739257812 13.48272228240967 154.4902191162109 9.424944877624512 167.7796173095703 6.705555438995361 C 181.4169464111328 3.914944410324097 195.4536590576172 2.5 209.5 2.5 C 223.5463409423828 2.5 237.5830535888672 3.914944410324097 251.2203826904297 6.705555438995361 C 264.509765625 9.424944877624512 277.5817260742188 13.48272228240967 290.072998046875 18.76605606079102 C 302.3380432128906 23.95372200012207 314.1678771972656 30.37477684020996 325.2339477539062 37.85088729858398 C 336.1954956054688 45.25633239746094 346.5033264160156 53.76111221313477 355.8711242675781 63.12888717651367 C 365.2388916015625 72.49666595458984 373.74365234375 82.80449676513672 381.1491088867188 93.76605224609375 C 388.6252136230469 104.8321075439453 395.0462646484375 116.6619415283203 400.2339477539062 128.927001953125 C 405.5172729492188 141.4182739257812 409.5750427246094 154.4902191162109 412.29443359375 167.7796173095703 C 415.0850524902344 181.4169464111328 416.5 195.4536590576172 416.5 209.5 C 416.5 223.5463409423828 415.0850524902344 237.5830535888672 412.29443359375 251.2203826904297 C 409.5750427246094 264.509765625 405.5172729492188 277.5817260742188 400.2339477539062 290.072998046875 C 395.0462646484375 302.3380432128906 388.6252136230469 314.1678771972656 381.1491088867188 325.2339477539062 C 373.74365234375 336.1954956054688 365.2388916015625 346.5033264160156 355.8711242675781 355.8711242675781 C 346.5033264160156 365.2388916015625 336.1954956054688 373.74365234375 325.2339477539062 381.1491088867188 C 314.1678771972656 388.6252136230469 302.3380432128906 395.0462646484375 290.072998046875 400.2339477539062 C 277.5817260742188 405.5172729492188 264.509765625 409.5750427246094 251.2203826904297 412.29443359375 C 237.5830535888672 415.0850524902344 223.5463409423828 416.5 209.5 416.5 Z"/>
      <path class="in-glass-4" d="M 209.5 414 C 223.3783264160156 414 237.2464447021484 412.6021118164062 250.7191619873047 409.84521484375 C 263.8469543457031 407.1588745117188 276.7598266601562 403.1505126953125 289.09912109375 397.9314575195312 C 301.2155151367188 392.8066101074219 312.902099609375 386.4632873535156 323.8343811035156 379.0775451660156 C 334.6641235351562 371.7611694335938 344.8480529785156 363.3586120605469 354.1033325195312 354.1033325195312 C 363.3586120605469 344.8480529785156 371.7611694335938 334.6641235351562 379.0775451660156 323.8343811035156 C 386.4632873535156 312.902099609375 392.8066101074219 301.2155151367188 397.9314575195312 289.09912109375 C 403.1505126953125 276.7598266601562 407.1588745117188 263.8469543457031 409.84521484375 250.7191619873047 C 412.6021118164062 237.2464447021484 414 223.3783264160156 414 209.5 C 414 195.6216735839844 412.6021118164062 181.7535552978516 409.84521484375 168.2808380126953 C 407.1588745117188 155.1530609130859 403.1505126953125 142.2401733398438 397.9314575195312 129.9008941650391 C 392.8066101074219 117.7845001220703 386.4632873535156 106.0978851318359 379.0775451660156 95.16561126708984 C 371.7611694335938 84.33589172363281 363.3586120605469 74.15194702148438 354.1033325195312 64.89666748046875 C 344.8480529785156 55.64138793945312 334.6641235351562 47.23883438110352 323.8343811035156 39.92244338989258 C 312.902099609375 32.53672409057617 301.2155151367188 26.19338798522949 289.09912109375 21.06855583190918 C 276.7598266601562 15.84949970245361 263.8469543457031 11.8411111831665 250.7191619873047 9.154777526855469 C 237.2464447021484 6.397888660430908 223.3783264160156 5 209.5 5 C 195.6216735839844 5 181.7535552978516 6.397888660430908 168.2808380126953 9.154777526855469 C 155.1530609130859 11.8411111831665 142.2401733398438 15.84949970245361 129.9008941650391 21.06855583190918 C 117.7845001220703 26.19338798522949 106.0978851318359 32.53672409057617 95.16561126708984 39.92244338989258 C 84.33589172363281 47.23883438110352 74.15194702148438 55.64138793945312 64.89666748046875 64.89666748046875 C 55.64138793945312 74.15194702148438 47.23883438110352 84.33589172363281 39.92244338989258 95.16561126708984 C 32.53672409057617 106.0978851318359 26.19338798522949 117.7845001220703 21.06855583190918 129.9008941650391 C 15.84949970245361 142.2401733398438 11.8411111831665 155.1530609130859 9.154777526855469 168.2808380126953 C 6.397888660430908 181.7535552978516 5 195.6216735839844 5 209.5 C 5 223.3783264160156 6.397888660430908 237.2464447021484 9.154777526855469 250.7191619873047 C 11.8411111831665 263.8469543457031 15.84949970245361 276.7598266601562 21.06855583190918 289.09912109375 C 26.19338798522949 301.2155151367188 32.53672409057617 312.902099609375 39.92244338989258 323.8343811035156 C 47.23883438110352 334.6641235351562 55.64138793945312 344.8480529785156 64.89666748046875 354.1033325195312 C 74.15194702148438 363.3586120605469 84.33589172363281 371.7611694335938 95.16561126708984 379.0775451660156 C 106.0978851318359 386.4632873535156 117.7845001220703 392.8066101074219 129.9008941650391 397.9314575195312 C 142.2401733398438 403.1505126953125 155.1530609130859 407.1588745117188 168.2808380126953 409.84521484375 C 181.7535552978516 412.6021118164062 195.6216735839844 414 209.5 414 M 209.5 419 C 93.79633331298828 419 0 325.2036743164062 0 209.5 C 0 93.79633331298828 93.79633331298828 0 209.5 0 C 325.2036743164062 0 419 93.79633331298828 419 209.5 C 419 325.2036743164062 325.2036743164062 419 209.5 419 Z"/>
    </g>
    <path id="Intersection_4" data-name="Intersection 4" class="in-glass-2" d="M-8576.577-5011.312a204.194,204.194,0,0,1,57.729-142.56l43.789-33.354s-50.249,51.715-44.552,55.136-25.055,32.434-19.107,43.258-4.311,29.864-4.311,29.864a53.909,53.909,0,0,0-4.413,26.408c1.345,14.864-10.2,25.66,0,41.606s.5,38.831,13.832,55.352,28.246,20.17,35.942,43.121,21.833,26.841,40.575,33.935,50.628,27.125,58.721,34.961,25.932-1.138,40.223-20.046,45.038,1.138,68.369-25.8,50.176-36.454,52.992-54.615,42.048-43.123,43.855-74.525,10.519-21.37,10.519-21.37h13.875v28.991l-8.018,39.083-12.678,33.881a204.89,204.89,0,0,1-182.452,111.568C-8484.844-4806.422-8576.577-4898.156-8576.577-5011.312Z" transform="translate(9448.076 5621)"/>
  </g>
</svg>
