<?xml version="1.0" encoding="iso-8859-1"?>
<!-- Generator: Adobe Illustrator 19.0.0, SVG Export Plug-In . SVG Version: 6.00 Build 0)  -->
<svg version="1.1" id="Layer_1" xmlns="http://www.w3.org/2000/svg" xmlns:xlink="http://www.w3.org/1999/xlink" x="0px" y="0px"
	 viewBox="0 0 512 512" style="enable-background:new 0 0 512 512;" xml:space="preserve">
<g>
	<path style="fill:#3EC579;" d="M453.515,308.857c24.452,21.163,20.031,66.33,20.031,66.33s-44.065,10.854-68.517-10.309
		c-24.452-21.163-20.031-66.33-20.031-66.33S429.063,287.694,453.515,308.857z"/>
	<path style="fill:#3EC579;" d="M256.589,447.836c-7.44,31.471-49.523,48.46-49.523,48.46s-30.018-34.036-22.578-65.506
		c7.44-31.471,49.523-48.46,49.523-48.46S264.031,416.365,256.589,447.836z"/>
</g>
<path style="fill:#33A854;" d="M140.7,35.527c21.383,24.26,10.927,68.421,10.927,68.421s-45.125,4.829-66.507-19.431
	S74.193,16.096,74.193,16.096S119.318,11.267,140.7,35.527z"/>
<circle style="fill:#64B26F;" cx="220.534" cy="77.195" r="32.099"/>
<g>
	<path style="fill:#54CE8E;" d="M348.983,81.718c23.286-34.958,82.208-36.623,82.208-36.623s21.168,55.014-2.117,89.972
		s-82.208,36.623-82.208,36.623S325.696,116.676,348.983,81.718z"/>
	<path style="fill:#54CE8E;" d="M465.642,174.345C503.175,193.203,512,251.484,512,251.484s-52.028,27.708-89.561,8.85
		s-46.358-77.138-46.358-77.138S428.109,155.488,465.642,174.345z"/>
</g>
<path style="fill:#33A854;" d="M412.322,109.681c41.185-8.253,84.026,32.234,84.026,32.234s-23.933,53.868-65.117,62.122
	s-84.026-32.234-84.026-32.234S371.136,117.934,412.322,109.681z"/>
<path style="fill:#3EC579;" d="M137.887,324.434l-16.263-21.818c-1.51-2.025-1.088-4.919,0.937-6.43L283.853,175.96
	c2.025-1.51,4.919-1.088,6.43,0.937l16.263,21.818c1.51,2.025,1.088,4.919-0.938,6.43L144.317,325.372
	C142.29,326.882,139.397,326.46,137.887,324.434z"/>
<path style="fill:#6CD379;" d="M299.47,399.869l-26.773-4.868c-2.486-0.453-4.15-2.856-3.699-5.342l38.1-209.53
	c0.453-2.486,2.856-4.15,5.342-3.699l26.773,4.868c2.486,0.453,4.15,2.856,3.699,5.342l-38.1,209.53
	C304.361,398.657,301.957,400.321,299.47,399.869z"/>
<path style="fill:#54CE8E;" d="M41.718,215.941c-3.896,0.622,43.236,1.409,69.792,27.354s65.689,34.222,111.922,9.966
	c46.233-24.256,69.909,9.037,109.737,11.935s99.046-43.677,99.046-43.677s-9.338-59.063-66.757-89.159s-94.582,25.08-178.754,1.977
	S92.946,207.769,41.718,215.941z"/>
<circle style="fill:#3EC579;" cx="220.534" cy="334.517" r="34.036"/>
<path style="fill:#7CD8A4;" d="M348.983,81.718c-9.205-7.037-24.148,3.135-58.341-11.331s-73.647-7.891-107.84,31.563
	s-68.386,17.096-106.525,28.933C38.139,142.718,0,207.69,0,207.69s30.247,51.582,94.688,58.649
	c64.441,7.067,78.907-57.865,165.705-67.072C347.192,190.062,390.194,113.226,348.983,81.718z"/>
<g>
	<circle style="fill:#BBF9C2;" cx="305.953" cy="150.886" r="15.687"/>
	<circle style="fill:#BBF9C2;" cx="258.891" cy="160.585" r="15.687"/>
</g>
<circle style="fill:#64B26F;" cx="312.057" cy="108.569" r="15.688"/>
<path style="fill:#BBF9C2;" d="M100.354,193.822c-3.132,0-6.109-1.838-7.41-4.904c-1.737-4.091,0.17-8.815,4.261-10.553
	c103.206-43.827,163.295-66.94,163.89-67.169c4.147-1.591,8.802,0.48,10.396,4.629c1.593,4.149-0.48,8.803-4.629,10.396
	c-0.592,0.228-60.452,23.254-163.366,66.957C102.471,193.616,101.403,193.822,100.354,193.822z"/>
<g>
</g>
<g>
</g>
<g>
</g>
<g>
</g>
<g>
</g>
<g>
</g>
<g>
</g>
<g>
</g>
<g>
</g>
<g>
</g>
<g>
</g>
<g>
</g>
<g>
</g>
<g>
</g>
<g>
</g>
</svg>
