<?xml version="1.0" encoding="iso-8859-1"?>
<!-- Generator: Adobe Illustrator 19.0.0, SVG Export Plug-In . SVG Version: 6.00 Build 0)  -->
<svg version="1.1" id="Layer_1" xmlns="http://www.w3.org/2000/svg" xmlns:xlink="http://www.w3.org/1999/xlink" x="0px" y="0px"
	 viewBox="0 0 512.009 512.009" style="enable-background:new 0 0 512.009 512.009;" xml:space="preserve">
<circle style="fill:#4EB79B;" cx="256.005" cy="256.005" r="256.005"/>
<circle style="fill:#8ED7E0;" cx="256.005" cy="256.005" r="210.375"/>
<path style="fill:#7CC3D1;" d="M116.08,255.998c0,115.273,61.986,208.903,138.817,210.362
	c-115.351-0.977-208.551-94.789-208.551-210.362s93.2-209.385,208.551-210.362C178.066,47.095,116.08,140.725,116.08,255.998z"/>
<g>
	<circle style="fill:#E88158;" cx="291.933" cy="179.798" r="50.784"/>
	<circle style="fill:#E88158;" cx="196.714" cy="323.851" r="33.694"/>
</g>
<g>
	<circle style="fill:#F7A872;" cx="147.269" cy="209.789" r="25.112"/>
	<circle style="fill:#F7A872;" cx="351.51" cy="311.636" r="40.041"/>
</g>
<circle style="fill:#E88158;" cx="381.539" cy="185.398" r="9.767"/>
<circle style="fill:#F7A872;" cx="279.966" cy="384.638" r="9.767"/>
<circle style="fill:#E88158;" cx="203.785" cy="239.193" r="9.767"/>
<path style="fill:#40A084;" d="M255.999,476.137c-121.383,0-220.136-98.753-220.136-220.136S134.616,35.863,255.999,35.863
	s220.136,98.752,220.136,220.136S377.384,476.137,255.999,476.137z M255.999,55.397c-110.612,0-200.603,89.989-200.603,200.603
	s89.989,200.603,200.603,200.603s200.603-89.99,200.603-200.603S366.613,55.397,255.999,55.397z"/>
<g>
</g>
<g>
</g>
<g>
</g>
<g>
</g>
<g>
</g>
<g>
</g>
<g>
</g>
<g>
</g>
<g>
</g>
<g>
</g>
<g>
</g>
<g>
</g>
<g>
</g>
<g>
</g>
<g>
</g>
</svg>
