<svg height="512pt" viewBox="0 0 512 512" width="512pt" xmlns="http://www.w3.org/2000/svg"><path d="m0 512 112.847656-34.152344-17.847656-60.847656-61.410156-18.410156zm0 0" fill="#2e3192"/><path d="m112.847656 477.847656-17.847656-60.847656-95 95zm0 0" fill="#002859"/><path d="m60.6875 307.085938-27.097656 91.503906 79.257812 79.257812 91.042969-27.558594-35.890625-106.289062zm0 0" fill="#f3eee9"/><path d="m112.847656 477.847656 91.042969-27.558594-35.890625-106.289062-94.5 94.5zm0 0" fill="#e9dfda"/><path d="m60.6875 307.085938 143.203125 143.203124.027344-.007812 203.605469-202.757812-48.523438-94.523438-94.691406-48.691406zm0 0" fill="#ffe477"/><path d="m203.890625 450.289062.027344-.007812 203.605469-202.757812-48.523438-94.523438-226.199219 226.199219zm0 0" fill="#ffd011"/><path d="m359 153-53.597656-89.613281 63.382812-63.386719h6.214844c75.542969 0 137 61.457031 137 137v6.214844l-63.398438 63.398437zm0 0" fill="#f3eee9"/><path d="m359 153 89.601562 53.613281 63.398438-63.398437v-6.214844c0-37.769531-15.363281-72.019531-40.171875-96.828125zm0 0" fill="#e9dfda"/><path d="m111.550781 357.949219 203.199219-203.199219 44.25-1.75-1.75 44.25-203.199219 203.199219zm0 0" fill="#2e3192"/><path d="m154.050781 400.453125 203.199219-203.203125 1.75-44.25-226.199219 226.199219zm0 0" fill="#002859"/><path d="m305.394531 63.394531-41.085937 40.914063 143.214844 143.214844 41.085937-40.914063zm0 0" fill="#98e1f7"/><path d="m336 176 71.523438 71.523438 41.085937-40.914063-71.609375-71.609375zm0 0" fill="#26befc"/></svg>