<svg height="512pt" viewBox="0 0 512 512" width="512pt" xmlns="http://www.w3.org/2000/svg"><path d="m256 0c-141.164062 0-256 114.835938-256 256s114.835938 256 256 256 256-114.835938 256-256-114.835938-256-256-256zm0 0" fill="#ffc107"/><path d="m277.332031 384c0 11.78125-9.550781 21.332031-21.332031 21.332031s-21.332031-9.550781-21.332031-21.332031 9.550781-21.332031 21.332031-21.332031 21.332031 9.550781 21.332031 21.332031zm0 0"/><path d="m256 512c-141.164062 0-256-114.835938-256-256s114.835938-256 256-256 256 114.835938 256 256-114.835938 256-256 256zm0-480c-123.519531 0-224 100.480469-224 224s100.480469 224 224 224 224-100.480469 224-224-100.480469-224-224-224zm0 0"/><path d="m256 314.667969c-8.832031 0-16-7.167969-16-16v-21.546875c0-20.308594 12.886719-38.527344 32.042969-45.269532 25.492187-8.980468 42.625-36.117187 42.625-55.851562 0-32.363281-26.304688-58.667969-58.667969-58.667969s-58.667969 26.304688-58.667969 58.667969c0 8.832031-7.167969 16-16 16s-16-7.167969-16-16c0-50.003906 40.664063-90.667969 90.667969-90.667969s90.667969 40.664063 90.667969 90.667969c0 35.605469-28.097657 73.386719-63.980469 86.015625-6.398438 2.261719-10.6875 8.339844-10.6875 15.105469v21.546875c0 8.832031-7.167969 16-16 16zm0 0"/></svg>