<?xml version="1.0" encoding="iso-8859-1"?>
<!-- Generator: Adobe Illustrator 19.0.0, SVG Export Plug-In . SVG Version: 6.00 Build 0)  -->
<svg version="1.1" id="Layer_1" xmlns="http://www.w3.org/2000/svg" xmlns:xlink="http://www.w3.org/1999/xlink" x="0px" y="0px"
	 viewBox="0 0 512 512" style="enable-background:new 0 0 512 512;" xml:space="preserve">
<g>
	<circle style="fill:#FFAB5F;" cx="148.616" cy="288.34" r="30.062"/>
	<circle style="fill:#FFAB5F;" cx="356.07" cy="288.34" r="30.062"/>
</g>
<g>
	<path style="fill:#B0CE6F;" d="M229.5,186.951c5.441-13.38,17.749-22.851,32.12-24.712c3.835-0.498,7.649,1.052,10.049,4.086
		c8.99,11.363,11.198,26.734,5.755,40.116c-5.441,13.381-17.749,22.852-32.12,24.714c-3.835,0.497-7.647-1.054-10.045-4.085
		C226.263,215.705,224.057,200.331,229.5,186.951z"/>
	<path style="fill:#B0CE6F;" d="M186.236,236.314c-13.38-5.445-22.849-17.753-24.712-32.123c-0.498-3.836,1.053-7.648,4.086-10.048
		c11.363-8.991,26.733-11.198,40.117-5.757c13.38,5.444,22.851,17.75,24.712,32.122c0.498,3.835-1.053,7.647-4.083,10.045
		C214.99,239.547,199.618,241.753,186.236,236.314z"/>
</g>
<path style="fill:#EF645E;" d="M309.769,264.186c0-16.399-13.294-29.693-29.692-29.693c-1.508,0-2.987,0.113-4.435,0.33
	c-4.394-10.905-15.065-18.604-27.542-18.604c-12.386,0-22.998,7.588-27.451,18.365c-0.741-0.054-1.488-0.092-2.242-0.092
	c-16.398,0-29.692,13.294-29.692,29.693c0,0.14,0.008,0.28,0.01,0.42c-11.698,2.144-20.568,12.385-20.568,24.704
	c0,13.875,11.249,25.125,25.125,25.125c12.32,0,104.029,0,116.487,0c13.875,0,25.125-11.249,25.125-25.125
	C334.894,275.435,323.645,264.186,309.769,264.186z"/>
<path style="fill:#C14616;" d="M282.361,264.484h-3.984c-4.329,0-7.837-3.508-7.837-7.837s3.508-7.837,7.837-7.837h3.984
	c4.329,0,7.837,3.508,7.837,7.837S286.69,264.484,282.361,264.484z"/>
<path style="opacity:0.1;enable-background:new    ;" d="M200.62,300.021c0-12.319,8.869-22.56,20.568-24.705
	c-0.002-0.141-0.01-0.28-0.01-0.42c0-16.399,13.294-29.693,29.692-29.693c0.755,0,1.503,0.038,2.242,0.092
	c3.371-8.159,10.273-14.481,18.801-17.077c-5.409-7.274-14.051-11.999-23.813-11.999c-12.386,0-22.998,7.588-27.451,18.365
	c-0.741-0.054-1.488-0.092-2.242-0.092c-16.398,0-29.692,13.294-29.692,29.693c0,0.14,0.008,0.28,0.01,0.42
	c-11.698,2.144-20.568,12.385-20.568,24.705c0,13.875,11.249,25.125,25.125,25.125c2.034,0,6.242,0,11.891,0
	C202.307,310.355,200.62,305.387,200.62,300.021z"/>
<path style="fill:#FFAB5F;" d="M248.658,247.354h-3.984c-4.329,0-7.837-3.508-7.837-7.837c0-4.329,3.508-7.837,7.837-7.837h3.984
	c4.329,0,7.837,3.508,7.837,7.837C256.494,243.845,252.985,247.354,248.658,247.354z"/>
<path style="fill:#C14616;" d="M236.68,271.336h-3.984c-4.329,0-7.837-3.508-7.837-7.837s3.508-7.837,7.837-7.837h3.984
	c4.329,0,7.837,3.508,7.837,7.837C244.517,267.828,241.008,271.336,236.68,271.336z"/>
<g>
	<path style="fill:#FFAB5F;" d="M271.498,288.467h-3.984c-4.329,0-7.837-3.508-7.837-7.837s3.508-7.837,7.837-7.837h3.984
		c4.329,0,7.837,3.508,7.837,7.837C279.335,284.959,275.827,288.467,271.498,288.467z"/>
	<path style="fill:#FFAB5F;" d="M205.845,288.467h-3.984c-4.329,0-7.837-3.508-7.837-7.837s3.508-7.837,7.837-7.837h3.984
		c4.329,0,7.837,3.508,7.837,7.837C213.682,284.959,210.174,288.467,205.845,288.467z"/>
</g>
<path style="fill:#FFE783;" d="M461.845,362.767c0,34.625-28.069,62.694-62.694,62.694H167.184
	c-34.625,0-62.694-28.069-62.694-62.694l0,0c0-34.625,28.069-62.694,62.694-62.694h231.967
	C433.776,300.073,461.845,328.142,461.845,362.767L461.845,362.767z"/>
<path style="fill:#FFF4BD;" d="M167.184,404.563c-23.046,0-41.796-18.75-41.796-41.796s18.75-41.796,41.796-41.796h231.967
	c23.046,0,41.796,18.75,41.796,41.796s-18.75,41.796-41.796,41.796H167.184z"/>
<g>
	<path style="fill:#FFE783;" d="M167.184,383.665c-11.523,0-20.898-9.375-20.898-20.898c0-11.523,9.375-20.898,20.898-20.898
		h231.967c11.523,0,20.898,9.375,20.898,20.898c0,11.523-9.375,20.898-20.898,20.898H167.184z"/>
	<path style="fill:#FFE783;" d="M376.163,374.261c0,28.854-23.391,52.245-52.245,52.245h-77.322
		c-28.854,0-52.245-23.391-52.245-52.245l0,0c0-28.854,23.391-52.245,52.245-52.245h77.322
		C352.772,322.016,376.163,345.407,376.163,374.261L376.163,374.261z"/>
</g>
<path style="fill:#FFF4BD;" d="M246.596,405.608c-17.285,0-31.347-14.062-31.347-31.347c0-17.285,14.062-31.347,31.347-31.347
	h77.322c17.285,0,31.347,14.062,31.347,31.347c0,17.285-14.062,31.347-31.347,31.347H246.596z"/>
<g>
	<path style="fill:#FFE783;" d="M246.596,384.71c-5.762,0-10.449-4.687-10.449-10.449c0-5.762,4.687-10.449,10.449-10.449h77.322
		c5.762,0,10.449,4.687,10.449,10.449c0,5.762-4.687,10.449-10.449,10.449H246.596z"/>
	<path style="fill:#FFE783;" d="M231.967,352.318c0,28.854-23.391,52.245-52.245,52.245H102.4
		c-28.854,0-52.245-23.391-52.245-52.245l0,0c0-28.854,23.391-52.245,52.245-52.245h77.322
		C208.576,300.073,231.967,323.464,231.967,352.318L231.967,352.318z"/>
</g>
<path style="fill:#FFF4BD;" d="M102.4,383.665c-17.285,0-31.347-14.062-31.347-31.347s14.062-31.347,31.347-31.347h77.322
	c17.285,0,31.347,14.062,31.347,31.347s-14.062,31.347-31.347,31.347H102.4z"/>
<path style="fill:#FFE783;" d="M102.4,362.767c-5.762,0-10.449-4.687-10.449-10.449s4.687-10.449,10.449-10.449h77.322
	c5.762,0,10.449,4.687,10.449,10.449s-4.687,10.449-10.449,10.449H102.4z"/>
<path style="fill:#F2D8A0;" d="M102.4,215.959H75.365c-23.404,0-42.445-19.041-42.445-42.445s19.041-42.445,42.445-42.445h25.765
	c4.328,0,7.837,3.508,7.837,7.837c0,4.329-3.509,7.837-7.837,7.837H75.365c-14.762,0-26.771,12.009-26.771,26.771
	c0,14.762,12.009,26.771,26.771,26.771H102.4c4.329,0,7.837,3.508,7.837,7.837C110.237,212.45,106.729,215.959,102.4,215.959z"/>
<path style="fill:#FCE9C3;" d="M168.21,146.742h-30.229c-4.329,0-7.837-3.508-7.837-7.837c0-4.329,3.509-7.837,7.837-7.837h30.229
	c17.007,0,30.843-13.837,30.843-30.844c0-17.007-13.835-30.844-30.843-30.844h-34.131c-4.329,0-7.837-3.508-7.837-7.837
	s3.508-7.837,7.837-7.837h34.131c25.649,0,46.517,20.868,46.517,46.518C214.727,125.875,193.859,146.742,168.21,146.742z"/>
<path style="fill:#F2D8A0;" d="M422.729,183.567h-62.227c-12.97,0-23.523-10.552-23.523-23.522
	c0-12.969,10.552-23.521,23.523-23.521h21.635c4.329,0,7.837-3.508,7.837-7.837c0-4.329-3.508-7.837-7.837-7.837h-21.635
	c-21.613,0-39.196,17.582-39.196,39.194c0,21.613,17.584,39.195,39.196,39.195h62.227c10.166,0,18.437,8.271,18.437,18.438v17.06
	c0,4.329,3.508,7.837,7.837,7.837c4.329,0,7.837-3.508,7.837-7.837v-17.06C456.839,198.869,441.537,183.567,422.729,183.567z"/>
<path style="fill:#B3B3B3;" d="M77.082,409.636c8.253,23.758,30.816,40.82,57.386,40.82h243.064
	c26.571,0,49.132-17.062,57.387-40.82H77.082z"/>
<path style="opacity:0.1;enable-background:new    ;" d="M119.4,409.636H77.082c8.253,23.758,30.816,40.82,57.386,40.82h42.318
	C150.217,450.457,127.653,433.395,119.4,409.636z"/>
<path style="fill:#CCCCCC;" d="M504.163,403.865c0,9.16-7.424,16.584-16.585,16.584H24.42c-9.16,0-16.584-7.424-16.584-16.584l0,0
	c0-9.16,7.425-16.584,16.584-16.584h463.158C496.739,387.281,504.163,394.705,504.163,403.865L504.163,403.865z"/>
<path style="opacity:0.1;enable-background:new    ;" d="M50.155,403.865c0-9.16,7.424-16.584,16.584-16.584H24.42
	c-9.16,0-16.584,7.424-16.584,16.584s7.425,16.584,16.584,16.584h42.318C57.579,420.449,50.155,413.024,50.155,403.865z"/>
<path d="M179.722,334.032H102.4c-10.082,0-18.286,8.203-18.286,18.286s8.203,18.286,18.286,18.286h77.322
	c10.082,0,18.286-8.203,18.286-18.286C198.008,342.235,189.805,334.032,179.722,334.032z M179.722,354.93H102.4
	c-1.441,0-2.612-1.171-2.612-2.612s1.171-2.612,2.612-2.612h77.322c1.441,0,2.612,1.171,2.612,2.612
	C182.335,353.759,181.163,354.93,179.722,354.93z"/>
<path d="M487.579,379.445h-19.91c1.304-5.35,2.012-10.931,2.012-16.678c0-38.891-31.639-70.531-70.531-70.531h-5.392
	c0.133-1.283,0.208-2.581,0.208-3.897c0-20.897-17.002-37.898-37.898-37.898c-10.806,0-20.557,4.558-27.465,11.84
	c-3.464-2.42-7.408-4.197-11.662-5.145c-3.294-17.258-18.446-30.363-36.623-30.478c-0.975-1.637-2.074-3.174-3.265-4.625
	c3.14-3.748,5.738-7.989,7.63-12.641c6.503-15.99,3.871-34.355-6.868-47.931c-3.596-4.545-8.982-7.152-14.776-7.152
	c-0.809,0-1.626,0.053-2.425,0.157c-17.167,2.223-31.87,13.539-38.374,29.531c-0.576,1.415-1.06,2.85-1.493,4.297
	c-3.608-2.93-7.652-5.372-12.071-7.169c-5.746-2.335-11.813-3.519-18.032-3.519c-10.813,0-21.43,3.69-29.899,10.392
	c-5.161,4.084-7.841,10.676-6.993,17.201c2.226,17.163,13.541,31.867,29.533,38.376c1.014,0.413,2.039,0.778,3.07,1.118
	c-2.547,4.174-4.31,8.878-5.065,13.911c-2.074,0.807-4.027,1.832-5.863,3.015c-6.863-6.892-16.34-11.176-26.812-11.176
	c-20.897,0-37.898,17.002-37.898,37.898c0,1.318,0.075,2.615,0.208,3.897H102.4c-33.13,0-60.082,26.952-60.082,60.082
	c0,9.758,2.347,18.974,6.496,27.127H24.42c-13.466,0-24.42,10.955-24.42,24.42c0,13.466,10.955,24.42,24.42,24.42h53.363
	c12.561,18.442,33.636,30.008,56.684,30.008h158.105c4.329,0,7.837-3.508,7.837-7.837c0-4.329-3.508-7.837-7.837-7.837H134.467
	c-13.742,0-26.567-5.345-36.163-14.335h46.937c4.329,0,7.837-3.508,7.837-7.837c0-4.329-3.508-7.837-7.837-7.837H24.42
	c-4.823,0-8.747-3.924-8.747-8.747s3.924-8.747,8.747-8.747h463.158c4.823,0,8.748,3.924,8.748,8.747s-3.925,8.747-8.748,8.747
	H177.633c-4.329,0-7.837,3.508-7.837,7.837c0,4.329,3.508,7.837,7.837,7.837h236.063c-9.597,8.99-22.421,14.335-36.164,14.335
	h-46.299c-4.329,0-7.837,3.508-7.837,7.837c0,4.329,3.508,7.837,7.837,7.837h46.299c23.046,0,44.123-11.565,56.684-30.008h53.363
	c13.467,0,24.421-10.955,24.421-24.42C512,390.399,501.045,379.445,487.579,379.445z M356.07,266.114
	c12.255,0,22.225,9.969,22.225,22.225c0,1.331-0.133,2.632-0.362,3.897h-35.334c0.086-0.964,0.133-1.939,0.133-2.926
	c0-5.474-1.345-10.639-3.717-15.187C343.095,269.237,349.221,266.114,356.07,266.114z M236.759,189.902
	c4.38-10.772,14.292-18.393,25.871-19.893c0.136-0.018,0.274-0.026,0.411-0.026c0.974,0,1.879,0.439,2.484,1.203
	c7.243,9.155,9.022,21.532,4.641,32.301c-1.321,3.248-3.161,6.191-5.383,8.779c-2.536-1.254-5.229-2.21-8.026-2.866l3.759-9.244
	c1.631-4.009-0.298-8.582-4.307-10.211c-4.013-1.634-8.582,0.299-10.211,4.307l-6.119,15.051c-1.299,0.289-2.582,0.631-3.831,1.052
	c-0.379-1.122-0.789-2.233-1.246-3.32C233.906,201.336,234.518,195.411,236.759,189.902z M169.295,203.181
	c-0.143-1.097,0.309-2.206,1.178-2.893c5.711-4.52,12.875-7.009,20.173-7.009c4.186,0,8.266,0.796,12.127,2.366
	c7.516,3.058,13.479,8.82,16.916,15.952c0.144,0.712,0.3,1.42,0.476,2.125l-20.722-8.426c-4.008-1.633-8.582,0.298-10.211,4.307
	c-1.631,4.009,0.298,8.581,4.307,10.211l18.273,7.431c-4.152,0.739-8.069,2.159-11.631,4.147c-3.789-0.131-7.483-0.911-10.992-2.337
	C178.421,224.672,170.797,214.758,169.295,203.181z M190.137,272.315c3.765-0.69,6.479-3.996,6.424-7.822l-0.009-0.306
	c0-12.051,9.804-21.856,21.855-21.856c0.476,0,1.008,0.022,1.673,0.071c3.354,0.227,6.521-1.698,7.813-4.823
	c3.394-8.214,11.326-13.521,20.208-13.521c8.963,0,16.921,5.377,20.274,13.695c1.356,3.367,4.845,5.356,8.432,4.821
	c1.076-0.162,2.177-0.243,3.271-0.243c12.051,0,21.855,9.805,21.855,21.856c0,4.329,3.508,7.837,7.837,7.837
	c9.533,0,17.288,7.755,17.288,17.288c0,0.998-0.088,1.975-0.251,2.926H179.722h-3.477c-0.163-0.951-0.251-1.928-0.251-2.926
	C175.994,280.965,181.942,273.817,190.137,272.315z M148.616,266.114c6.306,0,11.986,2.654,16.028,6.889
	c-2.756,4.838-4.324,10.413-4.324,16.308c0,0.985,0.047,1.961,0.133,2.926h-33.7c-0.229-1.266-0.362-2.566-0.362-3.897
	C126.392,276.083,136.361,266.114,148.616,266.114z M179.722,375.828H102.4c-12.963,0-23.51-10.547-23.51-23.51
	s10.547-23.51,23.51-23.51h77.322c12.963,0,23.51,10.547,23.51,23.51S192.685,375.828,179.722,375.828z M214.827,379.445h-6.869
	c6.774-7.044,10.949-16.604,10.949-27.127c0-21.606-17.577-39.184-39.184-39.184H102.4c-21.606,0-39.184,17.577-39.184,39.184
	c0,10.522,4.174,20.083,10.949,27.127h-6.869c-5.82-7.508-9.304-16.912-9.304-27.127c0-24.487,19.921-44.408,44.408-44.408h77.322
	c24.487,0,44.408,19.921,44.408,44.408C224.131,362.532,220.647,371.936,214.827,379.445z M323.918,376.873h-77.322
	c-1.441,0-2.612-1.171-2.612-2.612c0-1.441,1.171-2.612,2.612-2.612h77.322c1.441,0,2.612,1.171,2.612,2.612
	C326.531,375.702,325.359,376.873,323.918,376.873z M346.849,379.445h-5.408c0.489-1.645,0.763-3.381,0.763-5.184
	c0-10.082-8.203-18.286-18.286-18.286h-77.322c-2.485,0-4.849,0.509-7.008,1.412c0.141-1.672,0.216-3.361,0.216-5.069
	c0-0.182-0.013-0.361-0.015-0.541c2.159-0.655,4.437-1.026,6.806-1.026h77.322c12.963,0,23.51,10.547,23.51,23.51
	C347.429,376.042,347.227,377.776,346.849,379.445z M368.021,379.445h-5.266c0.227-1.697,0.347-3.425,0.347-5.184
	c0-21.606-17.577-39.184-39.184-39.184h-77.322c-3.106,0-6.124,0.375-9.023,1.065c-0.472-1.689-1.011-3.35-1.625-4.976
	c3.414-0.847,6.976-1.313,10.646-1.313h77.322c24.487,0,44.408,19.921,44.408,44.408
	C368.327,376.014,368.221,377.744,368.021,379.445z M399.151,375.828h-15.195c0.014-0.522,0.044-1.042,0.044-1.567
	c0-1.229-0.049-2.446-0.121-3.657h14.227c4.329,0,7.837-3.508,7.837-7.837s-3.508-7.837-7.837-7.837h-17.314
	c-0.607-1.781-1.295-3.523-2.061-5.224h20.419c7.202,0,13.061,5.859,13.061,13.061C412.212,369.969,406.353,375.828,399.151,375.828
	z M428.716,379.445h-6.197c3.371-4.707,5.367-10.46,5.367-16.678c0-15.844-12.891-28.735-28.735-28.735h-30.649
	c-1.674-1.853-3.469-3.592-5.359-5.224h36.008c18.726,0,33.959,15.234,33.959,33.959C433.11,368.827,431.51,374.516,428.716,379.445
	z M451.387,379.445h-5.516c1.872-5.216,2.913-10.823,2.913-16.678c0-27.367-22.266-49.633-49.633-49.633h-173.94
	c-1.586-1.838-3.268-3.59-5.064-5.224h179.004c30.248,0,54.857,24.609,54.857,54.857
	C454.008,368.584,453.075,374.182,451.387,379.445z"/>
<g>
</g>
<g>
</g>
<g>
</g>
<g>
</g>
<g>
</g>
<g>
</g>
<g>
</g>
<g>
</g>
<g>
</g>
<g>
</g>
<g>
</g>
<g>
</g>
<g>
</g>
<g>
</g>
<g>
</g>
</svg>
