<?xml version="1.0" encoding="iso-8859-1"?>
<!-- Generator: Adobe Illustrator 19.0.0, SVG Export Plug-In . SVG Version: 6.00 Build 0)  -->
<svg version="1.1" id="Layer_1" xmlns="http://www.w3.org/2000/svg" xmlns:xlink="http://www.w3.org/1999/xlink" x="0px" y="0px"
	 viewBox="0 0 495 495" style="enable-background:new 0 0 495 495;" xml:space="preserve">
<g>
	<path style="fill:#FF0C38;" d="M395.754,227.099c-3.19-5.921-6.722-11.631-10.574-17.101
		c-30.121,15.235-51.405,43.708-57.617,76.641h20.429c3.219-13.8,9.735-26.734,19.126-37.615
		C375.12,239.753,384.903,232.327,395.754,227.099z"/>
	<path style="fill:#D80027;" d="M357.647,179.53c-5.355-4.646-11.005-8.959-16.918-12.91c-13.25,8.843-25.173,19.509-35.541,31.823
		c-12.09,14.353-21.629,30.483-28.355,47.947c-5.003,12.99-8.333,26.465-9.969,40.249h20.176
		C293.127,242.021,319.312,202.588,357.647,179.53z"/>
	<path style="fill:#D80027;" d="M390.109,286.639h24.49c-0.896-7.531-2.299-14.908-4.159-22.103
		C401.527,269.576,394.39,277.372,390.109,286.639z"/>
	<path style="fill:#D80027;" d="M245.329,218.388c3.169-6.756,6.695-13.326,10.567-19.692c-2.785-0.215-5.583-0.335-8.396-0.335
		c-52.873,0-97.01,38.095-106.421,88.278h20.427C170.435,248.242,204.488,219.38,245.329,218.388z"/>
	<path style="fill:#FF0C38;" d="M247.5,158.361c12.2,0,24.249,1.49,35.972,4.424c5.37-5.622,11.027-10.924,16.958-15.89
		c-16.651-5.531-34.445-8.535-52.929-8.535c-86.021,0-157.176,64.883-167.098,148.278h20.172
		C110.372,214.303,172.521,158.361,247.5,158.361z"/>
	<path style="fill:#FF0C38;" d="M203.576,286.639h23.062c0.813-8.508,2.151-16.927,4-25.233
		C218.626,265.898,208.876,275.045,203.576,286.639z"/>
	<path style="fill:#A30020;" d="M80.402,286.639c9.923-83.395,81.077-148.278,167.098-148.278c18.484,0,36.278,3.003,52.929,8.535
		c-5.93,4.966-11.587,10.268-16.958,15.89c-11.723-2.935-23.771-4.424-35.972-4.424c-74.979,0-137.128,55.942-146.926,128.278
		h40.505c9.411-50.183,53.548-88.278,106.421-88.278c2.812,0,5.611,0.121,8.396,0.335c-3.872,6.366-7.397,12.936-10.567,19.692
		c-40.84,0.991-74.894,29.854-83.822,68.25h42.069c5.301-11.594,15.05-20.741,27.061-25.233c-1.848,8.306-3.187,16.725-4,25.233
		h40.227c1.636-13.784,4.966-27.259,9.969-40.249c6.727-17.464,16.266-33.594,28.355-47.947
		c10.368-12.314,22.291-22.98,35.541-31.823c5.913,3.95,11.563,8.263,16.918,12.91c-38.335,23.058-64.52,62.491-70.607,107.109
		h40.524c6.212-32.933,27.496-61.406,57.617-76.641c3.852,5.47,7.384,11.18,10.574,17.101
		c-10.851,5.228-20.634,12.654-28.636,21.925c-9.391,10.881-15.906,23.815-19.126,37.615h42.116
		c4.281-9.267,11.418-17.063,20.33-22.103c1.861,7.195,3.263,14.572,4.159,22.103h40.217
		C444.716,181.142,355.598,98.361,247.5,98.361S50.284,181.142,40.185,286.639H80.402z"/>
	<polygon style="fill:#EBE5DD;" points="44.161,326.639 64.269,396.639 247.5,396.639 247.5,326.639 	"/>
	<polygon style="fill:#D9CCBC;" points="247.5,396.639 431.23,396.639 450.925,326.639 247.5,326.639 	"/>
	<rect y="286.639" style="fill:#C0AB91;" width="495" height="40"/>
</g>
<g>
</g>
<g>
</g>
<g>
</g>
<g>
</g>
<g>
</g>
<g>
</g>
<g>
</g>
<g>
</g>
<g>
</g>
<g>
</g>
<g>
</g>
<g>
</g>
<g>
</g>
<g>
</g>
<g>
</g>
</svg>
