<svg id="_x33_0" enable-background="new 0 0 64 64" height="512" viewBox="0 0 64 64" width="512" xmlns="http://www.w3.org/2000/svg"><g><g><g><path d="m22.66 52.15-6.81 2.92-1.08-2.37c-.51-1.12-.77-2.34-.77-3.56 0-1.31.3-2.58.85-3.73.31-.64.69-1.24 1.15-1.79.37-.44.78-.84 1.23-1.2 1.16-.94 2.53-1.59 3.98-1.91l5.96-1.33c-.04.76.06 1.51.3 2.23l.53 1.59-5 10z" fill="#4fc1e9"/></g><g><path d="m42 54v8h-19c1.2-.02 2.35-.4 3.3-1.04.98-.67 1.76-1.62 2.22-2.77l5.84-14.58c.42-1.06.64-2.2.64-3.34v-1.05l6.37 1.42c1.08.24 2.12.64 3.08 1.19 1.43.82 2.63 1.93 3.55 3.23.18.26.35.53.51.8.96 1.66 1.49 3.56 1.49 5.53v2.61z" fill="#4fc1e9"/></g><g><path d="m32 15c-2.6 2.6-5.95 4.33-9.58 4.93l-.42.07v6c0 4.23 2.63 7.85 6.34 9.31-.44.51-.75 1.15-.87 1.86l-.23 1.36c-.03.22-.06.43-.07.65l-5.96 1.33c-1.45.32-2.82.97-3.98 1.91-.45.36-.86.76-1.23 1.2v-21.62c0-.39.01-.77.04-1.15.19.1.4.15.61.15.75 0 1.35-.6 1.35-1.35v-3.65h4c1.1 0 2-.9 2-2v-5.86c2.35-1.36 5.09-2.14 8-2.14s5.65.78 8 2.14v5.86c0 1.1.9 2 2 2h4v3.65c0 .75.6 1.35 1.35 1.35.21 0 .42-.05.61-.15.03.38.04.76.04 1.15v23.06c-.92-1.3-2.12-2.41-3.55-3.23-.96-.55-2-.95-3.08-1.19l-6.37-1.42v-1.43c0-.77-.23-1.48-.62-2.08 4.37-1.06 7.62-5.01 7.62-9.71v-6l-.42-.07c-1.82-.3-3.56-.88-5.18-1.71-1.61-.84-3.1-1.92-4.4-3.22z" fill="#fcd770"/></g><g><path d="m42 54h8v8h-8z" fill="#f0d0b4"/></g><g><path d="m31.21 34c-.93 0-1.78.34-2.45.9-.15.13-.29.26-.42.41-3.71-1.46-6.34-5.08-6.34-9.31v-6l.42-.07c3.63-.6 6.98-2.33 9.58-4.93 1.3 1.3 2.79 2.38 4.4 3.22 1.62.83 3.36 1.41 5.18 1.71l.42.07v6c0 4.7-3.25 8.65-7.62 9.71-.68-1.03-1.85-1.71-3.17-1.71z" fill="#f0d0b4"/></g><g><path d="m23 53 5-10-.53-1.59c-.24-.72-.34-1.47-.3-2.23.01-.22.04-.43.07-.65l.23-1.36c.12-.71.43-1.35.87-1.86.13-.15.27-.28.42-.41.67-.56 1.52-.9 2.45-.9 1.32 0 2.49.68 3.17 1.71.39.6.62 1.31.62 2.08v1.43 1.05c0 1.14-.22 2.28-.64 3.34l-5.84 14.58c-.46 1.15-1.24 2.1-2.22 2.77-.95.64-2.1 1.02-3.3 1.04-.03 0-.07 0-.1 0-2.38 0-4.53-1.39-5.51-3.55l-1.54-3.38 6.81-2.92z" fill="#f0d0b4"/></g><g><path d="m24 8.14v5.86c0 1.1-.9 2-2 2h-4v3.65c0 .75-.6 1.35-1.35 1.35-.21 0-.42-.05-.61-.15-.17-.08-.33-.21-.45-.36l-3.59-4.49h-8c-1.1 0-2-.9-2-2v-10c0-1.1.9-2 2-2h18c1.1 0 2 .9 2 2z" fill="#e6e9ed"/></g><g><path d="m42 2h18c1.1 0 2 .9 2 2v10c0 1.1-.9 2-2 2h-8l-3.59 4.49c-.12.15-.28.28-.45.36-.19.1-.4.15-.61.15-.75 0-1.35-.6-1.35-1.35v-3.65h-4c-1.1 0-2-.9-2-2v-5.86-4.14c0-1.1.9-2 2-2z" fill="#e6e9ed"/></g></g><g><path d="m60 1h-18c-1.654 0-3 1.346-3 3v2.52c-4.391-1.958-9.609-1.958-14 0v-2.52c0-1.654-1.346-3-3-3h-18c-1.654 0-3 1.346-3 3v10c0 1.654 1.346 3 3 3h7.52l3.294 4.118c.063.079.139.141.21.21-.009.224-.024.446-.024.672v21.274c-1.285 1.662-2 3.706-2 5.861 0 1.38.29 2.717.861 3.976l2.615 5.753c1.142 2.513 3.664 4.136 6.424 4.136.034 0 .066-.007.1-.008v.008h28v-11.605c0-2.382-.732-4.656-2-6.587v-22.808c0-.226-.015-.448-.024-.672.071-.069.147-.131.21-.21l3.294-4.118h7.52c1.654 0 3-1.346 3-3v-10c0-1.654-1.346-3-3-3zm-21 7.741v5.259c0 1.654 1.346 3 3 3h3v2.649c0 1.175.87 2.143 1.999 2.315 0 .012.001.024.001.036v20.477c-.629-.567-1.305-1.089-2.056-1.518-1.049-.599-2.178-1.035-3.355-1.298l-5.589-1.241v-.63c0-.51-.101-.992-.249-1.453 4.32-1.558 7.249-5.65 7.249-10.337v-6.848l-1.255-.208c-3.312-.552-6.323-2.069-8.745-4.38v-3.564h-2v3.564c-2.422 2.31-5.433 3.827-8.744 4.38l-1.256.208v6.848c0 4.154 2.283 7.857 5.899 9.741-.187.395-.338.811-.413 1.262l-.227 1.359-5.263 1.169c-1.438.32-2.804.956-3.996 1.824v-19.355c0-.012.001-.024.001-.036 1.129-.171 1.999-1.139 1.999-2.315v-2.649h3c1.654 0 3-1.346 3-3v-5.259c4.3-2.261 9.7-2.261 14 0zm10 44.259h-6v-2.764l.895-1.789-1.789-.895-1.106 2.212v11.236h-13.188c.693-.676 1.262-1.493 1.639-2.436l5.833-14.584c.449-1.124.681-2.305.705-3.513l5.164 1.147c.982.218 1.923.582 2.798 1.081 3.115 1.78 5.049 5.113 5.049 8.7zm-20.855-18.892c-3.136-1.488-5.145-4.592-5.145-8.108v-5.157c3.373-.64 6.459-2.172 9-4.464 2.541 2.292 5.626 3.824 9 4.464v5.157c0 3.955-2.548 7.393-6.266 8.572-.876-.959-2.125-1.572-3.524-1.572-1.16 0-2.23.413-3.065 1.108zm-15.665-19.108h-8.48c-.551 0-1-.449-1-1v-10c0-.551.449-1 1-1h18c.551 0 1 .449 1 1v10c0 .551-.449 1-1 1h-5v4.649c0 .301-.438.453-.625.219zm5.374 28.197c1.04-.831 2.276-1.424 3.576-1.713l4.792-1.065c.058.445.158.885.3 1.312l.398 1.192-3.819 7.638-1.173-2.932-1.857.742 1.296 3.241-5.014 2.149-.671-1.477c-.453-.997-.682-2.055-.682-3.148 0-2.323 1.041-4.488 2.854-5.939zm.442 14.839-1.115-2.454 4.34-1.86-.415.831 1.789.895 6.185-12.37-.66-1.979c-.257-.771-.322-1.602-.188-2.403l.227-1.363c.225-1.353 1.382-2.333 2.751-2.333 1.538 0 2.79 1.252 2.79 2.79v2.477c0 1.022-.192 2.022-.572 2.972l-5.833 14.584c-.773 1.93-2.616 3.177-4.695 3.177-1.978 0-3.785-1.163-4.604-2.964zm24.704 2.964v-6h6v6zm18-47c0 .551-.449 1-1 1h-8.48l-3.895 4.868c-.186.236-.625.082-.625-.219v-4.649h-5c-.551 0-1-.449-1-1v-10c0-.551.449-1 1-1h18c.551 0 1 .449 1 1z"/><path d="m17.349 5.241-6.297 5.397-2.345-2.345-1.414 1.414 3.655 3.655 7.703-6.603z"/><path d="m55.375 4.219-4.375 3.501-4.375-3.501-1.25 1.562 4.025 3.219-4.025 3.219 1.25 1.562 4.375-3.501 4.375 3.501 1.25-1.562-4.025-3.219 4.025-3.219z"/><path d="m30.707 23.707-1.414-1.414-.293.293c-.526.526-1.474.526-2 0l-.293-.293-1.414 1.414.293.293c.645.645 1.502 1 2.414 1s1.77-.355 2.414-1z"/><path d="m36 25c.912 0 1.77-.355 2.414-1l.293-.293-1.414-1.414-.293.293c-.526.526-1.474.526-2 0l-.293-.293-1.414 1.414.293.293c.644.645 1.502 1 2.414 1z"/><path d="m34 32.236.105.211 1.789-.895-.105-.211c-.722-1.444-2.174-2.341-3.789-2.341s-3.067.897-3.789 2.342l-.105.211 1.789.895.105-.212c.381-.762 1.147-1.236 2-1.236s1.619.474 2 1.236z"/></g></g></svg>