<?xml version="1.0"?>
<svg xmlns="http://www.w3.org/2000/svg" viewBox="0 0 512 512" width="512" height="512"><g id="filled_outline" data-name="filled outline"><path d="M488,208,368,120v40H272a96,96,0,0,0-96,96H368v40Z" style="fill:#6cbae5"/><path d="M144,256V216L24,304l120,88V352h96a96,96,0,0,0,96-96H144Z" style="fill:#aae5c8"/><circle cx="256" cy="256" r="48" style="fill:#fbb540"/><path d="M492.734,214.453a8.008,8.008,0,0,0,0-12.906M139.266,398.453A8,8,0,0,0,152,392"/><path d="M492.734,201.547l-120-88A8,8,0,0,0,360,120v32H272a103.691,103.691,0,0,0-103.611,96H152V216a8,8,0,0,0-12.734-6.453l-120,88a8.008,8.008,0,0,0,0,12.906l120,88A8,8,0,0,0,152,392V360h88a103.691,103.691,0,0,0,103.611-96H360v32a7.992,7.992,0,0,0,4.383,7.133A7.9,7.9,0,0,0,368,304a8.009,8.009,0,0,0,4.734-1.547l120-88a8.008,8.008,0,0,0,0-12.906ZM302.266,318.266A87.464,87.464,0,0,1,240,344H144a8,8,0,0,0-8,8v24.211L37.531,304,136,231.789V256a8,8,0,0,0,8,8h56.639a55.925,55.925,0,0,0,110.722,0h16.287A87.31,87.31,0,0,1,302.266,318.266ZM216,256a40,40,0,1,1,40,40A40.047,40.047,0,0,1,216,256Zm160,24.211V256a8,8,0,0,0-8-8H311.361a55.925,55.925,0,0,0-110.722,0H184.352A87.862,87.862,0,0,1,272,168h96a8,8,0,0,0,8-8V135.789L474.469,208Z"/></g></svg>
