<svg xmlns="http://www.w3.org/2000/svg" height="512pt" version="1.1" viewBox="0 0 512 512.00072" width="512pt">
<g id="surface1">
<path d="M 298.609375 13.796875 C 183.109375 33.992188 95.316406 134.765625 95.316406 256.050781 C 95.316406 377.335938 183.109375 478.109375 298.609375 498.304688 C 414.109375 478.109375 501.902344 377.335938 501.902344 256.050781 C 501.902344 134.765625 414.109375 33.992188 298.609375 13.796875 Z M 298.609375 13.796875 " style=" stroke:none;fill-rule:nonzero;fill:rgb(44.705882%,84.705882%,100%);fill-opacity:1;" />
<path d="M 143.007812 369.03125 C 150.175781 361.839844 161.542969 361.234375 169.5625 367.460938 C 193.425781 385.992188 223.398438 397.023438 255.949219 397.023438 C 333.808594 397.023438 396.921875 333.90625 396.921875 256.050781 L 368.003906 256.175781 L 416.621094 207.558594 L 465.238281 256.175781 L 436.914062 256.050781 C 436.914062 355.996094 355.894531 437.015625 255.949219 437.015625 C 214.089844 437.015625 175.546875 422.800781 144.886719 398.9375 C 135.40625 391.558594 134.523438 377.539062 143.007812 369.03125 Z M 143.007812 369.03125 " style=" stroke:none;fill-rule:nonzero;fill:rgb(100%,36.470588%,36.470588%);fill-opacity:1;" />
<path d="M 368.894531 143.070312 C 361.726562 150.261719 350.359375 150.871094 342.339844 144.640625 C 318.476562 126.113281 288.503906 115.078125 255.949219 115.078125 C 178.09375 115.078125 114.976562 178.195312 114.976562 256.050781 L 143.898438 255.925781 L 95.28125 304.542969 L 46.664062 255.921875 L 74.984375 256.050781 C 74.984375 156.105469 156.007812 75.085938 255.949219 75.085938 C 297.8125 75.085938 336.355469 89.300781 367.011719 113.164062 C 376.492188 120.546875 377.375 134.5625 368.894531 143.070312 Z M 368.894531 143.070312 " style=" stroke:none;fill-rule:nonzero;fill:rgb(100%,36.470588%,36.470588%);fill-opacity:1;" />
<path d="M 255.949219 447.011719 C 213.050781 447.011719 172.523438 433.117188 138.746094 406.828125 C 131.96875 401.550781 127.769531 393.605469 127.234375 385.035156 C 126.695312 376.460938 129.863281 368.054688 135.925781 361.972656 C 146.589844 351.277344 163.6875 350.242188 175.691406 359.566406 C 198.828125 377.53125 226.582031 387.027344 255.949219 387.027344 C 324.789062 387.027344 381.394531 333.636719 386.542969 266.097656 L 368.046875 266.175781 C 363.957031 266.171875 360.332031 263.765625 358.773438 260.023438 C 357.214844 256.285156 358.070312 251.972656 360.933594 249.109375 L 409.550781 200.492188 C 413.453125 196.585938 419.785156 196.585938 423.691406 200.492188 L 472.308594 249.109375 C 475.171875 251.972656 476.023438 256.285156 474.464844 260.027344 C 472.90625 263.765625 469.230469 266.234375 465.195312 266.175781 L 446.652344 266.09375 C 441.414062 366.742188 357.878906 447.011719 255.949219 447.011719 Z M 157.128906 373.191406 C 154.550781 373.191406 152.003906 374.167969 150.089844 376.089844 C 148.039062 378.148438 147.007812 380.878906 147.191406 383.777344 C 147.375 386.679688 148.734375 389.261719 151.03125 391.046875 C 181.261719 414.578125 217.542969 427.015625 255.949219 427.015625 C 350.222656 427.015625 426.917969 350.324219 426.917969 256.050781 C 426.917969 253.390625 427.976562 250.839844 429.863281 248.964844 C 431.746094 247.089844 434.296875 246.039062 436.960938 246.050781 L 440.992188 246.070312 L 416.621094 221.699219 L 392.246094 246.074219 L 396.878906 246.050781 C 399.507812 246.023438 402.09375 247.089844 403.976562 248.964844 C 405.863281 250.839844 406.921875 253.390625 406.921875 256.050781 C 406.921875 339.296875 339.195312 407.019531 255.949219 407.019531 C 222.097656 407.019531 190.105469 396.070312 163.429688 375.355469 C 161.5625 373.90625 159.335938 373.191406 157.128906 373.191406 Z M 157.128906 373.191406 " style=" stroke:none;fill-rule:nonzero;fill:rgb(0%,0%,0%);fill-opacity:1;" />
<path d="M 95.28125 314.539062 C 92.722656 314.539062 90.164062 313.5625 88.210938 311.609375 L 39.59375 262.992188 C 36.726562 260.128906 35.875 255.816406 37.433594 252.078125 C 38.988281 248.351562 42.628906 245.925781 46.664062 245.925781 C 46.675781 245.925781 46.691406 245.925781 46.707031 245.925781 L 65.25 246.007812 C 66.953125 213.3125 76.972656 181.714844 94.480469 154.050781 C 97.433594 149.386719 103.613281 147.996094 108.277344 150.949219 C 112.941406 153.902344 114.332031 160.078125 111.378906 164.746094 C 94.109375 192.027344 84.984375 223.597656 84.984375 256.050781 C 84.984375 258.710938 83.925781 261.257812 82.039062 263.136719 C 80.15625 265.011719 77.585938 266.019531 74.941406 266.046875 L 70.910156 266.027344 L 95.28125 290.398438 L 119.652344 266.027344 L 115.023438 266.046875 C 112.335938 266.046875 109.808594 265.011719 107.921875 263.136719 C 106.039062 261.257812 104.980469 258.710938 104.980469 256.050781 C 104.980469 172.804688 172.703125 105.078125 255.949219 105.078125 C 289.800781 105.078125 321.792969 116.027344 348.46875 136.742188 C 352.523438 139.890625 358.257812 139.574219 361.8125 136.011719 C 363.863281 133.953125 364.894531 131.222656 364.710938 128.320312 C 364.527344 125.421875 363.164062 122.839844 360.871094 121.054688 C 330.640625 97.523438 294.359375 85.085938 255.949219 85.085938 C 222.808594 85.085938 190.664062 94.578125 162.996094 112.535156 C 158.363281 115.542969 152.171875 114.222656 149.167969 109.59375 C 146.160156 104.960938 147.476562 98.769531 152.109375 95.761719 C 183.027344 75.695312 218.933594 65.089844 255.949219 65.089844 C 298.851562 65.089844 339.378906 78.984375 373.15625 105.273438 C 379.933594 110.550781 384.128906 118.496094 384.667969 127.066406 C 385.207031 135.640625 382.039062 144.046875 375.976562 150.128906 C 365.3125 160.828125 348.214844 161.859375 336.207031 152.535156 C 313.070312 134.570312 285.320312 125.074219 255.953125 125.074219 C 187.113281 125.074219 130.507812 178.464844 125.359375 246.003906 L 143.855469 245.925781 C 147.878906 245.925781 151.570312 248.335938 153.128906 252.078125 C 154.6875 255.816406 153.832031 260.125 150.96875 262.992188 L 102.351562 311.609375 C 100.398438 313.5625 97.839844 314.539062 95.28125 314.539062 Z M 95.28125 314.539062 " style=" stroke:none;fill-rule:nonzero;fill:rgb(0%,0%,0%);fill-opacity:1;" />
<path d="M 125.644531 140.472656 C 123.144531 140.472656 120.644531 139.542969 118.703125 137.671875 C 114.730469 133.835938 114.617188 127.507812 118.453125 123.535156 L 119.175781 122.785156 C 123.03125 118.832031 129.359375 118.753906 133.3125 122.609375 C 137.265625 126.464844 137.347656 132.792969 133.492188 136.746094 L 132.839844 137.417969 C 130.878906 139.453125 128.261719 140.472656 125.644531 140.472656 Z M 125.644531 140.472656 " style=" stroke:none;fill-rule:nonzero;fill:rgb(0%,0%,0%);fill-opacity:1;" />
<path d="M 430.203125 92.476562 C 427.636719 92.476562 425.074219 91.492188 423.117188 89.53125 L 422.792969 89.207031 C 418.890625 85.304688 418.890625 78.972656 422.792969 75.066406 C 426.699219 71.164062 433.03125 71.164062 436.933594 75.066406 L 437.289062 75.421875 C 441.183594 79.335938 441.171875 85.664062 437.257812 89.5625 C 435.308594 91.503906 432.753906 92.476562 430.203125 92.476562 Z M 430.203125 92.476562 " style=" stroke:none;fill-rule:nonzero;fill:rgb(0%,0%,0%);fill-opacity:1;" />
<path d="M 255.949219 512 C 187.582031 512 123.308594 485.375 74.964844 437.035156 C 26.625 388.691406 0 324.417969 0 256.050781 C 0 187.683594 26.625 123.410156 74.964844 75.066406 C 162.363281 -12.328125 299.523438 -24.898438 401.097656 45.183594 C 405.640625 48.316406 406.78125 54.546875 403.648438 59.089844 C 400.511719 63.632812 394.285156 64.777344 389.742188 61.640625 C 296.113281 -2.957031 169.675781 8.636719 89.105469 89.207031 C -2.890625 181.203125 -2.890625 330.894531 89.105469 422.894531 C 133.671875 467.460938 192.925781 492.003906 255.949219 492.003906 C 318.976562 492.003906 378.230469 467.460938 422.792969 422.894531 C 501.527344 344.164062 514.371094 219.585938 453.332031 126.675781 C 450.300781 122.0625 451.585938 115.863281 456.199219 112.832031 C 460.8125 109.800781 467.011719 111.082031 470.046875 115.695312 C 501.882812 164.160156 516.324219 222.8125 510.703125 280.859375 C 505.003906 339.699219 478.808594 395.160156 436.933594 437.035156 C 388.59375 485.378906 324.316406 512 255.949219 512 Z M 255.949219 512 " style=" stroke:none;fill-rule:nonzero;fill:rgb(0%,0%,0%);fill-opacity:1;" />
</g>
</svg>