<?xml version="1.0" encoding="iso-8859-1"?>
<!-- Generator: Adobe Illustrator 19.0.0, SVG Export Plug-In . SVG Version: 6.00 Build 0)  -->
<svg version="1.1" id="Capa_1" xmlns="http://www.w3.org/2000/svg" xmlns:xlink="http://www.w3.org/1999/xlink" x="0px" y="0px"
	 viewBox="0 0 480 480" style="enable-background:new 0 0 480 480;" xml:space="preserve">
<path style="fill:#EF9F35;" d="M8.64,85.52c-0.853,6.961-0.853,13.999,0,20.96l25.2,4.64c1.572,6.374,4.108,12.471,7.52,18.08
	l-14.48,21.12c4.315,5.515,9.285,10.485,14.8,14.8l21.12-14.48c5.609,3.412,11.706,5.948,18.08,7.52l4.64,25.2
	c6.961,0.853,13.999,0.853,20.96,0l4.64-25.2c6.374-1.572,12.471-4.108,18.08-7.52l21.12,14.48c5.515-4.315,10.485-9.285,14.8-14.8
	l-14.48-21.12c3.412-5.609,5.948-11.706,7.52-18.08l25.2-4.64c0.853-6.961,0.853-13.999,0-20.96l-25.2-4.64
	c-1.572-6.374-4.108-12.471-7.52-18.08l14.48-21.12c-4.315-5.515-9.285-10.485-14.8-14.8L129.2,41.36
	c-5.609-3.412-11.706-5.948-18.08-7.52l-4.64-25.2c-6.961-0.853-13.999-0.853-20.96,0l-4.64,25.2
	c-6.374,1.572-12.471,4.108-18.08,7.52L41.68,26.88c-5.515,4.315-10.485,9.285-14.8,14.8L41.36,62.8
	c-3.412,5.609-5.948,11.706-7.52,18.08L8.64,85.52z M96,64c17.673,0,32,14.327,32,32s-14.327,32-32,32s-32-14.327-32-32
	S78.327,64,96,64z"/>
<path style="fill:#F7D04F;" d="M446.16,224.88c-1.572-6.374-4.108-12.471-7.52-18.08l14.48-21.12
	c-4.315-5.515-9.285-10.485-14.8-14.8l-21.12,14.48c-5.609-3.412-11.706-5.948-18.08-7.52l-4.64-25.2
	c-6.961-0.853-13.999-0.853-20.96,0l-4.64,25.2c-6.374,1.572-12.471,4.108-18.08,7.52l-21.12-14.48
	c-5.515,4.315-10.485,9.285-14.8,14.8l14.48,21.12c-3.412,5.609-5.948,11.706-7.52,18.08l-25.2,4.64
	c-0.853,6.961-0.853,13.999,0,20.96l25.2,4.64c1.572,6.374,4.108,12.471,7.52,18.08l-14.48,21.12
	c4.315,5.515,9.285,10.485,14.8,14.8l21.12-14.48c5.609,3.412,11.706,5.948,18.08,7.52l4.64,25.2c6.961,0.853,13.999,0.853,20.96,0
	l4.64-25.2c6.374-1.572,12.471-4.108,18.08-7.52l21.12,14.48c5.515-4.315,10.485-9.285,14.8-14.8l-14.48-21.12
	c3.412-5.609,5.948-11.706,7.52-18.08l25.2-4.64c0.853-6.961,0.853-13.999,0-20.96L446.16,224.88z M384,272
	c-17.673,0-32-14.327-32-32s14.327-32,32-32s32,14.327,32,32S401.673,272,384,272z"/>
<path style="fill:#63C8CD;" d="M33.84,399.12c1.572,6.374,4.108,12.471,7.52,18.08l-14.48,21.12c4.315,5.515,9.285,10.485,14.8,14.8
	l21.12-14.48c5.609,3.412,11.706,5.948,18.08,7.52l4.64,25.2c6.961,0.853,13.999,0.853,20.96,0l4.64-25.2
	c6.374-1.572,12.471-4.108,18.08-7.52l21.12,14.48c5.515-4.315,10.485-9.285,14.8-14.8l-14.48-21.12
	c3.412-5.609,5.948-11.706,7.52-18.08l25.2-4.64c0.853-6.961,0.853-13.999,0-20.96l-25.2-4.64c-1.572-6.374-4.108-12.471-7.52-18.08
	l14.48-21.12c-4.315-5.515-9.285-10.485-14.8-14.8l-21.12,14.48c-5.609-3.412-11.706-5.948-18.08-7.52l-4.64-25.2
	c-6.961-0.853-13.999-0.853-20.96,0l-4.64,25.2c-6.374,1.572-12.471,4.108-18.08,7.52l-21.12-14.48
	c-5.515,4.315-10.485,9.285-14.8,14.8l14.48,21.12c-3.412,5.609-5.948,11.706-7.52,18.08l-25.2,4.64
	c-0.853,6.961-0.853,13.999,0,20.96L33.84,399.12z M96,352c17.673,0,32,14.327,32,32s-14.327,32-32,32s-32-14.327-32-32
	S78.327,352,96,352z"/>
<g>
	<path style="fill:#3C3C48;" d="M7.2,77.68c-3.454,0.645-6.083,3.469-6.48,6.96c-0.96,7.543-0.96,15.177,0,22.72
		c0.397,3.491,3.026,6.315,6.48,6.96l20.32,3.76c1.175,3.698,2.674,7.285,4.48,10.72l-11.76,16.96c-2.094,2.828-2.094,6.692,0,9.52
		c4.687,5.942,10.058,11.313,16,16c2.828,2.094,6.692,2.094,9.52,0L63.2,160c3.435,1.806,7.022,3.305,10.72,4.48l3.76,20.32
		c0.645,3.454,3.469,6.083,6.96,6.48c7.543,0.96,15.177,0.96,22.72,0c3.491-0.397,6.315-3.026,6.96-6.48l3.76-20.32
		c3.698-1.175,7.285-2.674,10.72-4.48l16.96,11.76c2.828,2.094,6.692,2.094,9.52,0c5.942-4.687,11.313-10.058,16-16
		c2.094-2.828,2.094-6.692,0-9.52L160,128.8c1.806-3.435,3.305-7.022,4.48-10.72l20.32-3.76c3.454-0.645,6.083-3.469,6.48-6.96
		c0.96-7.543,0.96-15.177,0-22.72c-0.397-3.491-3.026-6.315-6.48-6.96l-20.32-3.76c-1.175-3.698-2.674-7.285-4.48-10.72l11.76-16.96
		c2.094-2.828,2.094-6.692,0-9.52c-4.687-5.942-10.058-11.313-16-16c-2.828-2.094-6.692-2.094-9.52,0L128.8,32
		c-3.435-1.806-7.022-3.305-10.72-4.48L114.32,7.2c-0.645-3.454-3.469-6.083-6.96-6.48c-7.543-0.96-15.177-0.96-22.72,0
		c-3.491,0.397-6.315,3.026-6.96,6.48l-3.76,20.32c-3.698,1.175-7.285,2.674-10.72,4.48L46.24,20.24
		c-2.828-2.094-6.692-2.094-9.52,0c-5.942,4.687-11.313,10.058-16,16c-2.094,2.828-2.094,6.692,0,9.52L32,63.2
		c-1.806,3.435-3.305,7.022-4.48,10.72L7.2,77.68z M35.28,88.8c3.107-0.576,5.583-2.927,6.32-6c1.341-5.655,3.583-11.057,6.64-16
		c1.582-2.66,1.489-5.993-0.24-8.56l-11.04-16c1.611-1.851,3.349-3.589,5.2-5.2L58.24,48c2.651,1.723,6.069,1.723,8.72,0
		c4.943-3.057,10.345-5.299,16-6.64c3.073-0.737,5.424-3.213,6-6.32L92.32,16h7.36l3.52,19.2c0.576,3.107,2.927,5.583,6,6.32
		c5.655,1.341,11.057,3.583,16,6.64c2.651,1.723,6.069,1.723,8.72,0l16-11.04c1.851,1.611,3.589,3.349,5.2,5.2L144,58.24
		c-1.723,2.651-1.723,6.069,0,8.72c3.057,4.943,5.299,10.345,6.64,16c0.737,3.073,3.213,5.424,6.32,6l19.2,3.52v3.68
		c0,0,0,2.4,0,3.68l-19.2,3.52c-3.107,0.576-5.583,2.927-6.32,6c-1.341,5.655-3.583,11.057-6.64,16c-1.723,2.651-1.723,6.069,0,8.72
		l11.04,16c-1.611,1.851-3.349,3.589-5.2,5.2l-16-11.04c-2.651-1.723-6.069-1.723-8.72,0c-4.943,3.057-10.345,5.299-16,6.64
		c-3.073,0.737-5.424,3.213-6,6.32L99.68,176c-2.56,0-4.8,0-7.36,0l-3.52-19.2c-0.576-3.107-2.927-5.583-6-6.32
		c-5.655-1.341-11.057-3.583-16-6.64c-2.651-1.723-6.069-1.723-8.72,0l-16,11.04c-1.851-1.611-3.589-3.349-5.2-5.2l11.04-16
		c1.723-2.651,1.723-6.069,0-8.72c-3.057-4.943-5.299-10.345-6.64-16c-0.737-3.073-3.213-5.424-6.32-6L16,99.68
		c0-1.28,0-2.48,0-3.68s0-2.4,0-3.68L35.28,88.8z"/>
	<path style="fill:#3C3C48;" d="M472.8,221.68l-20.32-3.76c-1.175-3.698-2.674-7.285-4.48-10.72l11.76-16.96
		c2.094-2.828,2.094-6.692,0-9.52c-4.687-5.942-10.058-11.313-16-16c-2.828-2.094-6.692-2.094-9.52,0L416.8,176
		c-3.435-1.806-7.022-3.305-10.72-4.48l-3.76-20.32c-0.645-3.454-3.469-6.083-6.96-6.48c-7.543-0.96-15.177-0.96-22.72,0
		c-3.491,0.397-6.315,3.026-6.96,6.48l-3.76,20.32c-3.698,1.175-7.285,2.674-10.72,4.48l-16.96-11.76
		c-2.828-2.094-6.692-2.094-9.52,0c-5.942,4.687-11.313,10.058-16,16c-2.094,2.828-2.094,6.692,0,9.52L320,207.2
		c-1.806,3.435-3.305,7.022-4.48,10.72l-20.32,3.76c-3.454,0.645-6.083,3.469-6.48,6.96c-0.96,7.543-0.96,15.177,0,22.72
		c0.397,3.491,3.026,6.315,6.48,6.96l20.32,3.76c1.175,3.698,2.674,7.285,4.48,10.72l-11.76,16.96c-2.094,2.828-2.094,6.692,0,9.52
		c4.687,5.942,10.058,11.313,16,16c2.828,2.094,6.692,2.094,9.52,0L351.2,304c3.435,1.806,7.022,3.305,10.72,4.48l3.76,20.32
		c0.645,3.454,3.469,6.083,6.96,6.48c7.543,0.96,15.177,0.96,22.72,0c3.491-0.397,6.315-3.026,6.96-6.48l3.76-20.32
		c3.698-1.175,7.285-2.674,10.72-4.48l16.96,11.76c2.828,2.094,6.692,2.094,9.52,0c5.942-4.687,11.313-10.058,16-16
		c2.094-2.828,2.094-6.692,0-9.52L448,272.8c1.806-3.435,3.305-7.022,4.48-10.72l20.32-3.76c3.454-0.645,6.083-3.469,6.48-6.96
		c0.96-7.543,0.96-15.177,0-22.72C478.883,225.148,476.254,222.325,472.8,221.68L472.8,221.68z M464,243.68l-19.2,3.52
		c-3.107,0.576-5.583,2.927-6.32,6c-1.341,5.655-3.583,11.057-6.64,16c-1.723,2.651-1.723,6.069,0,8.72l11.04,16
		c-1.611,1.851-3.349,3.589-5.2,5.2l-16-11.04c-2.651-1.723-6.069-1.723-8.72,0c-4.943,3.057-10.345,5.299-16,6.64
		c-3.073,0.737-5.424,3.213-6,6.32L387.68,320h-7.36l-3.52-19.2c-0.576-3.107-2.927-5.583-6-6.32c-5.655-1.341-11.057-3.583-16-6.64
		c-2.651-1.723-6.069-1.723-8.72,0l-16,11.04c-1.851-1.611-3.589-3.349-5.2-5.2l11.04-16c1.723-2.651,1.723-6.069,0-8.72
		c-3.057-4.943-5.299-10.345-6.64-16c-0.737-3.073-3.213-5.424-6.32-6L304,243.68c0-1.28,0-2.48,0-3.68s0-2.4,0-3.68l19.2-3.52
		c3.107-0.576,5.583-2.927,6.32-6c1.341-5.655,3.583-11.057,6.64-16c1.723-2.651,1.723-6.069,0-8.72l-11.04-16
		c1.611-1.851,3.349-3.589,5.2-5.2l16,11.04c2.651,1.723,6.069,1.723,8.72,0c4.943-3.057,10.345-5.299,16-6.64
		c3.073-0.737,5.424-3.213,6-6.32l3.52-19.2h7.36l3.52,19.2c0.576,3.107,2.927,5.583,6,6.32c5.655,1.341,11.057,3.583,16,6.64
		c2.651,1.723,6.069,1.723,8.72,0l16-11.04c1.851,1.611,3.589,3.349,5.2,5.2l-11.04,16c-1.723,2.651-1.723,6.069,0,8.72
		c3.057,4.943,5.299,10.345,6.64,16c0.737,3.073,3.213,5.424,6.32,6l19.2,3.52V240C464.48,240,464,242.4,464,243.68L464,243.68z"/>
	<path style="fill:#3C3C48;" d="M7.2,402.32l20.32,3.76c1.175,3.698,2.674,7.285,4.48,10.72l-11.76,16.96
		c-2.094,2.828-2.094,6.692,0,9.52c4.687,5.942,10.058,11.313,16,16c2.828,2.094,6.692,2.094,9.52,0L63.2,448
		c3.435,1.806,7.022,3.305,10.72,4.48l3.76,20.32c0.645,3.454,3.469,6.083,6.96,6.48c7.543,0.96,15.177,0.96,22.72,0
		c3.491-0.397,6.315-3.026,6.96-6.48l3.76-20.32c3.698-1.175,7.285-2.674,10.72-4.48l16.96,11.76c2.828,2.094,6.692,2.094,9.52,0
		c5.942-4.687,11.313-10.058,16-16c2.094-2.828,2.094-6.692,0-9.52L160,416.8c1.806-3.435,3.305-7.022,4.48-10.72l20.32-3.76
		c3.454-0.645,6.083-3.469,6.48-6.96c0.96-7.543,0.96-15.177,0-22.72c-0.397-3.491-3.026-6.315-6.48-6.96l-20.32-3.76
		c-1.175-3.698-2.674-7.285-4.48-10.72l11.76-16.96c2.094-2.828,2.094-6.692,0-9.52c-4.687-5.942-10.058-11.313-16-16
		c-2.828-2.094-6.692-2.094-9.52,0L128.8,320c-3.435-1.806-7.022-3.305-10.72-4.48l-3.76-20.32c-0.645-3.454-3.469-6.083-6.96-6.48
		c-7.543-0.96-15.177-0.96-22.72,0c-3.491,0.397-6.315,3.026-6.96,6.48l-3.76,20.32c-3.698,1.175-7.285,2.674-10.72,4.48
		l-16.96-11.76c-2.828-2.094-6.692-2.094-9.52,0c-5.942,4.687-11.313,10.058-16,16c-2.094,2.828-2.094,6.692,0,9.52L32,351.2
		c-1.806,3.435-3.305,7.022-4.48,10.72L7.2,365.68c-3.454,0.645-6.083,3.469-6.48,6.96c-0.96,7.543-0.96,15.177,0,22.72
		C1.117,398.851,3.746,401.675,7.2,402.32z M16,380.32l19.2-3.52c3.107-0.576,5.583-2.927,6.32-6c1.341-5.655,3.583-11.057,6.64-16
		c1.723-2.651,1.723-6.069,0-8.72l-11.04-16c1.611-1.851,3.349-3.589,5.2-5.2l16,11.04c2.651,1.723,6.069,1.723,8.72,0
		c4.943-3.057,10.345-5.299,16-6.64c3.073-0.737,5.424-3.213,6-6.32l3.52-19.2h7.36l3.52,19.2c0.576,3.107,2.927,5.583,6,6.32
		c5.655,1.341,11.057,3.583,16,6.64c2.651,1.723,6.069,1.723,8.72,0l16-11.04c1.851,1.611,3.589,3.349,5.2,5.2l-11.04,16
		c-1.723,2.651-1.723,6.069,0,8.72c3.057,4.943,5.299,10.345,6.64,16c0.737,3.073,3.213,5.424,6.32,6l19.2,3.52V384
		c0,0,0,2.4,0,3.68l-19.2,3.52c-3.107,0.576-5.583,2.927-6.32,6c-1.341,5.655-3.583,11.057-6.64,16c-1.723,2.651-1.723,6.069,0,8.72
		l11.04,16c-1.611,1.851-3.349,3.589-5.2,5.2l-16-11.04c-2.651-1.723-6.069-1.723-8.72,0c-4.943,3.057-10.345,5.299-16,6.64
		c-3.073,0.737-5.424,3.213-6,6.32L99.68,464h-7.36l-3.52-19.2c-0.576-3.107-2.927-5.583-6-6.32c-5.655-1.341-11.057-3.583-16-6.64
		c-2.651-1.723-6.069-1.723-8.72,0l-16,11.04c-1.851-1.611-3.589-3.349-5.2-5.2l11.04-16c1.723-2.651,1.723-6.069,0-8.72
		c-3.057-4.943-5.299-10.345-6.64-16c-0.737-3.073-3.213-5.424-6.32-6L16,387.68c0-1.28,0-2.48,0-3.68S16,381.6,16,380.32L16,380.32
		z"/>
	<path style="fill:#3C3C48;" d="M217.441,77.032l6.878-14.446l14.446,6.878l-6.878,14.446L217.441,77.032z"/>
	<path style="fill:#3C3C48;" d="M275.232,104.479l6.878-14.446l14.446,6.878l-6.878,14.446L275.232,104.479z"/>
	<path style="fill:#3C3C48;" d="M246.394,90.719l6.878-14.446l14.446,6.878l-6.878,14.446L246.394,90.719z"/>
	<path style="fill:#3C3C48;" d="M188.578,63.245l6.883-14.444l14.444,6.883l-6.883,14.444L188.578,63.245z"/>
	<path style="fill:#3C3C48;" d="M304.151,118.239l6.878-14.446l14.446,6.878l-6.878,14.446L304.151,118.239z"/>
	<path style="fill:#3C3C48;" d="M332.99,131.998l6.878-14.446l14.446,6.878l-6.878,14.446L332.99,131.998z"/>
	<path style="fill:#3C3C48;" d="M269.064,276.059l6.883-14.444l14.444,6.883l-6.883,14.444L269.064,276.059z"/>
	<path style="fill:#3C3C48;" d="M124.56,207.289l6.883-14.444l14.444,6.883l-6.883,14.444L124.56,207.289z"/>
	<path style="fill:#3C3C48;" d="M153.406,221.057l6.883-14.444l14.444,6.883l-6.883,14.444L153.406,221.057z"/>
	<path style="fill:#3C3C48;" d="M225.68,255.36l6.88-14.4l-1.28-0.64l4.48-2.48l-7.68-14l-14,7.68l2.8,5.12l-5.68,11.84
		L225.68,255.36z"/>
	<path style="fill:#3C3C48;" d="M240.138,262.29l6.883-14.444l14.444,6.883l-6.883,14.444L240.138,262.29z"/>
	<path style="fill:#3C3C48;" d="M216.164,401.577l14.018-7.713l7.713,14.018l-14.018,7.713L216.164,401.577z"/>
	<path style="fill:#3C3C48;" d="M244.283,386.113l14.018-7.713l7.713,14.018l-14.018,7.713L244.283,386.113z"/>
	<path style="fill:#3C3C48;" d="M188.147,416.988l14.02-7.711l7.711,14.02l-14.02,7.711L188.147,416.988z"/>
	<path style="fill:#3C3C48;" d="M328.378,339.869l14.018-7.713l7.713,14.018l-14.018,7.713L328.378,339.869z"/>
	<path style="fill:#3C3C48;" d="M300.35,355.295l14.021-7.708l7.708,14.021l-14.021,7.708L300.35,355.295z"/>
	<path style="fill:#3C3C48;" d="M272.256,370.752l14.02-7.711l7.711,14.02l-14.02,7.711L272.256,370.752z"/>
	<path style="fill:#3C3C48;" d="M193.68,260.96l14.08-7.68l-7.76-14l-2.8,1.52l6.48-13.6l-14.48-6.88l-6.88,14.4l13.92,6.64
		l-10.24,5.6L193.68,260.96z"/>
	<path style="fill:#3C3C48;" d="M157.9,262.435l14.021-7.708l7.708,14.021l-14.021,7.708L157.9,262.435z"/>
	<path style="fill:#3C3C48;" d="M129.906,277.759l14.018-7.713l7.713,14.018l-14.018,7.713L129.906,277.759z"/>
	<path style="fill:#3C3C48;" d="M242.107,216.108l14.02-7.711l7.711,14.02l-14.02,7.711L242.107,216.108z"/>
	<path style="fill:#3C3C48;" d="M270.08,200.686l14.02-7.711l7.711,14.02l-14.02,7.711L270.08,200.686z"/>
	<path style="fill:#3C3C48;" d="M96,136c22.091,0,40-17.909,40-40s-17.909-40-40-40S56,73.908,56,96S73.908,136,96,136z M96,72
		c13.255,0,24,10.745,24,24s-10.745,24-24,24s-24-10.745-24-24S82.745,72,96,72z"/>
	<path style="fill:#3C3C48;" d="M384,200c-22.091,0-40,17.909-40,40s17.909,40,40,40s40-17.909,40-40S406.091,200,384,200z M384,264
		c-13.255,0-24-10.745-24-24c0-13.255,10.745-24,24-24s24,10.745,24,24C408,253.255,397.255,264,384,264z"/>
	<path style="fill:#3C3C48;" d="M96,424c22.091,0,40-17.909,40-40s-17.909-40-40-40s-40,17.909-40,40S73.908,424,96,424z M96,360
		c13.255,0,24,10.745,24,24s-10.745,24-24,24s-24-10.745-24-24S82.745,360,96,360z"/>
</g>
<g>
</g>
<g>
</g>
<g>
</g>
<g>
</g>
<g>
</g>
<g>
</g>
<g>
</g>
<g>
</g>
<g>
</g>
<g>
</g>
<g>
</g>
<g>
</g>
<g>
</g>
<g>
</g>
<g>
</g>
</svg>
