<?xml version="1.0" encoding="UTF-8"?>
<svg xmlns="http://www.w3.org/2000/svg" xmlns:xlink="http://www.w3.org/1999/xlink" width="512" height="512" viewBox="0 0 60 43" version="1.1"><!-- Generator: Sketch 51.3 (57544) - http://www.bohemiancoding.com/sketch --><title>022 - Racing Flags</title><desc>Created with Sketch.</desc><defs/><g id="Page-1" stroke="none" stroke-width="1" fill="none" fill-rule="evenodd"><g id="022---Racing-Flags" transform="translate(0.000000, -1.000000)" fill-rule="nonzero"><path d="M57.92,16.09 L56.24,20.14 C55.48,21.98 54.71,23.83 53.95,25.68 L51.88,30.68 C51.7436267,31.0191891 51.4330314,31.2569287 51.07,31.3 C49.1768592,31.4609752 47.2824631,31.0049169 45.67,30 C44.5104137,29.2835104 43.4279949,28.4490761 42.44,27.51 C41.9,27.02 41.36,26.5 40.83,25.99 C39.9,25.09 38.96,24.18 37.98,23.39 C37.9525521,23.3605935 37.9224217,23.3338109 37.89,23.31 C37.2908875,22.8243226 36.6594298,22.3799634 36,21.98 C34.8715556,21.2877159 33.6052551,20.8508251 32.29,20.7 L31.92,19.81 L31.16,17.97 L32.31,15.21 C33.07,13.36 33.84,11.51 34.6,9.67 C35.36,7.83 36.14,5.97 36.9,4.12 C38.9797226,3.79167534 41.1079486,4.22869003 42.89,5.35 C43.6115115,5.78444074 44.2970399,6.2760148 44.94,6.82 C45.89,7.6 46.81,8.48 47.72,9.36 C48.25,9.87 48.79,10.39 49.33,10.88 C50.3179949,11.8190761 51.4004137,12.6535104 52.56,13.37 C53.8508144,14.1676606 55.3241349,14.6220492 56.84,14.69 C56.9096736,14.6983174 56.9798513,14.7016592 57.05,14.7 C57.3763178,14.7164274 57.6740312,14.8912329 57.8473774,15.1681883 C58.0207235,15.4451436 58.0478383,15.7893166 57.92,16.09 Z" id="Shape" fill="#CFD8DC"/><path d="M56.84,14.69 C56.8375704,14.8238165 56.8104489,14.9560336 56.76,15.08 L55.08,19.13 C54.32,20.97 53.55,22.82 52.79,24.67 L50.72,29.67 C50.5836267,30.0091891 50.2730314,30.2469287 49.91,30.29 C48.0168592,30.4509752 46.1224631,29.9949169 44.51,28.99 C43.7818762,28.5522921 43.0896964,28.0574003 42.44,27.51 C41.49,26.73 40.58,25.86 39.67,24.98 C39.11,24.44 38.55,23.9 37.98,23.39 C37.9525521,23.3605935 37.9224217,23.3338109 37.89,23.31 C36.9568181,22.4268263 35.934702,21.6426454 34.84,20.97 C33.939948,20.4196279 32.9523677,20.0273015 31.92,19.81 L31.16,17.97 L32.31,15.21 C33.07,13.36 33.84,11.51 34.6,9.67 C35.36,7.83 36.14,5.97 36.9,4.12 C38.9797226,3.79167534 41.1079486,4.22869003 42.89,5.35 C43.6115115,5.78444074 44.2970399,6.2760148 44.94,6.82 C45.48,7.31 46.02,7.83 46.56,8.35 C47.47,9.23 48.38,10.1 49.33,10.88 C49.9796964,11.4274003 50.6718762,11.9222921 51.4,12.36 C52.7524818,13.1931203 54.3019635,13.6520982 55.89,13.69 C56.425919,13.7095208 56.8479698,14.1537848 56.84,14.69 Z" id="Shape" fill="#F5F5F5"/><path d="M40.59,10.89 C39.83,12.74 39.0633333,14.59 38.29,16.44 C36.5116577,15.3186932 34.3865292,14.8815849 32.31,15.21 C33.07,13.36 33.84,11.51 34.6,9.67 C36.6785069,9.33871487 38.8066408,9.77215783 40.59,10.89 Z" id="Shape" fill="#545C60"/><path d="M47.72,9.36 C46.96,11.21 46.19,13.05 45.42,14.9 C43.9692176,13.3824119 42.3485484,12.0368874 40.59,10.89 C41.36,9.05 42.12,7.2 42.89,5.35 C44.6466546,6.49945351 46.2670436,7.84474542 47.72,9.36 Z" id="Shape" fill="#545C60"/><path d="M43.13,20.44 C42.36,22.29 41.6,24.14 40.83,25.99 C39.3792176,24.4724119 37.7585484,23.1268874 36,21.98 C36.76,20.13 37.53,18.28 38.29,16.44 C40.0519548,17.5825438 41.6760496,18.9247709 43.13,20.44 Z" id="Shape" fill="#545C60"/><path d="M50.26,18.91 C49.49,20.76 48.73,22.6 47.96,24.45 C46.2010552,23.3036502 44.5803269,21.9580766 43.13,20.44 C43.89,18.6 44.66,16.75 45.42,14.9 C46.876426,16.415475 48.500151,17.7607513 50.26,18.91 Z" id="Shape" fill="#545C60"/><path d="M56.73,14.68 L54.57,20.24 C53.0428003,20.1750555 51.5582312,19.7169402 50.26,18.91 L52.56,13.37 C53.8202147,14.1449343 55.2530275,14.5950505 56.73,14.68 Z" id="Shape" fill="#545C60"/><path d="M51.05,31.3 L51.81,30.79 C51.6638727,31.0728164 51.3863074,31.2641115 51.07,31.3 L51.05,31.3 Z" id="Shape" fill="#545C60"/><path d="M52.42,25.79 L50.26,31.34 C48.6361451,31.3221788 47.0483843,30.8586495 45.67,30 L47.96,24.45 C49.3007638,25.2859715 50.8405125,25.7485866 52.42,25.79 Z" id="Shape" fill="#545C60"/><path d="M37.79,4 C37.7909514,4.26501643 37.7364507,4.52730089 37.63,4.77 C36.96,6.4 36.28,8.04 35.6,9.67 C34.84,11.51 34.07,13.36 33.31,15.21 L32.16,17.97 L30,23.2 L22.33,41.72 C21.9075022,42.7417268 20.7367268,43.2274978 19.715,42.805 C18.6932732,42.3825022 18.2075022,41.2117268 18.63,40.19 L26.71,20.7 L26.71,20.69 L27.84,17.98 L27.84,17.97 L30,12.75 L33.94,3.24 C34.3029696,2.35637899 35.2401501,1.85279702 36.1773306,2.03779889 C37.1145111,2.22280076 37.7900314,3.04473405 37.79,4 Z" id="Shape" fill="#283593"/><path d="M29.99,20.75 C27.9102774,20.4216753 25.7820514,20.85869 24,21.98 C22.2414516,23.1268874 20.6207824,24.4724119 19.17,25.99 C17.713574,27.505475 16.089849,28.8507513 14.33,30 C12.7175369,31.0049169 10.8231408,31.4609752 8.93,31.3 C8.67222309,31.2696108 8.43773738,31.1361343 8.28,30.93 C8.21192074,30.8570797 8.15770151,30.7723621 8.12,30.68 L6.05,25.68 C5.29,23.83 4.52,21.98 3.76,20.14 L2.08,16.09 C1.95216167,15.7893166 1.97927647,15.4451436 2.15262263,15.1681883 C2.32596879,14.8912329 2.62368221,14.7164274 2.95,14.7 C4.53803648,14.6620982 6.08751821,14.2031203 7.44,13.37 C9.19984899,12.2207513 10.823574,10.875475 12.28,9.36 C13.7329564,7.84474542 15.3533454,6.49945351 17.11,5.35 C17.7724194,4.95346743 18.4767111,4.63150552 19.21,4.39 C20.4688906,4.00334638 21.7997639,3.91097215 23.1,4.12 C23.86,5.97 24.6266667,7.82 25.4,9.67 C26.16,11.51 26.93,13.36 27.69,15.21 C28.45,17.06 29.22,18.9 29.99,20.75 Z" id="Shape" fill="#CFD8DC"/><path d="M25.99,20.75 C23.67,20.39 22.74,21.97 21,23 C19.26,24.03 17.54,26.51 16,28 C14.46,29.49 12.74,29.97 11,31 C10.35,31.38 9,30.7 8.28,30.93 C8.21192074,30.8570797 8.15770151,30.7723621 8.12,30.68 L6.05,25.68 C5.29,23.83 4.52,21.98 3.76,20.14 L2.08,16.09 C1.95216167,15.7893166 1.97927647,15.4451436 2.15262263,15.1681883 C2.32596879,14.8912329 2.62368221,14.7164274 2.95,14.7 C4.53803648,14.6620982 6.08751821,14.2031203 7.44,13.37 C9.19984899,12.2207513 10.823574,10.875475 12.28,9.36 C13.7329564,7.84474542 15.3533454,6.49945351 17.11,5.35 C17.7724194,4.95346743 18.4767111,4.63150552 19.21,4.39 C19.93,6.15 20.67,7.91 21.4,9.67 C22.16,11.51 22.93,13.36 23.69,15.21 C24.45,17.06 25.22,18.9 25.99,20.75 Z" id="Shape" fill="#F5F5F5"/><path d="M21.46,9.96 L23.74,15.51 C23.0309531,15.7437962 22.3501028,16.0557129 21.71,16.44 C20.94,14.59 20.1733333,12.74 19.41,10.89 C20.0570641,10.5055753 20.7445537,10.1936898 21.46,9.96 Z" id="Shape" fill="#545C60"/><path d="M27.69,15.21 C27.2761155,15.1480767 26.8584652,15.1146647 26.44,15.11 L24.23,9.56999108 C24.6221611,9.56936338 25.013635,9.60282269 25.4,9.67 C26.16,11.51 26.93,13.36 27.69,15.21 Z" id="Shape" fill="#545C60"/><path d="M19.41,10.89 C17.6514516,12.0368874 16.0307824,13.3824119 14.58,14.9 C13.81,13.05 13.04,11.21 12.28,9.36 C13.7329564,7.84474542 15.3533454,6.49945351 17.11,5.35 C17.88,7.2 18.64,9.05 19.41,10.89 Z" id="Shape" fill="#545C60"/><path d="M24,21.98 C22.2414516,23.1268874 20.6207824,24.4724119 19.17,25.99 C18.4,24.14 17.64,22.29 16.87,20.44 C18.3239504,18.9247709 19.9480452,17.5825438 21.71,16.44 C22.47,18.28 23.24,20.13 24,21.98 Z" id="Shape" fill="#545C60"/><path d="M16.87,20.44 C15.4196731,21.9580766 13.7989448,23.3036502 12.04,24.45 C11.27,22.6 10.51,20.76 9.74,18.91 C11.499849,17.7607513 13.123574,16.415475 14.58,14.9 C15.34,16.75 16.11,18.6 16.87,20.44 Z" id="Shape" fill="#545C60"/><path d="M9.74,18.91 C7.96127772,20.0303625 5.83650569,20.4673975 3.76,20.14 L2.08,16.09 C1.95216167,15.7893166 1.97927647,15.4451436 2.15262263,15.1681883 C2.32596879,14.8912329 2.62368221,14.7164274 2.95,14.7 C4.53803648,14.6620982 6.08751821,14.2031203 7.44,13.37 L9.74,18.91 Z" id="Shape" fill="#545C60"/><path d="M14.33,30 C12.7175369,31.0049169 10.8231408,31.4609752 8.93,31.3 C8.56696859,31.2569287 8.25637333,31.0191891 8.12,30.68 L6.05,25.68 C8.12972263,26.0083247 10.2579486,25.57131 12.04,24.45 L14.33,30 Z" id="Shape" fill="#545C60"/><path d="M40.29,42.8 C39.7994537,43.0052821 39.2473512,43.0067566 38.7557155,42.8040976 C38.2640798,42.6014386 37.873392,42.211333 37.67,41.72 L30,23.2 L28.99,20.75 L27.84,17.98 L27.84,17.97 L26.69,15.21 L24.4,9.67 L22.37,4.77 C22.2635493,4.52730089 22.2090486,4.26501643 22.21,4 C22.2099686,3.04473405 22.8854889,2.22280076 23.8226694,2.03779889 C24.7598499,1.85279702 25.6970304,2.35637899 26.06,3.24 L30,12.75 L32.16,17.97 L33.29,20.7 L41.37,40.19 C41.7908941,41.2089654 41.3078306,42.3763689 40.29,42.8 Z" id="Shape" fill="#3F51B5"/><path d="M57.92,16.09 L56.24,20.14 C55.6878057,20.2266021 55.128583,20.2600885 54.57,20.24 L56.73,14.68 C56.8358113,14.6966157 56.9429433,14.7033114 57.05,14.7 C57.3763178,14.7164274 57.6740312,14.8912329 57.8473774,15.1681883 C58.0207235,15.4451436 58.0478383,15.7893166 57.92,16.09 Z" id="Shape" fill="#37474F"/><path d="M53.95,25.68 L51.88,30.68 C51.8638939,30.7186602 51.8437843,30.7555279 51.82,30.79 L51.81,30.79 L51.05,31.3 C50.787617,31.3280345 50.5238728,31.3413886 50.26,31.34 L52.42,25.79 C52.9321958,25.7967618 53.4440392,25.7599626 53.95,25.68 Z" id="Shape" fill="#37474F"/><path d="M50.26,31.34 C50.5238728,31.3413886 50.787617,31.3280345 51.05,31.3 L50,32 L50.26,31.34 Z" id="Shape" fill="#2C2F38"/><path d="M26.44,15.11 C25.5239855,15.0917458 24.6113764,15.2269472 23.74,15.51 L21.46,9.96 C22.3525126,9.66510228 23.2907585,9.53300268 24.23,9.57 L26.44,15.11 Z" id="Shape" fill="#37474F"/><path d="M41.591,11.894 C41.4122883,11.8938918 41.2368708,11.8458937 41.083,11.755 C39.5030368,10.7493573 37.6091576,10.3579864 35.76,10.655 C35.4028198,10.7109899 35.0432322,10.569825 34.8195343,10.2857971 C34.5958364,10.0017692 34.5428677,9.61911386 34.681,9.285 L36.981,3.741 C37.11443,3.41913492 37.4057723,3.18992547 37.75,3.136 C40.0572832,2.77095127 42.4187856,3.25141936 44.4,4.489 C44.8292467,4.74209956 45.00665,5.27260381 44.816,5.733 L42.516,11.276 C42.3614151,11.649983 41.9966724,11.8939343 41.592,11.894 L41.591,11.894 Z M37.146,8.557 C38.5117614,8.58498448 39.8556415,8.90552425 41.087,9.497 L42.617,5.803 C41.3760557,5.17923558 39.9850688,4.91593544 38.602,5.043 L37.146,8.557 Z" id="Shape" fill="#000000"/><path d="M39.294,17.437 C39.1152883,17.4368918 38.9398708,17.3888937 38.786,17.298 C37.2056822,16.2932319 35.3121365,15.90193 33.463,16.198 C33.1057239,16.2537728 32.7461699,16.1123223 32.5226629,15.8280663 C32.299156,15.5438102 32.2465182,15.1610354 32.385,14.827 L34.685,9.284 C34.81843,8.96213492 35.1097723,8.73292547 35.454,8.679 C37.7601051,8.31515019 40.1200496,8.79594538 42.1,10.033 C42.5292467,10.2860996 42.70665,10.8166038 42.516,11.277 L40.216,16.82 C40.0611037,17.1935907 39.6964291,17.4371018 39.292,17.437 L39.294,17.437 Z M34.851,14.1 C36.2164268,14.128096 37.5599575,14.4486338 38.791,15.04 L40.321,11.346 C39.0794529,10.7240181 37.6889784,10.4608149 36.306,10.586 L34.851,14.1 Z" id="Shape" fill="#000000"/><path d="M37,22.976 C36.8216811,22.9763095 36.6465623,22.928644 36.493,22.838 C35.4877369,22.2193501 34.3594098,21.8278827 33.187,21.691 C32.8264884,21.6605704 32.5105275,21.4377879 32.360783,21.1084383 C32.2110385,20.7790888 32.250866,20.3945408 32.4649293,20.1028707 C32.6789926,19.8112006 33.0339043,19.6579001 33.393,19.702 C34.4685719,19.8171384 35.5167949,20.1140222 36.493,20.58 L36.945,19.487 C37.303,18.6203333 37.6613333,17.7536667 38.02,16.887 C36.7797861,16.2631958 35.3894267,15.9998833 34.007,16.127 L33.08,18.351 C32.9462997,18.6862061 32.6423602,18.9233691 32.2847067,18.9715647 C31.9270532,19.0197604 31.5711773,18.8715109 31.3535159,18.5836527 C31.1358545,18.2957944 31.0901788,17.9129899 31.234,17.582 L32.384,14.821 C32.5188047,14.5010731 32.8098946,14.2739548 33.153,14.221 C35.4597935,13.8519691 37.8220879,14.3338815 39.8,15.577 C40.2255899,15.8306632 40.401274,16.3577155 40.213,16.816 C39.7416667,17.962 39.2683333,19.1076667 38.793,20.253 L37.922,22.358 C37.7674151,22.731983 37.4026724,22.9759343 36.998,22.976 L37,22.976 Z" id="Shape" fill="#000000"/><path d="M46.425,15.9 C46.1662857,15.9002754 45.917533,15.8002725 45.731,15.621 C44.3338485,14.1593475 42.7744216,12.86195 41.083,11.754 C40.6542619,11.5009772 40.4769327,10.9711209 40.667,10.511 L42.967,4.967 C43.0777504,4.69936321 43.299104,4.49289432 43.5737908,4.40101236 C43.8484775,4.30913041 44.1495089,4.34086298 44.399,4.488 C46.2244357,5.67313471 47.9077884,7.06390552 49.416,8.633 C49.7134325,8.91924697 49.8058111,9.3581444 49.649,9.74 L47.349,15.283 C47.2233831,15.5900486 46.9536673,15.8148118 46.629,15.883 C46.5618194,15.8960604 46.4934156,15.9017607 46.425,15.9 Z M42.836,10.5 C43.9804455,11.3018436 45.0585842,12.1943846 46.06,13.169 L47.536,9.606 C46.5398416,8.61256177 45.4748668,7.69060837 44.349,6.847 L42.836,10.5 Z" id="Shape" fill="#000000"/><path d="M44.129,21.445 C43.8701462,21.4450067 43.6213747,21.3446378 43.435,21.165 C42.037397,19.7040202 40.4776402,18.4072983 38.786,17.3 C38.3571269,17.0465812 38.1801747,16.516151 38.371,16.056 L40.671,10.513 C40.7819508,10.2455375 41.0033893,10.0392995 41.2780537,9.94761684 C41.5527181,9.85593417 41.8536384,9.88780942 42.103,10.035 C43.9298427,11.220614 45.6142462,12.6124279 47.123,14.183 C47.4179276,14.4678404 47.5090943,14.903855 47.353,15.283 L45.053,20.826 C44.8984151,21.199983 44.5336724,21.4439343 44.129,21.444 L44.129,21.445 Z M40.54,16.045 C41.6842523,16.847097 42.7623713,17.7396217 43.764,18.714 L45.24,15.151 C44.244023,14.1576742 43.1790321,13.236041 42.053,12.393 L40.54,16.045 Z" id="Shape" fill="#000000"/><path d="M41.833,26.988 C41.5741462,26.9880067 41.3253747,26.8876378 41.139,26.708 C39.741756,25.246344 38.1819579,23.9492523 36.49,22.842 C36.0611269,22.5885812 35.8841747,22.058151 36.075,21.598 L38.375,16.054 C38.4859508,15.7865375 38.7073893,15.5802995 38.9820537,15.4886168 C39.2567181,15.3969342 39.5576384,15.4288094 39.807,15.576 C41.6338117,16.7620406 43.3182049,18.1541815 44.827,19.725 C45.1219276,20.0098404 45.2130943,20.445855 45.057,20.825 L42.757,26.368 C42.631576,26.6747951 42.3622898,26.8995124 42.038,26.968 C41.9705196,26.9815871 41.9018341,26.9882881 41.833,26.988 Z M38.244,21.588 C39.388266,22.3904469 40.4663837,23.2833049 41.468,24.258 L42.944,20.695 C41.9464587,19.702977 40.8812296,18.7814268 39.756,17.937 L38.244,21.588 Z" id="Shape" fill="#000000"/><path d="M51.259,19.909 C51.0802883,19.9088918 50.9048708,19.8608937 50.751,19.77 C48.9255643,18.5848653 47.2422116,17.1940945 45.734,15.625 C45.4354543,15.3397871 45.3428923,14.9004156 45.501,14.519 L47.801,8.975 C47.9276138,8.66944457 48.1971212,8.44626006 48.5209217,8.37881829 C48.8447222,8.31137653 49.1809237,8.40840289 49.419,8.638 C50.8149506,10.0979057 52.3730434,11.3936323 54.063,12.5 C54.4927559,12.7531759 54.6702335,13.2843289 54.479,13.745 L52.179,19.288 C52.0679706,19.5553051 51.8465669,19.7613892 51.572,19.853 C51.4713925,19.8885119 51.3656793,19.9074254 51.259,19.909 Z M47.61,14.653 C48.6071208,15.646548 49.6731009,16.5685038 50.8,17.412 L52.31,13.76 C51.165773,12.9575019 50.0876593,12.0646472 49.086,11.09 L47.61,14.653 Z" id="Shape" fill="#000000"/><path d="M48.963,25.452 C48.7842883,25.4518918 48.6088708,25.4038937 48.455,25.313 C46.6279419,24.1276795 44.9435062,22.7358389 43.435,21.165 C43.1400724,20.8801596 43.0489057,20.444145 43.205,20.065 L45.505,14.522 C45.6315119,14.2166657 45.9007176,13.993562 46.2242317,13.9259381 C46.5477457,13.8583143 46.883777,13.9549059 47.122,14.184 C48.5194484,15.6458312 50.0795985,16.9429365 51.772,18.05 C52.2008731,18.3034188 52.3778253,18.833849 52.187,19.294 L49.887,24.838 C49.7759706,25.1053051 49.5545669,25.3113892 49.28,25.403 C49.1777247,25.436562 49.0706355,25.4531152 48.963,25.452 Z M45.314,20.2 C46.3100118,21.1922913 47.3746434,22.1132344 48.5,22.956 L50.014,19.3 C48.869734,18.4975531 47.7916163,17.6046951 46.79,16.63 L45.314,20.2 Z" id="Shape" fill="#000000"/><path d="M46.667,31 C46.4878094,31.0001136 46.3119271,30.9517374 46.158,30.86 C44.332841,29.6749027 42.6498155,28.2841251 41.142,26.715 C40.8434543,26.4297871 40.7508923,25.9904156 40.909,25.609 L43.209,20.066 C43.3356138,19.7604446 43.6051212,19.5372601 43.9289217,19.4698183 C44.2527222,19.4023765 44.5889237,19.4994029 44.827,19.729 C46.2242858,21.1906112 47.7840785,22.4876984 49.476,23.595 C49.9048731,23.8484188 50.0818253,24.378849 49.891,24.839 L47.591,30.382 C47.4364151,30.755983 47.0716724,30.9999343 46.667,31 Z M43.018,25.74 C44.0141244,26.7337825 45.0791,27.6560707 46.205,28.5 L47.718,24.847 C46.5735545,24.0451564 45.4954158,23.1526154 44.494,22.178 L43.018,25.74 Z" id="Shape" fill="#000000"/><path d="M55.861,21.247 C54.0544809,21.2302281 52.2869894,20.7194504 50.75,19.77 C50.3211269,19.5165812 50.1441747,18.986151 50.335,18.526 L52.635,12.983 C52.7457504,12.7153632 52.967104,12.5088943 53.2417908,12.4170124 C53.5164775,12.3251304 53.8175089,12.356863 54.067,12.504 C55.2689651,13.2546525 56.6503213,13.6690594 58.067,13.704 C58.713588,13.7145107 59.3129074,14.0448855 59.667,14.586 C60.0360107,15.1451326 60.1038095,15.8508396 59.848,16.47 L58.169,20.52 C58.03557,20.8418651 57.7442277,21.0710745 57.4,21.125 C56.8909197,21.2053437 56.3763806,21.2461324 55.861,21.247 Z M52.529,18.457 C53.7701301,19.0801646 55.1610384,19.3431035 56.544,19.216 L58,15.7 C56.6341262,15.6754122 55.2898576,15.3546984 54.06,14.76 L52.529,18.457 Z" id="Shape" fill="#000000"/><path d="M53.565,26.791 C51.7585845,26.7747128 49.9912009,26.2635204 48.455,25.313 C48.0261269,25.0595812 47.8491747,24.529151 48.04,24.069 L50.34,18.526 C50.45091,18.2582473 50.6725261,18.0517809 50.9474492,17.9600759 C51.2223724,17.8683709 51.5235585,17.9004483 51.773,18.048 C53.3532213,19.0520891 55.2461992,19.4433472 57.095,19.148 C57.452439,19.0918053 57.8123531,19.233079 58.036128,19.517412 C58.2599028,19.8017451 58.312629,20.1847808 58.174,20.519 L55.874,26.062 C55.7391953,26.3819269 55.4481054,26.6090452 55.105,26.662 C54.5958322,26.745224 54.0809177,26.7883565 53.565,26.791 Z M50.233,24 C51.4741,24.6233044 52.8649544,24.8865794 54.248,24.76 L55.7,21.246 C54.3342227,21.2181394 52.9903168,20.8975934 51.759,20.306 L50.233,24 Z" id="Shape" fill="#000000"/><path d="M51.265,32.333 C49.4600246,32.3173501 47.6939324,31.8068229 46.159,30.857 C45.7297533,30.6039004 45.55235,30.0733962 45.743,29.613 L48.043,24.069 C48.1539508,23.8015375 48.3753893,23.5952995 48.6500537,23.5036168 C48.9247181,23.4119342 49.2256384,23.4438094 49.475,23.591 C51.054832,24.5960496 52.9481758,24.9873834 54.797,24.691 C55.154439,24.6348053 55.5143531,24.776079 55.738128,25.060412 C55.9619028,25.3447451 56.014629,25.7277808 55.876,26.062 L53.805,31.062 C53.5281433,31.7454789 52.894888,32.2188796 52.161,32.291 C51.857,32.32 51.56,32.333 51.265,32.333 Z M47.937,29.543 C49.1760819,30.1680281 50.566156,30.4314179 51.948,30.303 L53.406,26.789 C52.0408959,26.7608853 50.6976952,26.4403449 49.467,25.849 L47.937,29.543 Z" id="Shape" fill="#000000"/><path d="M20.465,43.956 C20.0752532,43.9561107 19.68928,43.8796636 19.329,43.731 C17.802319,43.0894232 17.0760018,41.3389498 17.7,39.805 L25.781,20.313 C25.9925251,19.8026889 26.5776889,19.5604749 27.088,19.772 C27.5983111,19.9835251 27.8405251,20.5686889 27.629,21.079 L19.549,40.569 C19.4128818,40.9000066 19.4636933,41.2784875 19.6822943,41.5618726 C19.9008953,41.8452577 20.2540751,41.990494 20.6087943,41.9428726 C20.9635135,41.8952511 21.2658818,41.6620066 21.402,41.331 L29.071,22.813 C29.2825251,22.3026889 29.8676889,22.0604749 30.378,22.272 C30.8883111,22.4835251 31.1305251,23.0686889 30.919,23.579 L23.254,42.1 C22.7828417,43.2237971 21.6835687,43.955332 20.465,43.956 Z" id="Shape" fill="#000000"/><path d="M32.16,18.967 C31.8255582,18.9670279 31.5132424,18.7998648 31.3277739,18.5215615 C31.1423053,18.2432582 31.1082399,17.8906619 31.237,17.582 L36.706,4.382 C36.7613266,4.26225006 36.7899871,4.13191318 36.79,4 C36.7857085,3.59678275 36.5396595,3.23559544 36.166,3.084 C35.9225797,2.98098326 35.6480309,2.97979982 35.4037316,3.08071424 C35.1594322,3.18162867 34.9657556,3.37622519 34.866,3.621 L30.925,13.133 C30.7134749,13.6433111 30.1283111,13.8855251 29.618,13.674 C29.1076889,13.4624749 28.8654749,12.8773111 29.077,12.367 L33.017,2.858 C33.5631914,1.53493145 34.9680069,0.782015844 36.3721722,1.0597842 C37.7763374,1.33755257 38.7886855,2.56862525 38.79,4 C38.7914416,4.40417171 38.707973,4.80413968 38.545,5.174 L33.083,18.351 C32.9279323,18.7238624 32.5638222,18.9668655 32.16,18.967 Z" id="Shape" fill="#000000"/><path d="M27.84,18.971 C27.2877153,18.971 26.84,18.5232847 26.84,17.971 L26.84,17.961 C26.84,17.4087153 27.2877153,16.961 27.84,16.961 C28.3922847,16.961 28.84,17.4087153 28.84,17.961 C28.84,18.5132847 28.3922847,18.961 27.84,18.961 L27.84,18.971 Z" id="Shape" fill="#000000"/><path d="M18.409,11.894 C18.0043276,11.8939343 17.6395849,11.649983 17.485,11.276 L15.185,5.733 C14.99435,5.27260381 15.1717533,4.74209956 15.601,4.489 C17.5818092,3.25131216 19.942921,2.77049619 22.25,3.135 C22.5942277,3.18892547 22.88557,3.41813492 23.019,3.74 L25.319,9.284 C25.4571323,9.61811386 25.4041636,10.0007692 25.1804657,10.2847971 C24.9567678,10.568825 24.5971802,10.7099899 24.24,10.654 C22.3908382,10.3567974 20.4968921,10.7481821 18.917,11.754 C18.7632283,11.8452439 18.5878044,11.893589 18.409,11.894 Z M17.383,5.8 L18.913,9.494 C20.1443585,8.90252425 21.4882386,8.58198448 22.854,8.554 L21.4,5.043 C20.016544,4.91446777 18.6247821,5.17674404 17.383,5.8 Z" id="Shape" fill="#000000"/><path d="M20.706,17.437 C20.3015709,17.4371018 19.9368963,17.1935907 19.782,16.82 L17.482,11.277 C17.29135,10.8166038 17.4687533,10.2860996 17.898,10.033 C19.8781691,8.79368862 22.2397696,8.31241796 24.547,8.678 C24.8912277,8.73192547 25.18257,8.96113492 25.316,9.283 L27.616,14.826 C27.7561253,15.1605328 27.7041301,15.5447135 27.4801229,15.8299644 C27.2561158,16.1152154 26.895217,16.2568145 26.537,16.2 C24.6878571,15.9036472 22.7942116,16.2949698 21.214,17.3 C21.0599316,17.3901939 20.8845266,17.437498 20.706,17.437 Z M19.679,11.346 L21.209,15.04 C22.4402091,14.4491033 23.7836365,14.1285902 25.149,14.1 L23.694,10.586 C22.3110164,10.460708 20.9205128,10.7239167 19.679,11.346 Z" id="Shape" fill="#000000"/><path d="M23,22.98 C22.8926254,22.9799053 22.7859527,22.9626891 22.684,22.929 C22.4092316,22.837167 22.1877934,22.630686 22.077,22.363 L19.777,16.82 C19.5861747,16.359849 19.7631269,15.8294188 20.192,15.576 C22.1721691,14.3366886 24.5337696,13.855418 26.841,14.221 C27.1852277,14.2749255 27.47657,14.5041349 27.61,14.826 L29.91,20.37 C30.0479856,20.70393 29.9951056,21.0863249 29.7716754,21.370276 C29.5482453,21.6542271 29.1890174,21.7955687 28.832,21.74 C26.9828593,21.4437415 25.089247,21.8350572 23.509,22.84 C23.3549363,22.9314164 23.1791439,22.9797679 23,22.98 Z M21.974,16.89 L23.504,20.583 C24.7355814,19.9922809 26.0793675,19.6721045 27.445,19.644 L25.99,16.129 C24.606798,16.0014326 23.2155841,16.2651222 21.975,16.89 L21.974,16.89 Z" id="Shape" fill="#000000"/><path d="M13.575,15.9 C13.507775,15.9001565 13.4407264,15.8931164 13.375,15.879 C13.0503327,15.8108118 12.7806169,15.5860486 12.655,15.279 L10.355,9.736 C10.1989057,9.35685504 10.2900724,8.92084038 10.585,8.636 C12.0937831,7.06516852 13.7781778,5.67302636 15.605,4.487 C15.8544911,4.33986298 16.1555225,4.30813041 16.4302092,4.40001236 C16.704896,4.49189432 16.9262496,4.69836321 17.037,4.966 L19.337,10.51 C19.5270673,10.9701209 19.3497381,11.4999772 18.921,11.753 C17.2295784,12.86095 15.6701515,14.1583475 14.273,15.62 C14.0856302,15.8006011 13.8352367,15.9010455 13.575,15.9 Z M12.464,9.605 L13.94,13.168 C14.941454,12.1937302 16.0195917,11.3015245 17.164,10.5 L15.651,6.847 C14.5251665,7.69064973 13.4601946,8.61260068 12.464,9.606 L12.464,9.605 Z" id="Shape" fill="#000000"/><path d="M15.871,21.445 C15.4663276,21.4449343 15.1015849,21.200983 14.947,20.827 L12.647,15.284 C12.4909057,14.904855 12.5820724,14.4688404 12.877,14.184 C14.3857538,12.6134279 16.0701573,11.221614 17.897,10.036 C18.1463616,9.88880942 18.4472819,9.85693417 18.7219463,9.94861684 C18.9966107,10.0402995 19.2180492,10.2465375 19.329,10.514 L21.629,16.057 C21.8198253,16.517151 21.6428731,17.0475812 21.214,17.301 C19.5222545,18.4089233 17.9624934,19.7063198 16.565,21.168 C16.3781512,21.3465421 16.1294359,21.4458132 15.871,21.445 Z M14.76,15.145 L16.236,18.708 C17.2376287,17.7336217 18.3157477,16.841097 19.46,16.039 L17.947,12.387 C16.8208347,13.2313244 15.7558405,14.1542971 14.76,15.149 L14.76,15.145 Z" id="Shape" fill="#000000"/><path d="M18.167,26.988 C18.0998033,26.9876246 18.0328092,26.9805903 17.967,26.967 C17.6427102,26.8985124 17.373424,26.6737951 17.248,26.367 L14.948,20.824 C14.7919057,20.444855 14.8830724,20.0088404 15.178,19.724 C16.6867951,18.1531815 18.3711883,16.7610406 20.198,15.575 C20.4473616,15.4278094 20.7482819,15.3959342 21.0229463,15.4876168 C21.2976107,15.5792995 21.5190492,15.7855375 21.63,16.053 L23.93,21.597 C24.1208253,22.057151 23.9438731,22.5875812 23.515,22.841 C21.8230421,23.9482523 20.263244,25.245344 18.866,26.707 C18.6785411,26.8882084 18.4277225,26.9890381 18.167,26.988 Z M17.056,20.693 L18.532,24.256 C19.5336163,23.2813049 20.611734,22.3884469 21.756,21.586 L20.244,17.935 C19.1187704,18.7794268 18.0535413,19.700977 17.056,20.693 Z" id="Shape" fill="#000000"/><path d="M8.741,19.909 C8.63319829,19.9091481 8.52610486,19.8915807 8.424,19.857 C8.14943306,19.7653892 7.92802941,19.5593051 7.817,19.292 L5.517,13.749 C5.32411831,13.2862464 5.50370502,12.7521898 5.937,12.5 C7.62743702,11.3934871 9.18588156,10.0974114 10.582,8.637 C10.8196318,8.40589039 11.1563445,8.30755562 11.4810067,8.37445086 C11.805669,8.4413461 12.0760833,8.66477674 12.203,8.971 L14.503,14.515 C14.6590943,14.894145 14.5679276,15.3301596 14.273,15.615 C12.7639333,17.1852348 11.0795705,18.5770151 9.253,19.763 C9.09866236,19.8570395 8.9217243,19.9074945 8.741,19.909 Z M7.69,13.76 L9.2,17.412 C10.3258335,16.5683503 11.3908054,15.6463993 12.387,14.653 L10.914,11.09 C9.91217208,12.0644594 8.83407391,12.9573013 7.69,13.76 Z" id="Shape" fill="#000000"/><path d="M11.037,25.452 C10.9291983,25.4521481 10.8221049,25.4345807 10.72,25.4 C10.4454331,25.3083892 10.2240294,25.1023051 10.113,24.835 L7.813,19.291 C7.62217472,18.830849 7.79912691,18.3004188 8.228,18.047 C9.91914148,16.9410288 11.4779765,15.6449074 12.874,14.184 C13.1117727,13.9529438 13.448606,13.8547572 13.773291,13.9218574 C14.097976,13.9889576 14.3682953,14.21262 14.495,14.519 L16.795,20.062 C16.9510943,20.441145 16.8599276,20.8771596 16.565,21.162 C15.0564938,22.7328389 13.3720581,24.1246795 11.545,25.31 C11.3914268,25.4019445 11.2159902,25.4509839 11.037,25.452 Z M9.986,19.3 L11.5,22.956 C12.6253566,22.1132344 13.6899882,21.1922913 14.686,20.2 L13.21,16.633 C12.2083151,17.6067096 11.1301964,18.4985653 9.986,19.3 Z" id="Shape" fill="#000000"/><path d="M13.333,31 C12.9283276,30.9999343 12.5635849,30.755983 12.409,30.382 L10.109,24.839 C9.91817472,24.378849 10.0951269,23.8484188 10.524,23.595 C12.2159215,22.4876984 13.7757142,21.1906112 15.173,19.729 C15.4110763,19.4994029 15.7472778,19.4023765 16.0710783,19.4698183 C16.3948788,19.5372601 16.6643862,19.7604446 16.791,20.066 L19.091,25.609 C19.2470943,25.988145 19.1559276,26.4241596 18.861,26.709 C17.3523294,28.2792654 15.6682938,29.6710526 13.842,30.857 C13.6883738,30.9497888 13.5124719,30.9992072 13.333,31 Z M12.282,24.85 L13.8,28.5 C14.9258002,27.656309 15.9907693,26.7343605 16.987,25.741 L15.511,22.178 C14.5079512,23.152481 13.4281351,24.0446921 12.282,24.846 L12.282,24.85 Z" id="Shape" fill="#000000"/><path d="M4.139,21.247 C3.62361942,21.2461324 3.10908033,21.2053437 2.6,21.125 C2.25577226,21.0710745 1.96443,20.8418651 1.831,20.52 L0.153,16.469 C-0.102809485,15.8498396 -0.0350106655,15.1441326 0.334,14.585 C0.688092634,14.0438855 1.287412,13.7135107 1.934,13.703 C3.35067094,13.6680106 4.73201453,13.2536076 5.934,12.503 C6.18349109,12.355863 6.48452245,12.3241304 6.7592092,12.4160124 C7.03389595,12.5078943 7.2552496,12.7143632 7.366,12.982 L9.666,18.525 C9.85723353,18.9856711 9.67975591,19.5168241 9.25,19.77 C7.71301056,20.7194504 5.94551911,21.2302281 4.139,21.247 Z M3.45,19.216 C4.83488587,19.3428963 6.22766324,19.079997 7.471,18.457 L5.941,14.763 C4.69790024,15.3624121 3.33892766,15.6832142 1.959,15.703 L3.45,19.216 Z" id="Shape" fill="#000000"/><path d="M6.435,26.791 C5.92090919,26.7900795 5.4076777,26.7489541 4.9,26.668 C4.55689458,26.6150452 4.26580469,26.3879269 4.131,26.068 L1.831,20.525 C1.68987227,20.1902599 1.74137717,19.8053131 1.9655403,19.519448 C2.18970343,19.2335829 2.55126274,19.0917675 2.91,19.149 C4.7587965,19.4441592 6.65170809,19.0529148 8.232,18.049 C8.48144146,17.9014483 8.78262759,17.8693709 9.05755076,17.9610759 C9.33247393,18.0527809 9.55408996,18.2592473 9.665,18.527 L11.965,24.07 C12.1558253,24.530151 11.9788731,25.0605812 11.55,25.314 C10.0121855,26.2649055 8.24299969,26.775773 6.435,26.791 Z M5.752,24.76 C7.13504561,24.8865794 8.52590003,24.6233044 9.767,24 L8.237,20.306 C7.00568322,20.8975934 5.66177728,21.2181394 4.296,21.246 L5.752,24.76 Z" id="Shape" fill="#000000"/><path d="M8.735,32.333 C8.44033333,32.333 8.143,32.3193333 7.843,32.292 C7.10948473,32.2195253 6.47669232,31.7461827 6.2,31.063 L4.129,26.063 C3.99037097,25.7287808 4.04309716,25.3457451 4.26687202,25.061412 C4.49064687,24.777079 4.85056104,24.6358053 5.208,24.692 C7.05681992,24.9881947 8.9500971,24.5968747 10.53,23.592 C10.7793616,23.4448094 11.0802819,23.4129342 11.3549463,23.5046168 C11.6296107,23.5962995 11.8510492,23.8025375 11.962,24.07 L14.262,29.614 C14.45265,30.0743962 14.2752467,30.6049004 13.846,30.858 C12.309454,31.8082084 10.5415594,32.3184108 8.735,32.333 Z M6.593,26.789 L8.046,30.3 L8.026,30.3 C9.41614725,30.4314352 10.8152106,30.1687426 12.063,29.542 L10.533,25.848 C9.302066,26.4398 7.95851237,26.7606843 6.593,26.789 Z" id="Shape" fill="#000000"/><path d="M39.521,43.957 C39.127055,43.9563236 38.7370532,43.8785271 38.373,43.728 C37.6358516,43.4241747 37.051011,42.8378936 36.749,42.1 L21.442,5.149 C21.0311446,4.15883842 21.1797434,3.02470262 21.8318208,2.17381059 C22.4838982,1.32291856 23.540388,0.88454104 24.6033208,1.02381059 C25.6662536,1.16308015 26.5741446,1.85883842 26.985,2.849 L42.292,39.808 C42.6757991,40.7336758 42.57207,41.7898588 42.0155174,42.6231814 C41.4589647,43.456504 40.5230865,43.9569182 39.521,43.957 Z M24.213,3 C24.081788,2.99975473 23.9518709,3.02594221 23.831,3.077 C23.3211428,3.28842666 23.0790025,3.87296507 23.29,4.383 L38.6,41.338 C38.8114267,41.8478572 39.3959651,42.0899975 39.906,41.879 C40.4154668,41.6671834 40.6571124,41.082759 40.446,40.573 L25.137,3.618 C24.9824151,3.24401701 24.6176724,3.00006569 24.213,3 Z" id="Shape" fill="#000000"/></g></g></svg>
