<?xml version="1.0" encoding="iso-8859-1"?>
<!-- Generator: Adobe Illustrator 19.0.0, SVG Export Plug-In . SVG Version: 6.00 Build 0)  -->
<svg version="1.1" id="Layer_1" xmlns="http://www.w3.org/2000/svg" xmlns:xlink="http://www.w3.org/1999/xlink" x="0px" y="0px"
	 viewBox="0 0 512 512" style="enable-background:new 0 0 512 512;" xml:space="preserve">
<path style="fill:#C8EBFA;" d="M356.474,225.751L307.7,122.104c-4.98-10.582-7.562-22.133-7.562-33.828V35.31h-88.276v53.009
	c0,11.699-2.583,23.253-7.566,33.837l-48.762,103.588c-9.412,19.993-14.292,41.819-14.292,63.915v187.03
	c0,19.501,15.809,35.31,35.31,35.31h158.897c19.501,0,35.31-15.809,35.31-35.31V289.651
	C370.759,267.559,365.881,245.74,356.474,225.751z"/>
<path style="fill:#A8D8F2;" d="M300.138,35.31h-88.276c-9.751,0-17.655-7.904-17.655-17.655l0,0C194.207,7.904,202.111,0,211.862,0
	h88.276c9.751,0,17.655,7.904,17.655,17.655l0,0C317.793,27.406,309.889,35.31,300.138,35.31z"/>
<path style="fill:#B4E1F5;" d="M300.138,35.31h-33.952h-54.324v26.483v26.526c0,11.699-2.583,23.253-7.566,33.837l-48.762,103.588
	c-9.412,19.993-14.292,41.819-14.292,63.915v187.03c0,19.501,15.809,35.31,35.31,35.31h62.472c-15,0-27.161-15.809-27.161-35.31
	V289.66c0-22.098,3.754-43.923,10.994-63.915l37.51-103.588c3.833-10.584,5.821-22.138,5.821-33.837V61.793h33.952V35.31z"/>
<path style="fill:#FFFFFF;" d="M335.448,485.517H176.552c-4.875,0-8.828-3.953-8.828-8.828V282.483c0-4.875,3.953-8.828,8.828-8.828
	h158.897c4.875,0,8.828,3.953,8.828,8.828V476.69C344.276,481.565,340.323,485.517,335.448,485.517z"/>
<path style="fill:#F5FCFF;" d="M211.862,289.66c0-5.373,0.362-10.699,0.852-16.004h-36.162c-4.875,0-8.828,3.953-8.828,8.828V476.69
	c0,4.875,3.953,8.828,8.828,8.828h36.271c-0.565-2.837-0.961-5.761-0.961-8.828V289.66z"/>
<path style="fill:#FFE6A1;" d="M370.759,467.862H203.034c-4.875,0-8.828-3.953-8.828-8.828V300.138c0-4.875,3.953-8.828,8.828-8.828
	h167.724V467.862z"/>
<path style="fill:#9BCDEB;" d="M247.172,17.655C247.172,7.904,255.078,0,264.828,0h-52.966c-9.75,0-17.655,7.904-17.655,17.655
	c0,9.75,7.905,17.655,17.655,17.655h52.966C255.078,35.31,247.172,27.405,247.172,17.655z"/>
<path style="fill:#FFD796;" d="M202.73,291.31c-4.875,0-8.828,3.953-8.828,8.828v158.897c0,4.875,3.953,8.828,8.828,8.828h35.31
	V298.487c0-2.403,0.216-4.782,0.305-7.177H202.73z"/>
<g>
	<path style="fill:#69BEFF;" d="M291.31,432.552c-4.875,0-8.828-3.948-8.828-8.828v-67.948l-19.138,28.707
		c-3.276,4.914-11.414,4.914-14.69,0l-19.137-28.707v67.948c0,4.879-3.953,8.828-8.828,8.828s-8.828-3.948-8.828-8.828v-84.561
		c0-5.603,3.604-10.465,8.97-12.086c5.375-1.603,11.057,0.423,14.164,5.095l21.004,31.5l21.009-31.509
		c3.107-4.664,8.793-6.698,14.159-5.086c5.366,1.621,8.97,6.483,8.97,12.086v84.561C300.138,428.604,296.185,432.552,291.31,432.552
		z"/>
	<path style="fill:#69BEFF;" d="M326.621,432.552c-4.875,0-8.828-3.948-8.828-8.828v-88.276c0-4.879,3.953-8.828,8.828-8.828
		s8.828,3.948,8.828,8.828v88.276C335.448,428.604,331.496,432.552,326.621,432.552z"/>
	<path style="fill:#69BEFF;" d="M370.759,414.897L370.759,414.897v-79.448c0-4.879-3.953-8.828-8.828-8.828
		s-8.828,3.948-8.828,8.828v79.448c0,9.732,7.918,17.655,17.655,17.655l0,0V414.897z"/>
</g>
<g>
</g>
<g>
</g>
<g>
</g>
<g>
</g>
<g>
</g>
<g>
</g>
<g>
</g>
<g>
</g>
<g>
</g>
<g>
</g>
<g>
</g>
<g>
</g>
<g>
</g>
<g>
</g>
<g>
</g>
</svg>
