<?xml version="1.0" encoding="iso-8859-1"?>
<!-- Generator: Adobe Illustrator 19.0.0, SVG Export Plug-In . SVG Version: 6.00 Build 0)  -->
<svg version="1.1" id="Layer_1" xmlns="http://www.w3.org/2000/svg" xmlns:xlink="http://www.w3.org/1999/xlink" x="0px" y="0px"
	 viewBox="0 0 512.002 512.002" style="enable-background:new 0 0 512.002 512.002;" xml:space="preserve">
<path style="fill:#E07188;" d="M378.927,109.006c-3.666-10.998-6.563-19.687-6.561-39.18c0-19.498,2.895-28.187,6.561-39.189
	c0.016-0.045,0.023-0.092,0.037-0.135c0.168-0.515,0.306-1.043,0.438-1.575c0.062-0.244,0.135-0.487,0.188-0.731
	c0.088-0.408,0.147-0.825,0.214-1.241c0.061-0.379,0.13-0.756,0.172-1.134c0.031-0.284,0.039-0.572,0.06-0.86
	c0.036-0.509,0.073-1.018,0.076-1.525c0.002-0.054,0.009-0.107,0.009-0.161c0-0.203-0.025-0.4-0.031-0.602
	c-0.014-0.517-0.031-1.032-0.079-1.544c-0.029-0.326-0.079-0.645-0.123-0.967c-0.056-0.417-0.11-0.835-0.189-1.247
	c-0.078-0.402-0.175-0.796-0.273-1.19c-0.079-0.323-0.155-0.644-0.247-0.962c-0.129-0.444-0.279-0.875-0.433-1.306
	c-0.096-0.265-0.186-0.532-0.292-0.794c-0.175-0.441-0.371-0.87-0.573-1.297c-0.118-0.251-0.233-0.501-0.36-0.748
	c-0.209-0.405-0.434-0.797-0.666-1.187c-0.157-0.264-0.31-0.526-0.476-0.784c-0.225-0.348-0.464-0.681-0.706-1.015
	c-0.206-0.285-0.413-0.568-0.63-0.844c-0.23-0.287-0.47-0.563-0.712-0.839c-0.258-0.296-0.518-0.59-0.793-0.873
	c-0.236-0.242-0.483-0.475-0.729-0.707c-0.299-0.284-0.6-0.565-0.915-0.833c-0.264-0.223-0.537-0.431-0.808-0.644
	c-0.313-0.244-0.627-0.487-0.956-0.715c-0.324-0.227-0.661-0.434-0.998-0.644c-0.292-0.182-0.579-0.366-0.88-0.535
	c-0.424-0.239-0.861-0.453-1.3-0.666c-0.236-0.113-0.464-0.233-0.703-0.34c-0.534-0.236-1.08-0.441-1.634-0.636
	c-0.14-0.05-0.27-0.115-0.413-0.161c-0.037-0.012-0.076-0.02-0.115-0.031c-0.546-0.178-1.106-0.326-1.669-0.464
	c-0.213-0.053-0.422-0.118-0.635-0.164c-0.441-0.095-0.891-0.16-1.34-0.23c-0.344-0.054-0.687-0.119-1.032-0.158
	c-0.32-0.034-0.644-0.045-0.967-0.067c-0.472-0.033-0.943-0.068-1.413-0.071c-0.062,0-0.121-0.009-0.185-0.009H256.007H155.156
	c-10.018,0-18.911,6.412-22.078,15.917c-4.197,12.587-8.952,26.855-8.952,53.903c-0.002,27.047,4.754,41.313,8.952,53.902
	c3.666,11,6.563,19.69,6.563,39.186c0,19.494-2.897,28.183-6.563,39.183c-4.197,12.589-8.954,26.856-8.952,53.906
	c-0.002,27.049,4.754,41.315,8.952,53.903c3.666,11,6.563,19.69,6.563,39.186l0,0c0,0.002,0,0.002,0,0.003
	c0,19.493-2.897,28.183-6.563,39.184c-4.197,12.589-8.954,26.858-8.952,53.905c0,26.731,4.639,40.967,8.797,53.436
	c0.009,0.026,0.019,0.051,0.028,0.076c0.042,0.129,0.085,0.261,0.129,0.389c0.113,0.338,0.25,0.662,0.375,0.991
	c0.101,0.264,0.189,0.534,0.301,0.793c0.267,0.627,0.563,1.233,0.878,1.825c0.092,0.169,0.194,0.332,0.289,0.5
	c0.261,0.458,0.529,0.906,0.815,1.341c0.105,0.16,0.216,0.315,0.326,0.472c0.307,0.442,0.627,0.87,0.962,1.286
	c0.102,0.13,0.208,0.259,0.315,0.388c0.388,0.461,0.791,0.906,1.212,1.334c0.067,0.068,0.13,0.141,0.199,0.209
	c0.509,0.504,1.035,0.988,1.586,1.441c0.037,0.033,0.079,0.059,0.118,0.092c0.483,0.392,0.979,0.762,1.488,1.112
	c0.203,0.14,0.413,0.27,0.619,0.405c0.358,0.23,0.72,0.453,1.089,0.662c0.254,0.144,0.509,0.285,0.768,0.422
	c0.357,0.186,0.723,0.357,1.089,0.524c0.259,0.118,0.514,0.244,0.777,0.352c0.594,0.245,1.198,0.467,1.814,0.664
	c0.216,0.068,0.436,0.121,0.655,0.183c0.465,0.133,0.934,0.258,1.407,0.362c0.23,0.051,0.462,0.095,0.695,0.138
	c0.524,0.099,1.052,0.178,1.584,0.242c0.168,0.02,0.335,0.043,0.503,0.061c0.732,0.07,1.466,0.118,2.208,0.118
	c0.051,0,0.101-0.006,0.152-0.006h92.784h0.306c2.392-0.016,4.824-0.397,7.214-1.196c0.133-0.045,0.258-0.105,0.391-0.154
	c2.425,0.859,4.997,1.333,7.621,1.348h0.289h92.94c7.481,0,14.508-3.596,18.882-9.666c4.372-6.069,5.562-13.872,3.196-20.97
	c-3.666-10.991-6.561-19.673-6.561-39.178c-0.002-19.494,2.895-28.184,6.561-39.184c4.197-12.589,8.954-26.856,8.954-53.903v-0.002
	v-0.002c0-27.05-4.755-41.318-8.954-53.906c-3.666-10.999-6.563-19.688-6.561-39.183c-0.002-19.496,2.895-28.186,6.561-39.186
	c4.197-12.587,8.954-26.855,8.954-53.9l0,0v-0.002c0,0,0,0,0-0.002l0,0C387.879,135.861,383.123,121.593,378.927,109.006z
	 M255.602,1.201c0.14,0.047,0.27,0.109,0.405,0.158c0.002,0,0.002,0,0.002,0C255.872,1.311,255.742,1.247,255.602,1.201z"/>
<path style="fill:#AE2E08;" d="M255.608,510.801c-2.391,0.797-4.822,1.179-7.214,1.195h15.226c-2.624-0.016-5.198-0.489-7.621-1.348
	C255.866,510.694,255.742,510.756,255.608,510.801z"/>
<g>
	<path style="fill:#E8A240;" d="M248.242,512.002c0.051,0,0.102-0.006,0.152-0.006h-0.306
		C248.139,511.995,248.191,512.002,248.242,512.002z"/>
	<path style="fill:#E8A240;" d="M263.757,512.002c0.051,0,0.102-0.006,0.152-0.006h-0.289
		C263.667,511.995,263.712,512.002,263.757,512.002z"/>
</g>
<path style="fill:#FFA5B5;" d="M285.837,481.36c-3.666-10.991-6.563-19.673-6.563-39.178c-0.002-19.494,2.895-28.184,6.563-39.184
	c4.197-12.589,8.952-26.856,8.952-53.903c0,0,0,0,0-0.002v-0.002c0-27.052-4.755-41.318-8.952-53.906
	c-3.666-10.999-6.563-19.687-6.563-39.183c-0.002-19.496,2.895-28.186,6.563-39.186c4.197-12.587,8.952-26.855,8.952-53.9l0,0
	v-0.002v-0.002v-0.002c0-27.05-4.755-41.316-8.952-53.905c-3.666-10.998-6.563-19.687-6.563-39.18
	c0-19.498,2.895-28.187,6.563-39.189c4.065-12.193-2.526-25.373-14.719-29.436c-5.111-1.704-10.39-1.514-15.108,0.16
	c-0.137-0.05-0.267-0.113-0.406-0.16c-12.185-4.062-25.373,2.526-29.436,14.721c-4.197,12.587-8.952,26.855-8.952,53.903
	c-0.002,27.047,4.754,41.313,8.952,53.902c3.666,11,6.563,19.69,6.563,39.186c0,19.493-2.897,28.183-6.563,39.183
	c-4.197,12.589-8.952,26.858-8.952,53.906c-0.002,27.049,4.754,41.315,8.952,53.903c3.666,11,6.563,19.69,6.563,39.186
	c0,0.002,0,0.002,0,0.002c0,0.002,0,0.002,0,0.002c0,19.494-2.897,28.183-6.563,39.184c-4.197,12.589-8.952,26.858-8.952,53.905
	c0,27.061,4.755,41.322,8.954,53.903c3.235,9.698,12.237,15.844,21.919,15.909h0.306c2.392-0.016,4.824-0.397,7.214-1.195
	c0.133-0.045,0.258-0.105,0.391-0.154c2.425,0.86,4.997,1.333,7.621,1.348h0.289c2.392-0.016,4.824-0.397,7.214-1.195
	C283.316,506.733,289.904,493.553,285.837,481.36z"/>
<path style="fill:#FF3F62;" d="M139.641,349.094c0,19.493-2.897,28.183-6.563,39.184c-4.197,12.589-8.954,26.858-8.952,53.905
	c0,26.731,4.639,40.967,8.797,53.436c0.009,0.026,0.019,0.051,0.028,0.076c0.042,0.129,0.085,0.261,0.129,0.389
	c0.113,0.338,0.25,0.663,0.375,0.991c0.101,0.264,0.189,0.534,0.301,0.793c0.267,0.627,0.563,1.233,0.878,1.825
	c0.092,0.169,0.194,0.332,0.289,0.5c0.261,0.458,0.529,0.906,0.815,1.341c0.105,0.16,0.216,0.315,0.326,0.472
	c0.307,0.442,0.627,0.87,0.962,1.286c0.102,0.13,0.208,0.261,0.315,0.388c0.388,0.461,0.791,0.906,1.212,1.334
	c0.067,0.068,0.13,0.141,0.199,0.209c0.509,0.504,1.035,0.988,1.586,1.441c0.037,0.033,0.079,0.059,0.118,0.092
	c0.481,0.392,0.979,0.762,1.488,1.112c0.203,0.14,0.413,0.27,0.619,0.405c0.358,0.23,0.72,0.453,1.089,0.663
	c0.254,0.144,0.509,0.285,0.768,0.422c0.357,0.186,0.723,0.357,1.089,0.524c0.259,0.118,0.514,0.244,0.777,0.352
	c0.594,0.245,1.198,0.467,1.814,0.664c0.216,0.068,0.436,0.121,0.655,0.183c0.465,0.133,0.934,0.258,1.407,0.362
	c0.23,0.051,0.462,0.095,0.695,0.138c0.524,0.099,1.052,0.178,1.584,0.242c0.168,0.02,0.335,0.043,0.503,0.061
	c0.732,0.07,1.466,0.118,2.208,0.118c0.051,0,0.101-0.006,0.152-0.006h92.784c-9.683-0.064-18.685-6.209-21.919-15.909
	c-4.197-12.581-8.954-26.842-8.954-53.903c-0.002-27.049,4.754-41.316,8.952-53.905c3.666-11.002,6.563-19.69,6.563-39.184
	c0,0,0,0,0-0.002v-0.002c0-19.496-2.897-28.186-6.563-39.186c-4.197-12.587-8.952-26.855-8.952-53.903
	c-0.002-27.049,4.754-41.318,8.952-53.906c3.666-11,6.563-19.69,6.563-39.183c0-19.496-2.897-28.186-6.563-39.186
	c-4.197-12.587-8.952-26.855-8.952-53.902c0-27.049,4.754-41.316,8.952-53.903C230.227,3.727,243.415-2.861,255.6,1.201
	c0.14,0.047,0.27,0.109,0.405,0.158V0.005H155.154c-10.018,0-18.911,6.412-22.078,15.917c-4.197,12.587-8.952,26.855-8.952,53.903
	c-0.002,27.047,4.755,41.313,8.952,53.902c3.666,11,6.563,19.69,6.563,39.186c0,19.493-2.897,28.183-6.563,39.183
	c-4.197,12.589-8.954,26.858-8.952,53.906c-0.002,27.049,4.755,41.315,8.952,53.903c3.666,11,6.563,19.69,6.563,39.186
	c0,0.002,0,0.002,0,0.002C139.641,349.094,139.641,349.094,139.641,349.094z"/>
<g>
</g>
<g>
</g>
<g>
</g>
<g>
</g>
<g>
</g>
<g>
</g>
<g>
</g>
<g>
</g>
<g>
</g>
<g>
</g>
<g>
</g>
<g>
</g>
<g>
</g>
<g>
</g>
<g>
</g>
</svg>
