<?xml version="1.0" encoding="iso-8859-1"?>
<!-- Generator: Adobe Illustrator 18.0.0, SVG Export Plug-In . SVG Version: 6.00 Build 0)  -->
<!DOCTYPE svg PUBLIC "-//W3C//DTD SVG 1.1//EN" "http://www.w3.org/Graphics/SVG/1.1/DTD/svg11.dtd">
<svg version="1.1" id="Capa_1" xmlns="http://www.w3.org/2000/svg" xmlns:xlink="http://www.w3.org/1999/xlink" x="0px" y="0px"
	 viewBox="0 0 54.688 54.688" style="enable-background:new 0 0 54.688 54.688;" xml:space="preserve">
<g>
	<path d="M40.589,33.436c1.319-1.359,1.208-3.614-0.247-5.025c-2.864-2.779-3.082-7.216-0.487-9.891
		c1.319-1.359,1.208-3.614-0.247-5.025c-2.864-2.779-3.082-7.216-0.486-9.892c0.065-0.067,0.136-0.129,0.213-0.183
		c0.811-0.58,1.127-0.937,1.245-1.102c-0.088-0.139-0.234-0.339-0.35-0.495c-0.26-0.352-0.574-0.787-0.858-1.311L34.9,0.579
		c-0.575,0.01-1.104,0.328-1.381,0.831c-0.277,0.505-0.263,1.124,0.038,1.616c0.854,1.398,0.652,3.197-0.492,4.376
		c-2.148,2.215-2.095,5.767,0.12,7.916c1.423,1.381,1.457,3.663,0.076,5.087c-1.042,1.073-1.604,2.487-1.581,3.982
		c0.023,1.494,0.627,2.891,1.7,3.933c1.424,1.381,1.458,3.663,0.077,5.087c-0.331,0.341-0.591,0.721-0.818,1.115
		c-0.939-0.958-1.288-2.37-0.811-3.696c0.506-1.408,0.434-2.928-0.203-4.279c-0.638-1.353-1.764-2.376-3.172-2.882
		c-0.905-0.325-1.629-0.982-2.038-1.851c-0.409-0.869-0.455-1.846-0.13-2.751c1.044-2.904-0.471-6.117-3.374-7.161
		c-1.867-0.671-2.84-2.735-2.169-4.603c0.506-1.408,0.434-2.928-0.203-4.279c-0.638-1.352-1.764-2.375-3.172-2.881L16.978,0
		l-2.875,1.355c1.073,2.086,1.638,4.837,1.036,7.092c-0.552,2.066,0.395,4.121,2.111,4.579c3.377,0.902,5.242,4.946,4.155,9.013
		c-0.552,2.066,0.395,4.12,2.111,4.579c3.378,0.903,5.243,4.946,4.156,9.012c-0.552,2.066,0.395,4.12,2.111,4.579
		c2.385,0.637,4.01,2.843,4.38,5.514c-0.144,0.244-0.308,0.477-0.51,0.685c-1.042,1.073-1.604,2.487-1.581,3.982
		c0.023,1.494,0.627,2.891,1.7,3.933l0.297,0.288l5.492-0.083c-0.158-2.286,0.372-4.748,1.759-6.178
		c1.319-1.359,1.208-3.614-0.247-5.025C38.211,40.548,37.993,36.111,40.589,33.436z"/>
	<path d="M47.809,39.692c-1.423-1.381-1.457-3.663-0.076-5.087c1.042-1.073,1.604-2.487,1.581-3.982
		c-0.023-1.494-0.627-2.891-1.7-3.933c-0.69-0.67-1.079-1.567-1.094-2.527s0.347-1.869,1.017-2.56
		c2.149-2.215,2.096-5.766-0.119-7.915c-0.69-0.67-1.079-1.567-1.094-2.527s0.347-1.869,1.017-2.56
		c2.149-2.215,2.096-5.766-0.119-7.915l-0.297-0.288l-3.594,0.054c1.172,1.843,1.199,3.573-1.738,5.72
		c-1.229,1.366-1.092,3.554,0.331,4.935c2.864,2.779,3.082,7.216,0.486,9.892c-1.318,1.358-1.207,3.613,0.248,5.024
		c2.864,2.779,3.082,7.216,0.486,9.892c-1.319,1.359-1.208,3.613,0.246,5.024c2.864,2.779,3.082,7.216,0.486,9.892
		c-0.653,0.672-0.966,2.222-0.892,3.647l3.084-0.046c0.586-0.009,1.106-0.318,1.391-0.83c0.281-0.508,0.27-1.133-0.031-1.632
		c-0.843-1.396-0.637-3.189,0.501-4.361C50.078,45.394,50.024,41.842,47.809,39.692z"/>
	<path d="M28.815,43.839c-3.378-0.903-5.243-4.946-4.156-9.013c0.552-2.065-0.396-4.119-2.112-4.578
		c-3.378-0.903-5.243-4.946-4.156-9.013c0.552-2.066-0.395-4.121-2.11-4.579c-3.378-0.903-5.243-4.946-4.156-9.013
		c0.339-1.268-0.257-3.49-1.139-4.818l-4.882,2.3C5.583,5.369,5.231,5.877,5.186,6.449C5.14,7.023,5.41,7.583,5.887,7.908
		c1.354,0.921,1.912,2.644,1.356,4.189c-0.506,1.408-0.434,2.928,0.203,4.279c0.638,1.353,1.764,2.376,3.172,2.882
		c0.905,0.325,1.629,0.982,2.038,1.851c0.409,0.869,0.455,1.846,0.13,2.751c-1.043,2.905,0.471,6.117,3.374,7.161
		c1.867,0.671,2.84,2.735,2.169,4.603c-0.506,1.408-0.434,2.928,0.203,4.279c0.638,1.352,1.764,2.375,3.171,2.881
		c1.867,0.671,2.84,2.735,2.169,4.603c-0.506,1.408-0.434,2.928,0.203,4.279c0.638,1.353,1.764,2.376,3.172,2.882l0.39,0.14
		l2.791-1.315c-0.55-1.063-0.497-2.606,0.532-5.09C31.437,46.263,30.494,44.288,28.815,43.839z"/>
</g>
<g>
</g>
<g>
</g>
<g>
</g>
<g>
</g>
<g>
</g>
<g>
</g>
<g>
</g>
<g>
</g>
<g>
</g>
<g>
</g>
<g>
</g>
<g>
</g>
<g>
</g>
<g>
</g>
<g>
</g>
</svg>
