<?xml version="1.0" encoding="iso-8859-1"?>
<!-- Generator: Adobe Illustrator 19.0.0, SVG Export Plug-In . SVG Version: 6.00 Build 0)  -->
<svg version="1.1" id="Layer_1" xmlns="http://www.w3.org/2000/svg" xmlns:xlink="http://www.w3.org/1999/xlink" x="0px" y="0px"
	 viewBox="0 0 512 512" style="enable-background:new 0 0 512 512;" xml:space="preserve">
<path style="fill:#D53349;" d="M46.286,389.928c1.998,52.557,20.099,55.794,20.099,114.468h160.194
	c0-62.101-20.277-62.101-20.277-124.201s20.277-62.1,20.277-124.201c0-62.097-20.277-62.097-20.277-124.194
	c0-62.098,20.277-62.098,20.277-124.196H66.386c0,62.098-20.277,62.098-20.277,124.196c0,62.097,20.277,62.097,20.277,124.194
	c0,58.369-17.915,61.876-20.067,113.653"/>
<path style="fill:#FFE285;" d="M168.803,504.396c0-62.101-20.277-62.101-20.277-124.201s20.277-62.1,20.277-124.201
	c0-62.097-20.277-62.097-20.277-124.194c0-62.098,20.277-62.098,20.277-124.196h-46.642c0,62.098-20.277,62.098-20.277,124.196
	c0,62.097,20.277,62.097,20.277,124.194c0,62.101-20.277,62.101-20.277,124.201s20.277,62.1,20.277,124.201H168.803z"/>
<path style="fill:#D53349;" d="M285.597,389.928c1.998,52.557,20.099,55.794,20.099,114.468H465.89
	c0-62.101-20.277-62.101-20.277-124.201s20.277-62.1,20.277-124.201c0-62.097-20.277-62.097-20.277-124.194
	c0-62.098,20.277-62.098,20.277-124.196H305.697c0,62.098-20.277,62.098-20.277,124.196c0,62.097,20.277,62.097,20.277,124.194
	c0,58.369-17.915,61.876-20.067,113.653"/>
<path style="fill:#FFE285;" d="M408.114,504.396c0-62.101-20.277-62.101-20.277-124.201s20.277-62.1,20.277-124.201
	c0-62.097-20.277-62.097-20.277-124.194c0-62.098,20.277-62.098,20.277-124.196h-46.642c0,62.098-20.277,62.098-20.277,124.196
	c0,62.097,20.277,62.097,20.277,124.194c0,62.101-20.277,62.101-20.277,124.201s20.277,62.1,20.277,124.201H408.114z"/>
<g>
	<path style="fill:#53180F;" d="M114.557,0H58.782v7.604c0,29.839-4.743,44.363-9.763,59.738
		C43.85,83.172,38.504,99.541,38.504,131.8c0,32.258,5.345,48.628,10.514,64.457c5.021,15.375,9.763,29.898,9.763,59.737
		c0,29.841-4.743,44.364-9.763,59.74c-4.545,13.92-9.246,28.316-10.297,53.597l15.194,0.632c0.964-23.185,5.139-35.971,9.56-49.508
		c5.17-15.83,10.515-32.2,10.515-64.46c0-32.258-5.345-48.628-10.514-64.457c-5.021-15.375-9.763-29.898-9.763-59.737
		s4.743-44.363,9.763-59.738c4.745-14.536,9.64-29.526,10.409-56.854h40.562c-0.736,24.819-5.078,38.125-9.653,52.134
		C99.625,83.171,94.28,99.541,94.28,131.8c0,32.258,5.345,48.628,10.514,64.457c5.021,15.375,9.763,29.898,9.763,59.737
		c0,29.841-4.743,44.365-9.763,59.741c-5.169,15.83-10.514,32.201-10.514,64.46s5.345,48.63,10.514,64.46
		c4.575,14.009,8.916,27.314,9.653,52.137H73.885c-0.77-27.33-5.664-42.322-10.41-56.857c-4.469-13.686-8.69-26.614-9.591-50.296
		l-15.196,0.578c0.98,25.805,5.733,40.362,10.329,54.438c5.021,15.376,9.763,29.9,9.763,59.741V512h55.777h61.85h57.776v-7.604
		c0-32.26-5.345-48.631-10.514-64.461c-5.021-15.376-9.763-29.9-9.763-59.74c0-29.84,4.743-44.364,9.763-59.74
		c5.169-15.83,10.514-32.201,10.514-64.461c0-32.258-5.345-48.628-10.514-64.457c-5.021-15.375-9.763-29.898-9.763-59.737
		s4.743-44.363,9.763-59.738c5.169-15.83,10.514-32.199,10.514-64.458V0h-57.776H114.557z M129.662,496.792
		c-0.77-27.33-5.663-42.321-10.41-56.857c-5.021-15.376-9.763-29.9-9.763-59.74c0-29.84,4.743-44.364,9.763-59.74
		c5.17-15.83,10.514-32.201,10.514-64.461c0-32.258-5.344-48.628-10.514-64.457c-5.021-15.375-9.763-29.898-9.763-59.737
		s4.743-44.363,9.763-59.738c4.747-14.536,9.641-29.526,10.41-56.854h31.429c-0.737,24.823-5.079,38.125-9.655,52.134
		c-5.17,15.829-10.514,32.199-10.514,64.458c0,32.258,5.344,48.628,10.514,64.457c5.021,15.375,9.763,29.898,9.763,59.737
		c0,29.841-4.743,44.365-9.763,59.741c-5.17,15.83-10.514,32.201-10.514,64.46s5.344,48.63,10.514,64.46
		c4.576,14.01,8.918,27.311,9.655,52.137L129.662,496.792L129.662,496.792z M218.866,15.208
		c-0.737,24.823-5.079,38.125-9.655,52.134c-5.169,15.83-10.514,32.199-10.514,64.458c0,32.258,5.345,48.628,10.514,64.457
		c5.021,15.375,9.763,29.898,9.763,59.737c0,29.841-4.743,44.365-9.763,59.741c-5.17,15.83-10.514,32.201-10.514,64.46
		s5.344,48.63,10.514,64.46c4.576,14.01,8.918,27.311,9.655,52.137h-42.567c-0.77-27.324-5.66-42.323-10.406-56.857
		c-5.021-15.376-9.763-29.9-9.763-59.74c0-29.84,4.743-44.364,9.763-59.74c5.169-15.83,10.514-32.201,10.514-64.461
		c0-32.258-5.345-48.628-10.514-64.457c-5.021-15.375-9.763-29.898-9.763-59.737s4.743-44.363,9.763-59.738
		c4.746-14.534,9.637-29.532,10.406-56.854L218.866,15.208L218.866,15.208z"/>
	<path style="fill:#53180F;" d="M473.495,7.604V0h-57.776h-61.85h-55.777v7.604c0,29.839-4.743,44.363-9.763,59.738
		c-5.169,15.83-10.514,32.199-10.514,64.458c0,32.258,5.345,48.628,10.514,64.457c5.021,15.375,9.763,29.898,9.763,59.737
		c0,29.841-4.743,44.364-9.763,59.74c-4.545,13.92-9.246,28.316-10.297,53.597l15.194,0.632c0.964-23.185,5.139-35.971,9.56-49.508
		c5.17-15.83,10.515-32.2,10.515-64.46c0-32.258-5.346-48.628-10.514-64.457c-5.021-15.375-9.763-29.898-9.763-59.737
		s4.743-44.363,9.763-59.738c4.746-14.536,9.641-29.526,10.41-56.854h40.562c-0.737,24.819-5.078,38.125-9.653,52.134
		c-5.169,15.829-10.514,32.199-10.514,64.458c0,32.258,5.345,48.628,10.514,64.457c5.021,15.375,9.763,29.898,9.763,59.737
		c0,29.841-4.743,44.365-9.763,59.741c-5.169,15.83-10.514,32.201-10.514,64.46s5.345,48.63,10.514,64.46
		c4.575,14.009,8.916,27.314,9.653,52.137h-40.562c-0.77-27.33-5.664-42.322-10.41-56.857c-4.469-13.686-8.69-26.614-9.591-50.296
		L278,390.217c0.98,25.805,5.733,40.362,10.33,54.438c5.021,15.376,9.763,29.9,9.763,59.741V512h55.777h61.85h57.776v-7.604
		c0-32.26-5.346-48.631-10.514-64.461c-5.021-15.376-9.763-29.9-9.763-59.74c0-29.84,4.743-44.364,9.763-59.74
		c5.169-15.83,10.514-32.201,10.514-64.461c0-32.258-5.346-48.628-10.514-64.457c-5.021-15.375-9.763-29.898-9.763-59.737
		s4.743-44.363,9.763-59.738C468.149,56.232,473.495,39.863,473.495,7.604z M368.973,496.792c-0.77-27.33-5.663-42.321-10.41-56.857
		c-5.021-15.376-9.763-29.9-9.763-59.74c0-29.84,4.743-44.364,9.763-59.74c5.17-15.83,10.514-32.201,10.514-64.461
		c0-32.258-5.345-48.628-10.514-64.457c-5.021-15.375-9.763-29.898-9.763-59.737s4.743-44.363,9.763-59.738
		c4.747-14.536,9.641-29.526,10.41-56.854h31.429c-0.737,24.823-5.079,38.125-9.654,52.134
		c-5.17,15.829-10.514,32.199-10.514,64.458c0,32.258,5.344,48.628,10.514,64.457c5.021,15.375,9.763,29.898,9.763,59.737
		c0,29.841-4.743,44.365-9.763,59.741c-5.17,15.83-10.514,32.201-10.514,64.46s5.344,48.63,10.514,64.46
		c4.576,14.01,8.918,27.311,9.654,52.137L368.973,496.792L368.973,496.792z M448.523,67.342
		c-5.169,15.83-10.514,32.199-10.514,64.458c0,32.258,5.345,48.628,10.514,64.457c5.021,15.375,9.763,29.898,9.763,59.737
		c0,29.841-4.743,44.365-9.763,59.741c-5.17,15.83-10.514,32.201-10.514,64.46s5.344,48.63,10.514,64.46
		c4.576,14.01,8.918,27.311,9.654,52.137H415.61c-0.77-27.324-5.66-42.323-10.406-56.857c-5.021-15.376-9.763-29.9-9.763-59.74
		c0-29.84,4.743-44.364,9.763-59.74c5.169-15.83,10.514-32.201,10.514-64.461c0-32.258-5.345-48.628-10.514-64.457
		c-5.021-15.375-9.763-29.898-9.763-59.737s4.743-44.363,9.763-59.738c4.746-14.534,9.637-29.532,10.406-56.854h42.567
		C457.441,40.031,453.098,53.333,448.523,67.342z"/>
</g>
<g>
</g>
<g>
</g>
<g>
</g>
<g>
</g>
<g>
</g>
<g>
</g>
<g>
</g>
<g>
</g>
<g>
</g>
<g>
</g>
<g>
</g>
<g>
</g>
<g>
</g>
<g>
</g>
<g>
</g>
</svg>
