<?xml version="1.0"?>
<svg xmlns="http://www.w3.org/2000/svg" id="Layer_1" data-name="Layer 1" viewBox="0 0 512 512" width="512" height="512"><title>chart</title><path d="M256,398.81a17.905,17.905,0,1,1-17.91,17.91A17.912,17.912,0,0,1,256,398.81Z" style="fill:#6fe3ff"/><path d="M445,69.44V81.52a4.005,4.005,0,0,1-4,4H71a4.005,4.005,0,0,1-4-4V69.44a4,4,0,0,1,4-4H441A4,4,0,0,1,445,69.44Z" style="fill:#f8ec7d"/><path d="M445,336.21v11.08a4,4,0,0,1-4,4H71a4,4,0,0,1-4-4V336.21a4.005,4.005,0,0,1,4-4H441A4.005,4.005,0,0,1,445,336.21Z" style="fill:#f8ec7d"/><polygon points="424 331.21 424 332.21 89 332.21 89 331.21 89 85.52 424 85.52 424 331.21" style="fill:#e48e66"/><path d="M441,93c6.065,0,11-5.415,11-11.48V69.44C452,63.374,447.065,58,441,58H71c-6.065,0-11,5.374-11,11.44V81.52C60,87.585,64.935,93,71,93H82V325H71a11.2,11.2,0,0,0-11,11.21v11.08A10.769,10.769,0,0,0,71,358H249v34.818a24.91,24.91,0,1,0,14,0V358H441a10.769,10.769,0,0,0,11-10.71V336.21A11.2,11.2,0,0,0,441,325H431V93ZM266.91,416.72A10.91,10.91,0,1,1,256,405.81,10.917,10.917,0,0,1,266.91,416.72ZM74,72H438v7H74ZM438,344H74v-5H438Zm-21-19H96V93H417Z" style="fill:#63316d"/></svg>
