<svg height="480pt" viewBox="0 0 480 480" width="480pt" xmlns="http://www.w3.org/2000/svg"><path d="m56 240c.128906-101.566406 82.433594-183.871094 184-184v-48c-128.128906 0-232 103.871094-232 232s103.871094 232 232 232v-48c-101.566406-.128906-183.871094-82.433594-184-184zm0 0" fill="#2488ff"/><path d="m240 8v48c101.621094 0 184 82.378906 184 184s-82.378906 184-184 184v48c128.128906 0 232-103.871094 232-232s-103.871094-232-232-232zm0 0" fill="#3c95ff"/><path d="m424 240c-.128906-101.566406-82.433594-183.871094-184-184v368c101.566406-.128906 183.871094-82.433594 184-184zm0 0" fill="#f1f2f2"/><path d="m56 240c.128906 101.566406 82.433594 183.871094 184 184v-368c-101.566406.128906-183.871094 82.433594-184 184zm0 0" fill="#e6e7e8"/><path d="m268.089844 255.03125c-5.503906 10.417969-16.308594 16.941406-28.089844 16.96875l30.160156 52.238281c2.722656 5.210938 8.085938 8.503907 13.960938 8.582031 5.875.082032 11.324218-3.066406 14.1875-8.199218 2.863281-5.132813 2.683594-11.421875-.46875-16.382813zm0 0" fill="#d80027"/><path d="m220.640625 214.558594c-12.167969 9.28125-16.0625 25.878906-9.292969 39.605468 6.769532 13.722657 22.3125 20.730469 37.082032 16.722657 14.769531-4.007813 24.632812-17.914063 23.535156-33.179688-1.101563-15.265625-12.855469-27.613281-28.042969-29.46875-1.300781-.160156-2.613281-.242187-3.921875-.238281-6.996094.019531-13.792969 2.320312-19.359375 6.558594zm0 0" fill="#005ece"/><path d="m220.640625 214.558594c5.566406-4.238282 12.363281-6.539063 19.359375-6.558594 1.308594-.003906 2.621094.078125 3.921875.238281l-13.441406-76.078125c-1.007813-5.714844-5.957031-9.890625-11.761719-9.921875-.695312.015625-1.390625.070313-2.078125.160157-3.144531.546874-5.9375 2.324218-7.769531 4.933593-1.832032 2.613281-2.546875 5.847657-1.992188 8.988281zm0 0" fill="#ffcd00"/><g fill="#231f20"><path d="m240 480c-132.546875 0-240-107.453125-240-240s107.453125-240 240-240 240 107.453125 240 240c-.148438 132.484375-107.515625 239.851562-240 240zm0-464c-123.710938 0-224 100.289062-224 224s100.289062 224 224 224 224-100.289062 224-224c-.140625-123.652344-100.347656-223.859375-224-224zm0 0"/><path d="m240 432c-106.039062 0-192-85.960938-192-192s85.960938-192 192-192 192 85.960938 192 192c-.125 105.988281-86.011719 191.875-192 192zm0-368c-97.203125 0-176 78.796875-176 176s78.796875 176 176 176 176-78.796875 176-176c-.109375-97.15625-78.84375-175.890625-176-176zm0 0"/><path d="m232 80h16v32h-16zm0 0"/><path d="m153.078125 105.441406 13.855469-8 16 27.710938-13.855469 8zm0 0"/><path d="m97.433594 166.933594 8-13.855469 27.710937 16-8 13.855469zm0 0"/><path d="m80 232h32v16h-32zm0 0"/><path d="m97.4375 313.070312 27.714844-15.996093 8 13.855469-27.714844 16zm0 0"/><path d="m153.070312 374.566406 15.996094-27.710937 13.859375 7.996093-15.996093 27.714844zm0 0"/><path d="m232 368h16v32h-16zm0 0"/><path d="m297.070312 354.84375 13.855469-8 16 27.710938-13.855469 8zm0 0"/><path d="m346.855469 310.933594 8-13.855469 27.710937 16-8 13.855469zm0 0"/><path d="m368 232h32v16h-32zm0 0"/><path d="m346.84375 169.070312 27.714844-15.996093 8 13.855469-27.714844 16zm0 0"/><path d="m297.074219 125.148438 15.996093-27.714844 13.855469 8-15.996093 27.714844zm0 0"/><path d="m304.800781 304.238281-28-48.519531c4.539063-10.5625 4.292969-22.574219-.675781-32.945312-4.96875-10.371094-14.175781-18.089844-25.253906-21.171876l-12.519532-70.839843c-1.664062-9.546875-9.945312-16.515625-19.632812-16.523438-1.144531.023438-2.289062.113281-3.421875.273438-10.90625 1.910156-18.199219 12.292969-16.296875 23.199219l13 73.792968c-10.964844 10.714844-14.800781 26.769532-9.867188 41.28125 4.929688 14.515625 17.757813 24.90625 32.980469 26.71875l28.085938 48.742188c6.652343 11.460937 21.320312 15.382812 32.800781 8.769531 5.519531-3.179687 9.546875-8.421875 11.199219-14.574219 1.648437-6.152344.785156-12.710937-2.398438-18.226562zm-89.359375-172.34375c.539063-.820312 1.382813-1.394531 2.34375-1.597656.308594-.042969.621094-.070313.933594-.082031 1.921875.03125 3.550781 1.421875 3.882812 3.3125l11.796876 66.863281c-2.65625.382813-5.265626 1.03125-7.789063 1.9375l-11.847656-67.351563c-.195313-1.078124.050781-2.183593.679687-3.082031zm.558594 108.105469c-.023438-7.492188 3.488281-14.558594 9.472656-19.0625 5-3.753906 11.238282-5.46875 17.457032-4.800781 12.769531 1.570312 22.03125 12.933593 20.992187 25.761719-1.039063 12.824218-12.011719 22.546874-24.871094 22.039062s-23.027343-11.070312-23.050781-23.9375zm75.703125 78.335938c-.53125 2.03125-1.863281 3.761718-3.6875 4.800781-3.816406 2.214843-8.707031.917969-10.925781-2.898438l-24.515625-42.460937c5.105469-1.707032 9.8125-4.429688 13.832031-8l24.503906 42.4375c1.089844 1.847656 1.375 4.058594.792969 6.121094zm0 0"/></g></svg>