<svg xmlns="http://www.w3.org/2000/svg" viewBox="0 0 30.139 19.731">
  <defs>
    <style>
      .eye-1 {
        opacity: 0.8;
      }

      .eye-2 {
        stroke: #000;
      }
    </style>
  </defs>
  <g id="eye_open" class="eye-1" transform="translate(0.5 -90.865)">
    <path id="Path_130" data-name="Path 130" class="eye-2" d="M28.814,99.609a17.367,17.367,0,0,0-6.122-5.984,15.723,15.723,0,0,0-16.244,0A17.363,17.363,0,0,0,.325,99.609a2.1,2.1,0,0,0,0,2.244,17.359,17.359,0,0,0,6.122,5.984,15.75,15.75,0,0,0,16.244.008,17.251,17.251,0,0,0,6.122-5.992,2.1,2.1,0,0,0,0-2.244Zm-7.179,6.431a13.622,13.622,0,0,1-14.13,0,16.783,16.783,0,0,1-5.423-5.309,15.981,15.981,0,0,1,6.2-5.74,7.106,7.106,0,0,0-.992,3.658A7.016,7.016,0,0,0,9.423,103.8a7.015,7.015,0,0,0,5.146,2.138,7.017,7.017,0,0,0,5.146-2.138,7.014,7.014,0,0,0,2.138-5.146,7.105,7.105,0,0,0-.992-3.658,15.983,15.983,0,0,1,6.2,5.74A16.779,16.779,0,0,1,21.635,106.04Z" transform="translate(0)"/>
  </g>
</svg>