<svg height="512" viewBox="0 0 58 58" width="512" xmlns="http://www.w3.org/2000/svg"><g id="037---Good-Review" fill="none"><path id="Shape" d="m58 3v34h-58v-34c0-1.65685425 1.34314575-3 3-3h52c1.6568542 0 3 1.34314575 3 3z" fill="#f29c1f"/><path id="Shape" d="m58 34v21c0 1.6568542-1.3431458 3-3 3h-52c-1.65685425 0-3-1.3431458-3-3v-21z" fill="#e64c3c"/><path id="Shape" d="m40 18h-1c1.1045695 0 2 .8954305 2 2s-.8954305 2-2 2h-1c1.1045695 0 2 .8954305 2 2s-.8954305 2-2 2h-1c1.1045695 0 2 .8954305 2 2s-.8954305 2-2 2c-9.66 0-9.733.139-10.84-.42-3.672-1.852-2.56-1.58-7.16-1.58v-14h3c2.0489018-.1479949 3.9052272-1.2617901 5-3 1.0732482-1.70082381 1.9235414-3.53248307 2.53-5.45.3707544-1.05555186 1.4472704-1.69121183 2.5506185-1.5060863 1.1033481.18512552 1.9134438 1.13733107 1.9193815 2.2560863 0 3.123-.9 4.954-2 7.7h7.89c.9465562-.0193597 1.7877898.6002806 2.05 1.51.151148.5981282.0177987 1.2325375-.3613657 1.719197s-.961704.7710972-1.5786343.770803z" fill="#fdd7ad"/><g fill="#f9c795"><path id="Shape" d="m41 20h-4c-.5522847 0-1-.4477153-1-1s.4477153-1 1-1h2c1.1032019.0032948 1.9967052.8967981 2 2z"/><path id="Shape" d="m40 24h-4c-.5522847 0-1-.4477153-1-1s.4477153-1 1-1h2c1.1032019.0032948 1.9967052.8967981 2 2z"/><path id="Shape" d="m39 28h-4c-.5522847 0-1-.4477153-1-1s.4477153-1 1-1h2c1.1032019.0032948 1.9967052.8967981 2 2z"/><path id="Shape" d="m42 16h-12c-.5522847 0-1-.4477153-1-1s.4477153-1 1-1h9.89c.5458188-.0174838 1.0759572.1840675 1.4723003.5597481.3963432.3756807.6259628.8942793.6376997 1.4402519z"/></g><rect id="Rectangle-path" fill="#5d4c72" height="17" rx="1" width="5" x="16" y="13"/><path id="Shape" d="m47.709 39.461 1.551 3.284c.1112088.2401105.3339536.409696.595.453l3.467.526c.3037607.0583377.5506859.27926.6423262.5746849.0916403.295425.0130926.6173085-.2043262.8373151l-2.507 2.554c-.1881424.1942315-.2727754.4663193-.228.733l.592 3.608c.0610494.3008711-.0554628.6101401-.2998578.79594-.2443949.1857998-.573559.2153535-.8471422.07606l-3.1-1.7c-.2289217-.1269067-.5070783-.1269067-.736 0l-3.1 1.7c-.2735832.1392935-.6027473.1097398-.8471422-.07606-.244395-.1857999-.3609072-.4950689-.2998578-.79594l.592-3.608c.0447754-.2666807-.0398576-.5387685-.228-.733l-2.511-2.554c-.2174188-.2200066-.2959665-.5418901-.2043262-.8373151.0916403-.2954249.3385655-.5163472.6423262-.5746849l3.467-.526c.2610464-.043304.4837912-.2128895.595-.453l1.551-3.284c.124611-.2800928.4024387-.4605717.709-.4605717s.584389.1804789.709.4605717z" fill="#f3d55b"/><path id="Shape" d="m29.709 39.461 1.551 3.284c.1112088.2401105.3339536.409696.595.453l3.467.526c.3037607.0583377.5506859.27926.6423262.5746849.0916403.295425.0130926.6173085-.2043262.8373151l-2.507 2.554c-.1881424.1942315-.2727754.4663193-.228.733l.592 3.608c.0610494.3008711-.0554628.6101401-.2998578.79594-.2443949.1857998-.573559.2153535-.8471422.07606l-3.1-1.7c-.2289217-.1269067-.5070783-.1269067-.736 0l-3.1 1.7c-.2735832.1392935-.6027473.1097398-.8471422-.07606-.244395-.1857999-.3609072-.4950689-.2998578-.79594l.592-3.608c.0447754-.2666807-.0398576-.5387685-.228-.733l-2.511-2.554c-.2174188-.2200066-.2959665-.5418901-.2043262-.8373151.0916403-.2954249.3385655-.5163472.6423262-.5746849l3.467-.526c.2610464-.043304.4837912-.2128895.595-.453l1.551-3.284c.124611-.2800928.4024387-.4605717.709-.4605717s.584389.1804789.709.4605717z" fill="#f3d55b"/><path id="Shape" d="m11.709 39.461 1.551 3.284c.112172.2414236.3370865.4112341.6.453l3.467.526c.3037607.0583377.5506859.27926.6423262.5746849.0916403.295425.0130926.6173085-.2043262.8373151l-2.512 2.554c-.1881424.1942315-.2727754.4663193-.228.733l.592 3.608c.0610494.3008711-.0554628.6101401-.2998578.79594-.2443949.1857998-.573559.2153535-.8471422.07606l-3.1-1.7c-.2289217-.1269067-.5070783-.1269067-.736 0l-3.1 1.7c-.27358321.1392935-.60274729.1097398-.84714224-.07606-.24439495-.1857999-.36090715-.4950689-.29985776-.79594l.592-3.608c.04477543-.2666807-.03985761-.5387685-.228-.733l-2.511-2.554c-.21741875-.2200066-.29596653-.5418901-.20432622-.8373151.09164031-.2954249.33856554-.5163472.64232622-.5746849l3.467-.524c.26291354-.0417659.48782804-.2115764.6-.453l1.551-3.284c.1255011-.2772725.4015036-.4555816.705856-.4560124.3043523-.0004308.5808585.1770963.707144.4540124z" fill="#f3d55b"/></g></svg>