<svg xmlns="http://www.w3.org/2000/svg" viewBox="0 0 17.724 23.541">
  <defs>
    <style>
      .hl-1 {
        fill: #fc5f59;
      }

      .hl-1, .hl-2 {
        stroke: #000;
        stroke-width: 1.5px;
      }

      .hl-2 {
        fill: #fecf36;
      }
    </style>
  </defs>
  <g id="Group_67" data-name="Group 67" transform="translate(-852.668 -548.772)">
    <path id="Path_152" data-name="Path 152" class="hl-1" d="M9451.687,6974.586s-2.067,1.129-2.236,4.976c-.281,3.462,1.655,8.973,7.881,9a8.3,8.3,0,0,0,8.165-9.677c-.459-5.273-5.293-7.062-5.632-11.667,1.175-2.5-5.029,2.159-4.777,10.792C9452.587,6978.358,9451.687,6974.586,9451.687,6974.586Z" transform="translate(-8596 -6417)"/>
    <path id="Path_153" data-name="Path 153" class="hl-2" d="M9450.45,6970.193a2.594,2.594,0,0,0-1.015,2.258,3.609,3.609,0,0,0,3.575,4.081,3.762,3.762,0,0,0,3.7-4.389c-.209-2.392-2.4-3.2-2.555-5.292.532-1.133-2.281.979-2.167,4.895C9450.859,6971.9,9450.45,6970.193,9450.45,6970.193Z" transform="translate(-8591.153 -6404.969)"/>
  </g>
</svg>
