<svg xmlns="http://www.w3.org/2000/svg" viewBox="0 0 73.138 74.38">
  <defs>
    <style>
      .mushroom-1, .mushroom-2, .mushroom-3, .mushroom-4 {
        fill: none;
        stroke-width: 5px;
      }

      .mushroom-1 {
        stroke: #9f9f9f;
      }

      .mushroom-2 {
        stroke: #ffd157;
      }

      .mushroom-3 {
        stroke: #4c9b22;
      }

      .mushroom-4 {
        stroke: #d0d0d0;
      }
    </style>
  </defs>
  <g id="mushroom" transform="translate(-253.551 -384.698)">
    <path id="Path_84" data-name="Path 84" class="mushroom-1" d="M7298.253,5697.354h-53.07" transform="translate(-6982 -5247)"/>
    <path id="Path_85" data-name="Path 85" class="mushroom-1" d="M7289.578,5703.578h-34.946l-4.283-6.366" transform="translate(-6982 -5247)"/>
    <g id="Group_27" data-name="Group 27">
      <path id="Path_86" data-name="Path 86" class="mushroom-2" d="M6859.236,5668.307c6.971-11.005-8.055,12.547-8.055,12.547s-1.866,3.048,0,4.971a25.154,25.154,0,0,0,4.867,3.6s3.965,1.54,5.728-.988,13.7-24.5,8.1-14.082" transform="translate(-6560 -5247)"/>
      <path id="Path_87" data-name="Path 87" class="mushroom-2" d="M6849.627,5670.278s1.012-5.986.427-1.958-5.34,4.693-8.124,1.958.6-8,2.641-9.886,17.642-10.715,29.921,0,11.225,24.04,5.836,29.092c-5.878,4.729-13.348-4.574-6.622-6.849,4.729-1.6-.77.376-.77.376" transform="translate(-6560 -5247)"/>
    </g>
    <path id="Path_88" data-name="Path 88" class="mushroom-3" d="M7263.473,5652.54s-13.717-21.953-15.59-6.726c-2.14-.156-13,2.622-4.825,10.7-6.589,14.328,7.159,3.75,16.719,7.7" transform="translate(-6984 -5222)"/>
    <path id="Path_89" data-name="Path 89" class="mushroom-3" d="M7248.419,5653.083s13.146.647,19.57,11.6" transform="translate(-6984 -5222)"/>
    <path id="Path_90" data-name="Path 90" class="mushroom-4" d="M6837.853,5656.473s8.565-5.6-.54-14.891c-2.682-5.289,3.3-7.545,3.3-7.545" transform="translate(-6560 -5247)"/>
    <path id="Path_91" data-name="Path 91" class="mushroom-4" d="M6851.789,5649.272s-7.9-9.97-.816-14.794" transform="translate(-6560 -5247)"/>
    <path id="Path_92" data-name="Path 92" class="mushroom-4" d="M6862.519,5647.922l-4.328-5.948a8.056,8.056,0,0,1,3.415-7.786" transform="translate(-6560 -5247)"/>
  </g>
</svg>
