<?xml version="1.0" encoding="iso-8859-1"?>
<!-- Generator: Adobe Illustrator 19.0.0, SVG Export Plug-In . SVG Version: 6.00 Build 0)  -->
<svg version="1.1" id="Layer_1" xmlns="http://www.w3.org/2000/svg" xmlns:xlink="http://www.w3.org/1999/xlink" x="0px" y="0px"
	 viewBox="0 0 512 512" style="enable-background:new 0 0 512 512;" xml:space="preserve">
<path style="fill:#91DAF5;" d="M503.584,86.584v242.829H9.264V86.584c0-16.91,13.704-30.626,30.613-30.626H472.97
	C489.88,55.959,503.584,69.675,503.584,86.584z"/>
<g>
	<polygon style="fill:#E6E6E6;" points="324.125,456.039 188.722,456.039 193.201,426.079 197.692,396.106 315.156,396.106 
		319.647,426.079 	"/>
	<path style="fill:#E6E6E6;" d="M503.584,329.413v36.083c0,16.91-13.704,30.613-30.613,30.613H39.877
		c-16.91,0-30.613-13.704-30.613-30.613v-36.083H503.584z"/>
</g>
<polygon style="fill:#CCCCCC;" points="319.647,426.079 193.201,426.079 197.692,396.106 315.156,396.106 "/>
<path style="fill:#5FC9ED;" d="M503.584,86.584v278.911c0,16.91-13.704,30.613-30.613,30.613H196.69l26.881-66.696L333.802,55.958
	H472.97C489.88,55.959,503.584,69.675,503.584,86.584z"/>
<path style="fill:#F2F2F2;" d="M503.584,329.413v36.083c0,16.91-13.704,30.613-30.613,30.613H196.69l26.881-66.696H503.584z"/>
<path d="M472.546,47.119H39.454C17.699,47.119,0,64.823,0,86.584v46.457c0,4.882,3.958,8.84,8.84,8.84s8.84-3.957,8.84-8.84V86.584
	c0-12.013,9.767-21.786,21.774-21.786h433.093c12.007,0,21.774,9.773,21.774,21.786v233.988h-62.928c-4.883,0-8.84,3.958-8.84,8.84
	c0,4.882,3.957,8.84,8.84,8.84h62.928v27.243c0,12.007-9.767,21.774-21.774,21.774H39.454c-12.007,0-21.774-9.767-21.774-21.774
	v-27.243h377.006c4.883,0,8.84-3.958,8.84-8.84c0-4.882-3.957-8.84-8.84-8.84H17.68V169.749c0-4.882-3.958-8.84-8.84-8.84
	S0,164.867,0,169.749v195.748c0,21.756,17.699,39.454,39.454,39.454h147.554l-6.323,42.25h-18.177c-4.882,0-8.84,3.958-8.84,8.84
	c0,4.882,3.958,8.84,8.84,8.84h186.985c4.883,0,8.84-3.958,8.84-8.84c0-4.882-3.957-8.84-8.84-8.84h-18.177l-6.323-42.25h147.554
	c21.754,0,39.454-17.699,39.454-39.454V86.584C512,64.823,494.3,47.119,472.546,47.119z M198.561,447.2l6.322-42.25h102.231
	l6.323,42.25H198.561z"/>
<g>
</g>
<g>
</g>
<g>
</g>
<g>
</g>
<g>
</g>
<g>
</g>
<g>
</g>
<g>
</g>
<g>
</g>
<g>
</g>
<g>
</g>
<g>
</g>
<g>
</g>
<g>
</g>
<g>
</g>
</svg>
