<svg height="512pt" viewBox="0 0 512.00156 512" width="512pt" xmlns="http://www.w3.org/2000/svg"><path d="m466 227.800781 41-37.015625c-13.683594-33.03125-13.71875-33.117187-27.398438-66.148437l-55.167968 2.816406-39.882813-39.886719 2.816407-55.164062-66.148438-27.402344-37.019531 41h-56.398438l-37.019531-41-66.148438 27.402344 2.816407 55.164062-39.882813 39.882813-55.167968-2.816407-27.398438 66.148438 41 37.019531v56.398438l-41 37.019531 27.398438 66.148438 55.167968-2.816407 39.882813 39.886719-2.816407 55.164062c33.03125 13.683594 33.117188 13.71875 66.148438 27.398438l37.019531-41h56.398438l37.015625 41 66.148437-27.398438-2.816406-55.164062 39.886719-39.886719 55.164062 2.816407c13.683594-33.03125 13.71875-33.117188 27.398438-66.148438l-40.996094-37.019531zm-210 104.800781c-42.304688 0-76.601562-34.296874-76.601562-76.601562s34.296874-76.597656 76.601562-76.597656 76.601562 34.292968 76.601562 76.597656-34.296874 76.601562-76.601562 76.601562zm0 0" fill="#e6e6e6"/><path d="m507 190.78125c-13.683594-33.03125-13.71875-33.117188-27.398438-66.148438l-55.167968 2.816407-19.941406-19.941407-57.59375 57.59375c50.203124 50.203126 50.203124 131.597657 0 181.800782-50.203126 50.199218-131.597657 50.199218-181.796876 0l-57.597656 57.59375 19.945313 19.941406-2.816407 55.164062c33.03125 13.683594 33.117188 13.71875 66.148438 27.398438l37.019531-41h56.398438l37.015625 41 66.148437-27.398438-2.816406-55.164062 39.886719-39.886719 55.164062 2.816407c13.683594-33.03125 13.71875-33.117188 27.398438-66.148438l-40.996094-37.019531v-56.398438zm0 0" fill="#bdbdbd"/><path d="m507 190.78125-2.28125-5.5-141.21875 141.21875c-9.683594 14.726562-22.273438 27.320312-37 37l-141.222656 141.222656 5.5 2.277344 37.023437-41h56.398438l37.015625 41 66.148437-27.398438-2.816406-55.164062 39.886719-39.886719 55.164062 2.816407c13.683594-33.03125 13.71875-33.117188 27.398438-66.148438l-40.996094-37.019531v-56.398438zm0 0" fill="#757575"/><path d="m256 127.449219c-70.996094 0-128.550781 57.554687-128.550781 128.550781s57.554687 128.550781 128.550781 128.550781 128.550781-57.554687 128.550781-128.550781-57.554687-128.550781-128.550781-128.550781zm0 205.152343c-42.304688 0-76.601562-34.296874-76.601562-76.601562s34.296874-76.597656 76.601562-76.597656 76.601562 34.292968 76.601562 76.597656-34.296874 76.601562-76.601562 76.601562zm0 0" fill="#90a4ae"/><path d="m332.601562 256c0 30.984375-18.660156 58.921875-47.289062 70.777344-28.625 11.859375-61.578125 5.304687-83.484375-16.609375l-36.726563 36.734375c50.199219 50.199218 131.59375 50.199218 181.796876 0 50.203124-50.203125 50.203124-131.597656 0-181.800782l-36.730469 36.730469c14.386719 14.351563 22.460937 33.847657 22.433593 54.167969zm0 0" fill="#78909c"/><g fill="#424242"><path d="m510.351562 194.492188c1.570313-1.417969 2.078126-3.667969 1.265626-5.625l-27.398438-66.148438c-.8125-1.949219-2.761719-3.183594-4.875-3.078125l-52.945312 2.699219-36.742188-36.738282 2.699219-52.945312c.109375-2.113281-1.125-4.066406-3.078125-4.875l-66.144532-27.398438c-1.957031-.8125-4.207031-.304687-5.625 1.265626l-35.527343 39.351562h-51.960938l-35.527343-39.351562c-1.417969-1.570313-3.671876-2.078126-5.625-1.265626l-66.148438 27.398438c-1.953125.808594-3.1875 2.761719-3.082031 4.875l2.703125 52.945312-36.738282 36.742188-52.949218-2.699219c-2.109375-.105469-4.0625 1.125-4.875 3.078125l-27.398438 66.144532c-.808594 1.957031-.300781 4.207031 1.269532 5.625l39.351562 35.527343v51.960938l-39.351562 35.527343c-1.570313 1.417969-2.078126 3.671876-1.269532 5.625l27.402344 66.148438c.808594 1.953125 2.761719 3.1875 4.875 3.082031l52.945312-2.703125 36.742188 36.742188-2.699219 52.945312c-.109375 2.113282 1.125 4.0625 3.078125 4.871094l66.148438 27.402344c1.953125.808594 4.207031.300781 5.625-1.269532l35.523437-39.351562h51.960938l35.527343 39.351562c1.417969 1.570313 3.667969 2.078126 5.625 1.269532l66.148438-27.402344c1.953125-.808594 3.1875-2.761719 3.078125-4.875l-2.699219-52.945312 36.738282-36.742188 52.949218 2.703125c2.109375.101563 4.058594-1.128906 4.871094-3.082031l27.402344-66.148438c.808594-1.953125.300781-4.207031-1.269532-5.625l-39.351562-35.523437v-51.960938zm-47.699218 93.421874 38.378906 34.652344-24.699219 59.628906-51.640625-2.636718c-1.414062-.074219-2.792968.457031-3.792968 1.457031l-39.882813 39.886719c-1 1-1.53125 2.375-1.457031 3.789062l2.632812 51.640625-59.625 24.699219-34.652344-38.378906c-.949218-1.050782-2.296874-1.652344-3.714843-1.652344h-56.398438c-1.414062 0-2.765625.601562-3.710937 1.648438l-34.65625 38.382812-59.628906-24.699219 2.640624-51.644531c.070313-1.410156-.460937-2.789062-1.460937-3.789062l-39.882813-39.882813c-1.003906-1-2.378906-1.53125-3.792968-1.457031l-51.640625 2.636718-24.699219-59.628906 38.378906-34.652344c1.050782-.949218 1.652344-2.296874 1.652344-3.714843v-56.398438c0-1.414062-.597656-2.761719-1.648438-3.710937l-38.382812-34.652344 24.699219-59.628906 51.644531 2.636718c1.414062.074219 2.789062-.457031 3.789062-1.457031l39.882813-39.886719c1-1 1.53125-2.378906 1.460937-3.789062l-2.640624-51.644531 59.628906-24.699219 34.652344 38.382812c.949218 1.050782 2.296874 1.648438 3.714843 1.648438h56.398438c1.414062 0 2.761719-.597656 3.710937-1.648438l34.65625-38.382812 59.625 24.703125-2.632812 51.640625c-.074219 1.414062.457031 2.789062 1.457031 3.789062l39.882813 39.886719c1.003906.996094 2.378906 1.527344 3.792968 1.457031l51.640625-2.636718 24.699219 59.628906-38.378906 34.648438c-1.050782.949218-1.652344 2.296874-1.652344 3.714843v56.398438c0 1.417969.597656 2.765625 1.648438 3.714843zm0 0"/><path d="m256 122.449219c-73.640625 0-133.550781 59.910156-133.550781 133.550781s59.910156 133.550781 133.550781 133.550781 133.550781-59.910156 133.550781-133.550781-59.910156-133.550781-133.550781-133.550781zm0 257.101562c-68.234375 0-123.550781-55.316406-123.550781-123.550781s55.316406-123.550781 123.550781-123.550781 123.550781 55.316406 123.550781 123.550781c-.078125 68.203125-55.347656 123.472656-123.550781 123.550781zm0 0"/><path d="m256 174.402344c-45.066406 0-81.601562 36.53125-81.601562 81.597656s36.535156 81.601562 81.601562 81.601562 81.601562-36.535156 81.601562-81.601562c-.058593-45.042969-36.558593-81.542969-81.601562-81.597656zm0 153.199218c-39.542969 0-71.601562-32.058593-71.601562-71.601562s32.058593-71.597656 71.601562-71.597656 71.601562 32.054687 71.601562 71.597656c-.046874 39.523438-32.078124 71.554688-71.601562 71.601562zm0 0"/></g></svg>