<svg height="512" viewBox="0 0 128 128" width="512" xmlns="http://www.w3.org/2000/svg"><path d="m116.634 8.576h-101.268a8.776 8.776 0 0 0 -8.766 8.765v29.09a8.777 8.777 0 0 0 8.766 8.769h42.12l1.114 1.552a33.75 33.75 0 1 0 14.8 0l1.114-1.552h42.12a8.776 8.776 0 0 0 8.765-8.766v-29.093a8.775 8.775 0 0 0 -8.765-8.765z" fill="#e6e7e8"/><circle cx="62" cy="85.675" fill="#0089ef" r="32.75"/><path d="m70.87 91.9a13.947 13.947 0 0 1 -17.74 0 11.157 11.157 0 0 0 -10.757 11.145v8.848a32.753 32.753 0 0 0 39.254 0v-8.848a11.157 11.157 0 0 0 -10.757-11.145z" fill="#fa759e"/><circle cx="62" cy="81.137" fill="#ffd7e5" r="13.946"/><path d="m62 70.191a13.946 13.946 0 0 1 13.863 12.446 13.947 13.947 0 1 0 -27.726 0 13.946 13.946 0 0 1 13.863-12.446z" fill="#fff"/><path d="m11.366 5.576h101.268a7.765 7.765 0 0 1 7.765 7.765v28.091c0 4.288-3.477 8.765-7.765 8.765h-42.634l-8 11.181-8-11.178h-42.634c-4.289 0-7.766-4.48-7.766-8.768v-28.091a7.764 7.764 0 0 1 7.766-7.765z" fill="#6dc9f7"/><path d="m22.162 16.327 3.043 6.165 6.8.989a.739.739 0 0 1 .41 1.26l-4.923 4.8 1.162 6.776a.739.739 0 0 1 -1.072.779l-6.082-3.196-6.085 3.2a.739.739 0 0 1 -1.072-.779l1.162-6.776-4.923-4.8a.739.739 0 0 1 .41-1.26l6.8-.989 3.043-6.165a.738.738 0 0 1 1.327-.004z" fill="#fa759e"/><path d="m49.162 16.327 3.043 6.165 6.8.989a.739.739 0 0 1 .41 1.26l-4.923 4.8 1.162 6.776a.739.739 0 0 1 -1.072.779l-6.082-3.196-6.085 3.2a.739.739 0 0 1 -1.072-.779l1.162-6.776-4.923-4.8a.739.739 0 0 1 .41-1.26l6.8-.989 3.043-6.165a.738.738 0 0 1 1.327-.004z" fill="#fa759e"/><path d="m76.162 16.327 3.043 6.165 6.8.989a.739.739 0 0 1 .41 1.26l-4.923 4.8 1.162 6.776a.739.739 0 0 1 -1.072.779l-6.082-3.196-6.085 3.2a.739.739 0 0 1 -1.072-.779l1.162-6.776-4.923-4.8a.739.739 0 0 1 .41-1.26l6.8-.989 3.043-6.165a.738.738 0 0 1 1.327-.004z" fill="#fa759e"/><path d="m103.162 16.327 3.043 6.165 6.8.989a.739.739 0 0 1 .41 1.26l-4.923 4.8 1.162 6.776a.739.739 0 0 1 -1.072.779l-6.082-3.196-6.085 3.2a.739.739 0 0 1 -1.072-.779l1.162-6.776-4.923-4.8a.739.739 0 0 1 .41-1.26l6.8-.989 3.043-6.165a.738.738 0 0 1 1.327-.004z" fill="#ffd7e5"/><g fill="#3a2c60"><path d="m33.556 23.674a1.728 1.728 0 0 0 -1.4-1.183l-6.282-.913-2.81-5.693a1.737 1.737 0 0 0 -3.117 0l-2.811 5.693-6.283.913a1.738 1.738 0 0 0 -.964 2.965l4.547 4.432-1.073 6.259a1.736 1.736 0 0 0 2.523 1.832l5.614-2.954 5.619 2.954a1.739 1.739 0 0 0 2.523-1.832l-1.074-6.259 4.546-4.431a1.726 1.726 0 0 0 .442-1.783zm-6.756 5.149a1 1 0 0 0 -.287.885l1.072 6.254-5.619-2.952a1 1 0 0 0 -.932 0l-5.616 2.953 1.072-6.255a1 1 0 0 0 -.287-.885l-4.544-4.429 6.28-.912a1 1 0 0 0 .753-.547l2.808-5.69 2.809 5.69a1 1 0 0 0 .753.547l6.278.912z"/><path d="m60.556 23.674a1.728 1.728 0 0 0 -1.4-1.183l-6.282-.913-2.81-5.693a1.737 1.737 0 0 0 -3.117 0l-2.811 5.693-6.283.913a1.738 1.738 0 0 0 -.964 2.965l4.547 4.432-1.073 6.259a1.736 1.736 0 0 0 2.523 1.832l5.614-2.954 5.619 2.954a1.739 1.739 0 0 0 2.523-1.832l-1.074-6.259 4.546-4.431a1.726 1.726 0 0 0 .442-1.783zm-6.756 5.149a1 1 0 0 0 -.287.885l1.072 6.254-5.619-2.952a1 1 0 0 0 -.932 0l-5.616 2.953 1.072-6.255a1 1 0 0 0 -.287-.885l-4.544-4.429 6.28-.912a1 1 0 0 0 .753-.547l2.808-5.69 2.809 5.69a1 1 0 0 0 .753.547l6.278.912z"/><path d="m87.556 23.674a1.728 1.728 0 0 0 -1.405-1.183l-6.282-.913-2.81-5.693a1.737 1.737 0 0 0 -3.117 0l-2.811 5.693-6.283.913a1.738 1.738 0 0 0 -.964 2.965l4.547 4.432-1.073 6.259a1.736 1.736 0 0 0 2.523 1.832l5.619-2.954 5.619 2.954a1.739 1.739 0 0 0 2.523-1.832l-1.074-6.259 4.546-4.431a1.726 1.726 0 0 0 .442-1.783zm-6.756 5.149a1 1 0 0 0 -.287.885l1.072 6.254-5.619-2.952a1 1 0 0 0 -.932 0l-5.616 2.953 1.072-6.255a1 1 0 0 0 -.287-.885l-4.544-4.429 6.28-.912a1 1 0 0 0 .753-.547l2.808-5.69 2.809 5.69a1 1 0 0 0 .753.547l6.278.912z"/><path d="m114.556 23.674a1.728 1.728 0 0 0 -1.405-1.183l-6.282-.913-2.81-5.693a1.737 1.737 0 0 0 -3.117 0l-2.811 5.693-6.283.913a1.738 1.738 0 0 0 -.964 2.965l4.547 4.432-1.073 6.259a1.736 1.736 0 0 0 2.523 1.832l5.619-2.954 5.619 2.954a1.739 1.739 0 0 0 2.523-1.832l-1.074-6.259 4.546-4.431a1.726 1.726 0 0 0 .442-1.783zm-6.76 5.149a1 1 0 0 0 -.287.885l1.072 6.254-5.615-2.952a1 1 0 0 0 -.932 0l-5.616 2.953 1.072-6.255a1 1 0 0 0 -.287-.885l-4.544-4.429 6.28-.912a1 1 0 0 0 .753-.547l2.808-5.69 2.809 5.69a1 1 0 0 0 .753.547l6.278.912z"/><path d="m112.634 4.575h-65.879a1 1 0 0 0 0 2h65.879a6.774 6.774 0 0 1 6.765 6.766v28.091c0 3.591-2.956 7.764-6.765 7.764h-42.634a1 1 0 0 0 -.813.418l-7.187 10.045-7.186-10.045a1 1 0 0 0 -.814-.414h-42.634c-3.81 0-6.765-4.173-6.765-7.764v-28.095a6.774 6.774 0 0 1 6.765-6.766h17.286a1 1 0 0 0 0-2h-17.286a8.776 8.776 0 0 0 -8.766 8.766v28.091c0 4.609 3.749 9.764 8.765 9.764h42.12l1.115 1.561a33.75 33.75 0 1 0 14.794 0l1.12-1.557h42.12c5.016 0 8.765-5.155 8.765-9.764v-28.095a8.776 8.776 0 0 0 -8.765-8.766zm-69.261 106.788v-8.318a10.169 10.169 0 0 1 9.458-10.129 14.853 14.853 0 0 0 18.338 0 10.169 10.169 0 0 1 9.458 10.129v8.318a31.649 31.649 0 0 1 -37.254 0zm18.627-17.279a12.947 12.947 0 1 1 12.946-12.946 12.96 12.96 0 0 1 -12.946 12.946zm31.75-8.409a31.683 31.683 0 0 1 -11.123 24.107v-6.737a12.178 12.178 0 0 0 -9.578-11.878 14.946 14.946 0 1 0 -22.1 0 12.178 12.178 0 0 0 -9.578 11.878v6.737a31.721 31.721 0 0 1 14.5-55.253l5.316 7.431a1 1 0 0 0 1.627 0l5.315-7.431a31.8 31.8 0 0 1 25.621 31.146z"/><path d="m32.809 6.575h9.61a1 1 0 0 0 0-2h-9.61a1 1 0 1 0 0 2z"/></g></svg>